<svg xmlns="http://www.w3.org/2000/svg" viewBox="0 0 40.32 40.71"><defs><style>.cls-1{fill:#66ceef;}.cls-1,.cls-2,.cls-3,.cls-4{fill-rule:evenodd;}.cls-2{fill:#1a87c7;}.cls-3{fill:#bdedf8;}.cls-4{fill:#fff;}</style></defs><g id="Camada_2" data-name="Camada 2"><g id="_Layer_" data-name="&lt;Layer&gt;"><path class="cls-1" d="M28.57,3.39,24.05.78,23.5.6A8.67,8.67,0,0,0,19.81.42C16.38,1,13,3.2,10.51,5.53,5.21,10.49,1,18.4.38,25.67a15.48,15.48,0,0,0,1.07,7.62,8.71,8.71,0,0,0,1.74,2.5l.43.38,4.52,2.61A10.71,10.71,0,0,1,7.3,38a9.51,9.51,0,0,1-1.82-3.33c-1.09-3.39-.68-7.5.22-10.88C7.51,17,12.09,9.84,17.86,5.84A15.4,15.4,0,0,1,25,3a8.6,8.6,0,0,1,3,.26Z"/><path class="cls-2" d="M21.28.61a9.7,9.7,0,0,0-1.42.11c-3.92.61-7.41,3.42-9.14,5-5.51,5.16-9.45,13-10,19.94a15.2,15.2,0,0,0,1,7.47,8.13,8.13,0,0,0,1.68,2.4l.42.38L6.55,37.5a10.09,10.09,0,0,1-1.37-2.77c-1.29-4-.41-8.66.23-11,1.91-7.15,6.73-14.25,12.27-18.1A16,16,0,0,1,25,2.64a8.88,8.88,0,0,1,1.71,0L23.9,1.05,23.41.89A8,8,0,0,0,21.28.61ZM8.12,39.08A.2.2,0,0,1,8,39l-4.52-2.6L3,36a9.05,9.05,0,0,1-1.82-2.6,16,16,0,0,1-1.1-7.78C.67,18.55,4.68,10.56,10.3,5.3,12.08,3.64,15.68.75,19.77.12a9,9,0,0,1,3.82.19l.56.18,4.57,2.63a.31.31,0,0,1,.13.39.3.3,0,0,1-.38.17l-.55-.18A8.34,8.34,0,0,0,25,3.25a15.31,15.31,0,0,0-7,2.84C12.6,9.85,7.88,16.82,6,23.84c-.62,2.32-1.48,6.8-.23,10.7a9.37,9.37,0,0,0,1.76,3.23c.26.28.49.49.78.75a.31.31,0,0,1,.06.42A.3.3,0,0,1,8.12,39.08Z"/><path class="cls-3" d="M19.34,38.41c8-4.63,14.51-15.88,14.51-25.14s-6.5-13-14.51-8.38S4.82,20.77,4.82,30,11.33,43,19.34,38.41Z"/><path class="cls-2" d="M19.34,38.41h0Zm6.48-35.2a13,13,0,0,0-6.33,2C11.57,9.73,5.13,20.89,5.13,30c0,4.36,1.46,7.6,4.1,9.13s6.18,1.16,10-1c7.91-4.57,14.35-15.72,14.35-24.87,0-4.36-1.45-7.6-4.1-9.13a7.12,7.12,0,0,0-3.62-.93Zm-13,37.5a7.73,7.73,0,0,1-3.93-1C6.08,38.05,4.51,34.62,4.51,30c0-9.34,6.59-20.74,14.68-25.4,4-2.3,7.72-2.66,10.56-1s4.41,5.07,4.41,9.66c0,9.34-6.58,20.74-14.67,25.41h0A13.56,13.56,0,0,1,12.85,40.71Z"/><path class="cls-4" d="M19.34,34.76C25.75,31.06,31,22.06,31,14.65S25.75,4.24,19.34,7.94,7.72,20.65,7.72,28.06,12.92,38.47,19.34,34.76Z"/><path class="cls-2" d="M24.52,6.66a10.25,10.25,0,0,0-5,1.55C13.17,11.86,8,20.76,8,28.06c0,3.47,1.15,6,3.25,7.25s4.9.92,7.91-.81C25.5,30.85,30.64,22,30.64,14.65c0-3.47-1.15-6.05-3.25-7.26a5.65,5.65,0,0,0-2.87-.73Zm-10.37,30A6.25,6.25,0,0,1,11,35.84c-2.29-1.32-3.56-4.08-3.56-7.78,0-7.49,5.28-16.64,11.78-20.39,3.19-1.84,6.22-2.13,8.51-.81s3.56,4.09,3.56,7.79C31.26,22.14,26,31.28,19.49,35A10.81,10.81,0,0,1,14.15,36.66Z"/><path class="cls-3" d="M19.34,31.42c4.81-2.78,8.71-9.54,8.71-15.1s-3.9-7.81-8.71-5-8.72,9.54-8.72,15.1S14.52,34.2,19.34,31.42Z"/><path class="cls-2" d="M19.34,31.42Zm3.89-21a7.59,7.59,0,0,0-3.74,1.15c-4.72,2.72-8.56,9.38-8.56,14.83,0,2.57.85,4.48,2.4,5.37s3.62.68,5.85-.61h0c4.72-2.72,8.56-9.38,8.56-14.83,0-2.57-.85-4.48-2.39-5.37a4.13,4.13,0,0,0-2.12-.54ZM15.44,32.92A4.84,4.84,0,0,1,13,32.3c-1.75-1-2.71-3.11-2.71-5.91,0-5.65,4-12.54,8.87-15.37,2.43-1.4,4.73-1.62,6.47-.61s2.71,3.11,2.71,5.91c0,5.65-4,12.54-8.87,15.36h0A8.14,8.14,0,0,1,15.44,32.92Z"/><path class="cls-4" d="M19.34,14.93c3.21-1.85,5.81-.35,5.81,3.36a12.86,12.86,0,0,1-5.81,10.08c-3.22,1.86-5.82.35-5.82-3.36A12.86,12.86,0,0,1,19.34,14.93Z"/><path class="cls-2" d="M19.49,15.2A12.53,12.53,0,0,0,13.82,25a3.81,3.81,0,0,0,1.55,3.5,3.8,3.8,0,0,0,3.81-.4,12.55,12.55,0,0,0,5.67-9.82,3.83,3.83,0,0,0-1.55-3.5c-1-.58-2.36-.43-3.81.41ZM16.73,29.48a3.37,3.37,0,0,1-1.66-.43c-1.2-.7-1.86-2.13-1.86-4a13.22,13.22,0,0,1,6-10.34h0c1.65-1,3.23-1.1,4.42-.41s1.86,2.12,1.86,4a13.22,13.22,0,0,1-6,10.35A5.58,5.58,0,0,1,16.73,29.48Z"/><path class="cls-3" d="M19.34,24.72c-1.62.93-2.92.18-2.92-1.68A6.42,6.42,0,0,1,19.34,18c1.61-.94,2.91-.18,2.91,1.68A6.44,6.44,0,0,1,19.34,24.72Z"/><path class="cls-2" d="M19.34,24.72Zm1.3-6.83a2.32,2.32,0,0,0-1.15.36A6.13,6.13,0,0,0,16.73,23a1.75,1.75,0,0,0,.7,1.62,1.76,1.76,0,0,0,1.75-.2h0A6.11,6.11,0,0,0,22,19.67a1.76,1.76,0,0,0-.7-1.62,1.16,1.16,0,0,0-.61-.16ZM18,25.43a1.86,1.86,0,0,1-.91-.23,2.36,2.36,0,0,1-1-2.16,6.8,6.8,0,0,1,3.07-5.32,2.35,2.35,0,0,1,2.37-.21,2.36,2.36,0,0,1,1,2.16A6.79,6.79,0,0,1,19.49,25h0A3,3,0,0,1,18,25.43Z"/><path class="cls-3" d="M30.34,27.19l2.47-1.07c.11,0,.19,0,.28.08L39.73,30a.51.51,0,0,1,.27.55c0,.22-.8.56-1.07.71l-.79.42Z"/><path class="cls-2" d="M31,27.23l7.12,4.11.81-.43a4.12,4.12,0,0,0,.76-.45.29.29,0,0,0-.14-.18l-6.64-3.81-.06,0-1.85.8ZM38.14,32A.28.28,0,0,1,38,32l-7.8-4.51a.3.3,0,0,1,0-.54l2.47-1.07a.51.51,0,0,1,.52.07l6.68,3.84a.83.83,0,0,1,.41.89c-.06.27-.38.48-1.07.82l-.94.51A.37.37,0,0,1,38.14,32Z"/><path class="cls-3" d="M30.17,27.57l.31,2.6c0,.12.11.15.2.2l6.63,3.85a.51.51,0,0,0,.61,0c.16-.15.08-.9.07-1.2l0-.89Z"/><path class="cls-2" d="M30.78,30.07l0,0L37.46,34a.22.22,0,0,0,.26,0,6.63,6.63,0,0,0,0-.74l0-.94-7.12-4.11.23,1.92Zm6.81,4.53a.88.88,0,0,1-.44-.12l-6.62-3.84a.58.58,0,0,1-.36-.44l-.31-2.59a.3.3,0,0,1,.14-.29.29.29,0,0,1,.32,0l7.8,4.51a.31.31,0,0,1,.16.26l0,1.08c0,.62,0,1-.18,1.24A.82.82,0,0,1,37.59,34.6Z"/><path class="cls-1" d="M38.2,32.57l-19-11a.42.42,0,0,1-.15-.56l.13-.23a.41.41,0,0,1,.56-.15l19,11a.42.42,0,0,1,.15.56l-.13.22A.42.42,0,0,1,38.2,32.57Z"/><path class="cls-2" d="M19.55,20.92a.11.11,0,0,0-.09,0l-.13.23a.11.11,0,0,0,0,.14l19,11h0a.11.11,0,0,0,.14,0l.13-.23a.11.11,0,0,0,0-.13l-19-11a.06.06,0,0,0-.05,0Zm18.85,12a.73.73,0,0,1-.35-.09l-19-11a.71.71,0,0,1-.27-1l.14-.24a.72.72,0,0,1,1-.26l19,11a.67.67,0,0,1,.33.44.69.69,0,0,1-.07.54l-.13.23a.69.69,0,0,1-.43.33Z"/></g></g></svg>