<svg xmlns="http://www.w3.org/2000/svg" viewBox="0 0 71.16 72.81"><defs><style>.cls-1{fill:#bdedf8;}.cls-1,.cls-2,.cls-3,.cls-4{fill-rule:evenodd;}.cls-2{fill:#1a87c7;}.cls-3{fill:#66ceef;}.cls-4{fill:#fff;}</style></defs><g id="Camada_2" data-name="Camada 2"><g id="_Layer_" data-name="&lt;Layer&gt;"><path class="cls-1" d="M4.8,68.05c.63-4.26.52-9.32,2-12.88a9.15,9.15,0,0,1,2-3,8.49,8.49,0,0,1,4.44-2.35,8.84,8.84,0,0,1,5,.53,9.71,9.71,0,0,1,3.15,2.1,9.91,9.91,0,0,1,2.11,3.15,8.94,8.94,0,0,1,.52,5A8.51,8.51,0,0,1,21.67,65a9,9,0,0,1-3,2C15.09,68.5,10,68.38,5.76,69A.78.78,0,0,1,5,68.78.79.79,0,0,1,4.8,68.05Z"/><path class="cls-2" d="M4.8,68.05h0Zm10.05-17.8a7.76,7.76,0,0,0-1.52.15,7.85,7.85,0,0,0-4.12,2.18,8.51,8.51,0,0,0-1.86,2.81c-.95,2.33-1.22,5.41-1.48,8.4-.13,1.44-.26,2.95-.47,4.36h0a.2.2,0,0,0,.07.19.2.2,0,0,0,.21.07c1.4-.21,2.9-.35,4.36-.47,3-.26,6.06-.52,8.38-1.47a9,9,0,0,0,2.82-1.86,7.91,7.91,0,0,0,2.18-4.13,8.22,8.22,0,0,0-.48-4.67,9.05,9.05,0,0,0-2-3,9.18,9.18,0,0,0-2.94-2,8.39,8.39,0,0,0-3.17-.64ZM5.63,69.65a1.37,1.37,0,0,1-1-.44A1.39,1.39,0,0,1,4.19,68c.2-1.35.33-2.85.45-4.28.28-3.07.55-6.25,1.58-8.74a9.55,9.55,0,0,1,2.12-3.23,9,9,0,0,1,4.76-2.52,9.38,9.38,0,0,1,5.38.55A10.48,10.48,0,0,1,21.83,52a10.34,10.34,0,0,1,2.25,3.36,9.43,9.43,0,0,1,.55,5.37,9.09,9.09,0,0,1-2.52,4.77,10,10,0,0,1-3.22,2.13c-2.49,1-5.67,1.29-8.74,1.57-1.44.12-2.93.24-4.29.45A.93.93,0,0,1,5.63,69.65Z"/><path class="cls-1" d="M23.93,39.52,17.84,28l2.23-2.24a4.27,4.27,0,0,1,1.73-1.1,2.72,2.72,0,0,1,1.78,0l11.15,4.07h0Z"/><path class="cls-2" d="M18.59,28.07l5.5,10.43L33.62,29,23.36,25.25a2,2,0,0,0-1.38,0,3.45,3.45,0,0,0-1.47.94l-1.92,1.92Zm5.34,12.06h-.09a.66.66,0,0,1-.45-.33l-6.1-11.56a.59.59,0,0,1,.11-.71l2.24-2.25a4.65,4.65,0,0,1,2-1.25,3.3,3.3,0,0,1,2.15,0l11.16,4.05a.65.65,0,0,1,.39.42.63.63,0,0,1-.12.56L24.37,40A.58.58,0,0,1,23.93,40.13Z"/><path class="cls-1" d="M33.22,51.2l11.56,6.1L47,55.06a4,4,0,0,0,1.1-1.72,2.69,2.69,0,0,0,0-1.77L44,40.41h0Z"/><path class="cls-2" d="M34.24,51.05l10.43,5.51,1.91-1.93a3.42,3.42,0,0,0,1-1.46,2.13,2.13,0,0,0,0-1.39L43.77,41.52l-9.53,9.53Zm10.54,6.88a.73.73,0,0,1-.29-.07l-11.56-6.1a.63.63,0,0,1-.15-1L43.58,40a.78.78,0,0,1,.58-.12.59.59,0,0,1,.44.35l4,11.16a3.33,3.33,0,0,1,.06,2.16,4.71,4.71,0,0,1-1.26,2l-2.23,2.24A.63.63,0,0,1,44.78,57.93Z"/><path class="cls-3" d="M33.27,52.49,47.12,39.31l-.11.11-.12.08-.11.09-.12.09-.13.08-.13.07-.14.07-.13.07L46,40l-.15.06-.15.05-.15,0-.16,0-.15,0-.17,0-.16,0-.18,0-.17,0h-.92l-.19,0-.19,0-.2,0-.21,0-.2,0-.21,0-.21,0L42,40.08,41.79,40l-.21,0-.22-.09-.21-.07-.22-.07-.21-.09-.21-.08-.22-.11-.21-.08-.22-.11-.21-.1L39.44,39l-.21-.1L39,38.81l-.21-.12-.21-.14-.21-.12-.2-.14L38,38.15,37.79,38l-.21-.14-.2-.16-.2-.14L37,37.42l-.19-.16-.2-.17-.19-.16-.19-.17L36,36.6l-.19-.17-.18-.18-.18-.17-.18-.19-.17-.18L35,35.52l-.18-.19-.16-.17L34.47,35l-.16-.19-.16-.21L34,34.38l-.15-.19L33.69,34l-.14-.2-.14-.2-.14-.21-.13-.21L33,33l-.13-.21-.12-.21-.13-.23-.11-.2-.11-.21-.1-.21-.11-.21-.09-.23-.1-.2-.09-.21-.09-.23-.07-.21-.08-.21L31.61,30l-.06-.21-.06-.21,0-.23-.06-.2,0-.21,0-.19,0-.21,0-.21,0-.19,0-.19V27l0-.17,0-.15,0-.18,0-.16,0-.17,0-.16.05-.14.05-.15.05-.14.07-.14.06-.14.07-.14.08-.12.08-.14.08-.12.08-.1.1-.12.1-.11L19.17,38.39C13.94,44.22,27.45,57.72,33.27,52.49Z"/><path class="cls-2" d="M33.27,52.49h0ZM30.59,27.11l-11,11.7c-2.42,2.69-.19,7.25,2.9,10.34s7.64,5.3,10.34,2.89L44.49,41,44,41,41,40.39,36.61,37.9l-4-4.39-1.83-4.24-.21-1.71v-.45Zm-.5,27.19c-2.85,0-6.06-1.9-8.45-4.28-3.48-3.49-5.89-8.74-2.93-12.05L31.8,24a.6.6,0,0,1,.86,0,.6.6,0,0,1,.05.85h0l0,0-.16.15v0l-.17.19,0,0h0l-.17.18.08,0h-.12l-.15.18.16.06-.35,1.88.68,3.06,2.77,4.31,4.47,3.57,4.12,1.25h.34l1.7-.35.13.1.12-.1,0-.1.09.07.16-.16,0,0,0,0,.17-.16h0l.09-.07.1-.1,0,0a.68.68,0,0,1,.75.08c.22.25.31.54.07.78L33.7,52.94v0A5.21,5.21,0,0,1,30.09,54.3Z"/><path class="cls-4" d="M27.54,36.48l-.7-1.29-19.07,4c-3.71.92-4.58,2.13-7.16,4.71l.71,1.28c2.58-2.57,3.44-3.77,7.15-4.69Z"/><path class="cls-2" d="M1.38,44l.08.17L1.63,44c2.06-2.08,3.19-3.23,6.69-4.12L26.6,36l-.09-.15L7.89,39.76c-3.13.79-4,1.73-6.08,3.78L1.38,44Zm-.06,1.81H1.23a.66.66,0,0,1-.45-.33L.07,44.16a.62.62,0,0,1,.11-.73l.75-.76c2.06-2.09,3.2-3.23,6.68-4.1l19.1-4a.62.62,0,0,1,.67.32l.7,1.28a.62.62,0,0,1,0,.56.63.63,0,0,1-.43.35l-19.08,4c-3.13.78-4.06,1.72-6.09,3.77l-.74.76A.67.67,0,0,1,1.32,45.78Z"/><path class="cls-1" d="M27.54,36.48l-19.07,4a13.62,13.62,0,0,0-2.83,1,8.07,8.07,0,0,0-2.08,1.48L1.32,45.15,17.5,46.53Z"/><path class="cls-2" d="M2.69,44.67l14.58,1.21,8.38-8.38L8.59,41.05a12.72,12.72,0,0,0-2.67,1A7,7,0,0,0,4,43.36l-1.3,1.31ZM17.5,47.13h-.05L1.27,45.78a.62.62,0,0,1-.38-1.06l2.23-2.23a8.68,8.68,0,0,1,2.25-1.58,13.23,13.23,0,0,1,3-1.06l19.09-4a.64.64,0,0,1,.66.31.62.62,0,0,1-.1.73L17.94,47A.64.64,0,0,1,17.5,47.13Z"/><path class="cls-4" d="M32.66,69.94l-2.24,2.25-1.51-.86,2.24-2.24a10.43,10.43,0,0,0,2.47-4.9l4-19.07L39.1,46,35.12,65A10.32,10.32,0,0,1,32.66,69.94Z"/><path class="cls-2" d="M32.66,69.94h0Zm-2.74,1.25.39.23,1.91-1.91a9.8,9.8,0,0,0,2.31-4.63l3.88-18.6L38,46.06l-3.8,18.25a11.07,11.07,0,0,1-2.62,5.22l-1.68,1.66Zm.5,1.62a.59.59,0,0,1-.31-.09l-1.5-.85a.59.59,0,0,1-.31-.45.63.63,0,0,1,.17-.52l2.24-2.24A9.65,9.65,0,0,0,33,64l4-19a.57.57,0,0,1,.35-.44.56.56,0,0,1,.56,0l1.5.85a.59.59,0,0,1,.3.66l-4,19.07a11,11,0,0,1-2.63,5.22h0l-2.25,2.24A.59.59,0,0,1,30.42,72.81Z"/><path class="cls-1" d="M37.59,45.12l-4,19.07a12.52,12.52,0,0,1-1,2.81,7.84,7.84,0,0,1-1.46,2.09l-2.24,2.24L27.55,55.15Z"/><path class="cls-2" d="M28.2,55.39,29.41,70l1.3-1.3a7.11,7.11,0,0,0,1.35-1.93,12.41,12.41,0,0,0,1-2.68l3.55-17L28.2,55.39ZM28.91,72a.54.54,0,0,1-.21,0,.58.58,0,0,1-.4-.53L26.94,55.2a.58.58,0,0,1,.18-.48l10-10a.61.61,0,0,1,1,.56l-4,19.07a13.46,13.46,0,0,1-1.06,3,8.62,8.62,0,0,1-1.57,2.25l-2.24,2.24A.63.63,0,0,1,28.91,72Z"/><polygon class="cls-4" points="41.72 41.59 41.97 41.66 42.21 41.71 42.45 41.76 42.69 41.82 42.92 41.85 43.15 41.87 43.38 41.9 43.6 41.92 43.82 41.94 44.25 41.94 44.46 41.92 44.67 41.92 44.87 41.9 45.06 41.87 45.25 41.83 45.44 41.8 45.63 41.76 45.81 41.71 45.99 41.66 46.16 41.61 46.32 41.54 46.49 41.47 46.65 41.4 46.8 41.31 46.95 41.22 47.1 41.14 47.24 41.03 47.37 40.95 47.51 40.82 47.63 40.72 66.18 23.25 48.09 4.81 30.44 23.53 30.32 23.65 30.22 23.79 30.11 23.91 30.02 24.07 29.93 24.21 29.84 24.35 29.76 24.5 29.68 24.66 29.62 24.83 29.55 25.01 29.49 25.16 29.44 25.35 29.39 25.53 29.35 25.72 29.31 25.89 29.28 26.1 29.26 26.29 29.24 26.48 29.22 26.69 29.22 26.9 29.22 27.11 29.22 27.33 29.23 27.54 29.26 27.77 29.28 28 29.31 28.24 29.34 28.47 29.39 28.71 29.44 28.93 29.5 29.18 29.56 29.44 29.63 29.68 29.71 29.93 29.79 30.17 29.87 30.43 29.96 30.67 30.06 30.92 30.16 31.18 30.27 31.42 30.39 31.66 30.51 31.91 30.63 32.15 30.76 32.39 30.89 32.64 31.03 32.88 31.17 33.13 31.32 33.37 31.46 33.61 31.62 33.84 31.78 34.08 31.94 34.31 32.11 34.55 32.28 34.77 32.46 35 32.63 35.23 32.82 35.45 33 35.68 33.19 35.91 33.38 36.11 33.58 36.34 33.78 36.55 33.98 36.76 34.19 36.97 34.4 37.18 34.6 37.37 34.82 37.57 35.03 37.77 35.25 37.96 35.47 38.15 35.7 38.34 35.92 38.51 36.15 38.7 36.38 38.88 36.61 39.05 36.84 39.21 37.07 39.38 37.31 39.54 37.55 39.7 37.79 39.83 38.03 39.99 38.27 40.13 38.51 40.27 38.76 40.39 39 40.53 39.24 40.65 39.49 40.77 39.73 40.88 39.99 40.98 40.23 41.09 40.48 41.19 40.73 41.28 40.98 41.36 41.23 41.45 41.48 41.52 41.72 41.59"/><path class="cls-2" d="M41.88,41l2.17.31,2.71-.69.46-.35,18.08-17L48.1,5.69,30,25.53l-.19,1.6L30.37,30l2.08,4,3.64,3.91,4.61,2.75,1.18.38ZM44,42.55l-2.47-.35v0l-3.85-1.67L33.34,37l-3.26-4.53L28.7,28.33l-.09-1.2.51-2.7L30,23.11,47.64,4.39a.73.73,0,0,1,.44-.21h0a.61.61,0,0,1,.44.19L66.62,22.81a.67.67,0,0,1,.17.44.59.59,0,0,1-.2.45L46.37,42.18Z"/><path class="cls-1" d="M53.66,17.5a16.79,16.79,0,0,0,7.09,4.36c2.5.66,4.48.26,5.68-.94s1.6-3.18.94-5.67A16.63,16.63,0,0,0,63,8.15,16.47,16.47,0,0,0,55.92,3.8c-2.5-.66-4.48-.26-5.68.94s-1.6,3.18-.94,5.66A16.51,16.51,0,0,0,53.66,17.5Z"/><path class="cls-2" d="M53.65,4.1a4.09,4.09,0,0,0-3,1.07c-1.08,1.08-1.36,2.89-.77,5.08a15.67,15.67,0,0,0,4.2,6.81,15.89,15.89,0,0,0,6.81,4.21c2.2.57,4,.31,5.08-.78s1.36-2.89.78-5.08a15.77,15.77,0,0,0-4.2-6.81,15.73,15.73,0,0,0-6.82-4.21,8.66,8.66,0,0,0-2.1-.29ZM63,22.8a9.37,9.37,0,0,1-2.42-.35,17.06,17.06,0,0,1-7.37-4.52,17,17,0,0,1-4.52-7.37C48,7.94,48.39,5.71,49.8,4.3s3.64-1.81,6.27-1.09a17.15,17.15,0,0,1,7.38,4.5A17.2,17.2,0,0,1,68,15.08c.7,2.64.32,4.87-1.09,6.28A5.3,5.3,0,0,1,63,22.8Z"/><path class="cls-3" d="M70.55.62,68,19.46a5.79,5.79,0,0,1-1.85,3.79,5.28,5.28,0,0,1-4.39.89,14,14,0,0,1-1.56-.32,18.51,18.51,0,0,1-8-4.9h0a18.6,18.6,0,0,1-4.91-8A11.9,11.9,0,0,1,47,9.38,5.18,5.18,0,0,1,47.91,5,5.81,5.81,0,0,1,51.7,3.14Z"/><path class="cls-2" d="M69.83,1.33l-18,2.42A5.11,5.11,0,0,0,48.37,5.4c-.77.85-1,2.08-.73,3.87a8.64,8.64,0,0,0,.29,1.5,18,18,0,0,0,4.74,7.72,17.9,17.9,0,0,0,7.72,4.74,9.23,9.23,0,0,0,1.47.28c1.81.28,3,0,3.9-.73a5,5,0,0,0,1.65-3.41l2.42-18ZM63.19,24.87a13.54,13.54,0,0,1-1.49-.12,13.86,13.86,0,0,1-1.63-.33,19.07,19.07,0,0,1-8.27-5.06,19,19,0,0,1-5.06-8.28,11.15,11.15,0,0,1-.32-1.63c-.33-2.14,0-3.74,1-4.89a6.34,6.34,0,0,1,4.16-2L70.47,0A.58.58,0,0,1,71,.18a.63.63,0,0,1,.17.51L68.63,19.55a6.32,6.32,0,0,1-2,4.15A4.8,4.8,0,0,1,63.19,24.87Z"/><path class="cls-1" d="M54.09,28.52a10,10,0,0,0-8.7,2.35c-2,2-1.43,4.27,1.35,5a9.89,9.89,0,0,0,8.69-2.33C57.46,31.52,56.86,29.27,54.09,28.52Z"/><path class="cls-2" d="M52.12,28.9a9.41,9.41,0,0,0-6.3,2.4,2.63,2.63,0,0,0-1,2.4,2.64,2.64,0,0,0,2,1.58A9.23,9.23,0,0,0,55,33.11a2.59,2.59,0,0,0,1-2.4,2.61,2.61,0,0,0-2-1.58,6.7,6.7,0,0,0-1.81-.23Zm-3.41,7.84a8.77,8.77,0,0,1-2.14-.26A3.74,3.74,0,0,1,43.67,34,3.76,3.76,0,0,1,45,30.41a10.55,10.55,0,0,1,9.29-2.48h0a3.76,3.76,0,0,1,2.92,2.46A3.76,3.76,0,0,1,55.87,34,10.59,10.59,0,0,1,48.71,36.74Z"/><path class="cls-3" d="M58.79,28.12l.33,1.23a3.9,3.9,0,0,0-1.62-1.72,7.27,7.27,0,0,0-2.55-.9,12.26,12.26,0,0,0-2.9-.16,16.59,16.59,0,0,0-3.43.63,14.42,14.42,0,0,0-3.73,1.68,8.91,8.91,0,0,0-2.83,2.77A4.17,4.17,0,0,0,41.43,34a6.34,6.34,0,0,1,.89-5c2.53-3.75,9-3.93,13.23-3A4.75,4.75,0,0,1,58.79,28.12Z"/><path class="cls-2" d="M50.83,26.08c-3.3.06-6.48,1-8,3.22a5.34,5.34,0,0,0-.52,1,10.86,10.86,0,0,1,2.24-1.91,16.12,16.12,0,0,1,3.88-1.75,17,17,0,0,1,2.4-.53Zm-9.4,8.49a.62.62,0,0,1-.59-.45,6.93,6.93,0,0,1,1-5.51c2.56-3.8,9-4.35,13.88-3.24.65.14,2.83.75,3.65,2.49,0,0,0,.07,0,.1l.32,1.22a.63.63,0,0,1-.38.75.64.64,0,0,1-.77-.32,3.28,3.28,0,0,0-1.39-1.46,7.08,7.08,0,0,0-2.33-.82,11.73,11.73,0,0,0-2.75-.13,14.77,14.77,0,0,0-3.31.59,14.43,14.43,0,0,0-3.56,1.61A8.11,8.11,0,0,0,42.59,32a3.37,3.37,0,0,0-.54,1.94.65.65,0,0,1-.53.65Z"/><path class="cls-1" d="M55.91,28.1l.66,2.45a2.56,2.56,0,0,1-.27,1.84,4.62,4.62,0,0,1-1.06,1.34A7.79,7.79,0,0,1,53.34,35a10.31,10.31,0,0,1-2.57.89,8.71,8.71,0,0,1-4,0,3.2,3.2,0,0,1-2.48-2L43.6,31.4a2.54,2.54,0,0,0,.89,1.29,5.25,5.25,0,0,0,2.53.92,9.73,9.73,0,0,0,2.35,0,12.1,12.1,0,0,0,2.91-.82,8.59,8.59,0,0,0,2.4-1.57A3.32,3.32,0,0,0,55.91,28.1Z"/><path class="cls-2" d="M44.83,33.61l0,.09a2.59,2.59,0,0,0,2,1.58,8.14,8.14,0,0,0,3.75,0,10.92,10.92,0,0,0,2.43-.84,8.23,8.23,0,0,0,1.75-1.18,4.31,4.31,0,0,0,.93-1.18A1.91,1.91,0,0,0,56,30.71l0-.07a6.15,6.15,0,0,1-.84,1,9.06,9.06,0,0,1-2.58,1.68,11.69,11.69,0,0,1-3.08.88,9.93,9.93,0,0,1-2.49,0,6.07,6.07,0,0,1-2.13-.61Zm3.85,3.13a8.51,8.51,0,0,1-2.1-.26A3.77,3.77,0,0,1,43.67,34L43,31.56a.61.61,0,0,1,.43-.75.59.59,0,0,1,.75.42,1.83,1.83,0,0,0,.69,1,4.61,4.61,0,0,0,2.23.8,9.42,9.42,0,0,0,2.18,0A10.75,10.75,0,0,0,52,32.19a7.8,7.8,0,0,0,2.24-1.45,2.65,2.65,0,0,0,1-2.48.63.63,0,0,1,.44-.75.61.61,0,0,1,.75.43l.66,2.45a3.15,3.15,0,0,1-.31,2.28,5.58,5.58,0,0,1-1.19,1.52,9.69,9.69,0,0,1-2,1.37,11.52,11.52,0,0,1-2.72.94A11.75,11.75,0,0,1,48.68,36.74Z"/><polygon class="cls-4" points="56.57 30.55 55.91 28.1 55.88 28.01 55.85 27.94 55.82 27.86 56.48 30.31 56.51 30.38 56.54 30.46 56.57 30.55"/><path class="cls-2" d="M56.57,31.18a.63.63,0,0,1-.6-.45l0-.09-.07-.18L55.23,28a.62.62,0,0,1,1.17-.38s.07.19.07.21l.69,2.55a.6.6,0,0,1-.43.75A.47.47,0,0,1,56.57,31.18Z"/><path class="cls-3" d="M56.57,30.55a3.21,3.21,0,0,0-2.48-2,10,10,0,0,0-8.7,2.35,3.14,3.14,0,0,0-1.13,3,3.13,3.13,0,0,0,2.48,2,9.89,9.89,0,0,0,8.69-2.33,3.16,3.16,0,0,0,1.14-3Zm-.85-3.65c2,.54,3.22,1.62,3.57,2.92s-.16,2.85-1.63,4.33a11.18,11.18,0,0,1-2.71,2,17.72,17.72,0,0,1-6.74,1.75,10.73,10.73,0,0,1-3.1-.35c-2-.54-3.23-1.61-3.58-2.92s.16-2.85,1.63-4.32A14.31,14.31,0,0,1,55.72,26.9Z"/><path class="cls-2" d="M52.14,28.9a9.86,9.86,0,0,0-2.52.35,8.58,8.58,0,0,0-3.8,2.05,2.63,2.63,0,0,0-1,2.4,2.64,2.64,0,0,0,2,1.58A9.23,9.23,0,0,0,55,33.11a2.59,2.59,0,0,0,1-2.4,2.57,2.57,0,0,0-2-1.58,6.41,6.41,0,0,0-1.79-.23Zm-3.43,7.84a8.77,8.77,0,0,1-2.14-.26A3.74,3.74,0,0,1,43.67,34,3.71,3.71,0,0,1,45,30.43a9.79,9.79,0,0,1,4.35-2.38,9.91,9.91,0,0,1,4.94-.12,3.76,3.76,0,0,1,2.92,2.46h0A3.76,3.76,0,0,1,55.87,34a10.59,10.59,0,0,1-7.16,2.75Zm4.19-9.58a10.2,10.2,0,0,1,2.66.33h0c1.72.45,2.83,1.34,3.13,2.49s-.21,2.47-1.46,3.73a10.94,10.94,0,0,1-2.57,1.85,17.72,17.72,0,0,1-6.47,1.69,11,11,0,0,1-2.93-.34c-1.71-.45-2.83-1.33-3.13-2.48s.21-2.47,1.47-3.74a12.52,12.52,0,0,1,5.6-3,14.32,14.32,0,0,1,3.7-.51Zm-5,11.32a11.66,11.66,0,0,1-3-.38c-2.16-.58-3.58-1.76-4-3.36s.21-3.34,1.8-4.92a13.83,13.83,0,0,1,6.15-3.34,14,14,0,0,1,7-.19h0c2.15.59,3.58,1.78,4,3.38S59.68,33,58.1,34.58a11.79,11.79,0,0,1-2.86,2.06,18,18,0,0,1-7,1.82A1.62,1.62,0,0,1,47.91,38.48Z"/></g></g></svg>