<svg xmlns="http://www.w3.org/2000/svg" viewBox="0 0 41.34 41.53"><defs><style>.cls-1{fill:#66ceef;}.cls-1,.cls-2,.cls-3{fill-rule:evenodd;}.cls-2{fill:#1a87c7;}.cls-3{fill:#bdedf8;}</style></defs><g id="Camada_2" data-name="Camada 2"><g id="_Layer_" data-name="&lt;Layer&gt;"><path class="cls-1" d="M38.17,4.75l-7-4c-3.06-1.45-7,1.23-9.06,3.42A20.09,20.09,0,0,0,17.42,13l-.26,1.23,7,4A20.34,20.34,0,0,1,27.8,9.76c2-2.63,5.68-5.84,9.17-5.36Z"/><path class="cls-2" d="M17.53,14.06,24,17.78a20.76,20.76,0,0,1,3.61-8.21C29.16,7.42,32.7,4,36.34,4L31.05,1c-3-1.41-6.87,1.45-8.68,3.37a19.29,19.29,0,0,0-4.63,8.71l-.21,1Zm6.63,4.5c-.06,0-.11,0-.13,0l-7-4a.3.3,0,0,1-.16-.33l.26-1.22a20,20,0,0,1,4.8-9c1.91-2,6.05-5.07,9.4-3.49l7,4a.27.27,0,0,1,.13.39.3.3,0,0,1-.37.18l-1.2-.35c-3.54-.49-7.23,3.06-8.83,5.24a20.08,20.08,0,0,0-3.59,8.38.37.37,0,0,1-.18.21A.35.35,0,0,1,24.16,18.56Z"/><path class="cls-1" d="M21.72,14.39c-1.1-.63-6.89-4.05-7.57-4.3C10.92,8.94,7,12.06,5,14.36A19.12,19.12,0,0,0,.31,26.51c0,3.31,1.76,5.32,4.48,6.9l7,4C8,35.2,6.84,32.68,7.47,28.23c.7-5.16,4.21-10.95,8.85-13.39a6.25,6.25,0,0,1,4.82-.71Z"/><path class="cls-2" d="M12.68,10.15c-2.83,0-5.89,2.63-7.44,4.41A19,19,0,0,0,.6,26.5C.63,29.35,2,31.4,5,33.15l3.64,2.09c-1.46-1.79-1.86-4-1.44-7,.79-5.55,4.56-11.28,9-13.62a8,8,0,0,1,3.54-1h0c-2.07-1.21-5.22-3-5.69-3.2a4.27,4.27,0,0,0-1.36-.23Zm-.89,27.61a.47.47,0,0,1-.16,0l-7-4C1.44,31.81,0,29.6,0,26.51A19.55,19.55,0,0,1,4.79,14.16c2.36-2.73,6.27-5.51,9.46-4.35.55.19,3.7,2,6.58,3.71l1.05.61a.35.35,0,0,1,.13.4.32.32,0,0,1-.42.14L21,14.41c-1.73-.62-3.77.28-4.56.7-4.27,2.26-7.94,7.79-8.69,13.17-.61,4.33.52,6.75,4.19,8.9a.31.31,0,0,1,.1.42A.3.3,0,0,1,11.79,37.76Z"/><path class="cls-3" d="M24.16,41.22C29.58,33.33,41,19.29,41,11.06c0-12.44-14.49-6.14-16.87,7.19C21.77,7.68,7.31,18.1,7.31,30.54,7.31,38.76,18.73,39.59,24.16,41.22Z"/><path class="cls-2" d="M19.7,14.19a3.82,3.82,0,0,0-.57,0C14.49,14.74,7.6,21.82,7.6,30.54c0,6.51,7.65,8.26,13.25,9.54,1.16.26,2.26.51,3.18.78.94-1.37,2.06-2.92,3.27-4.56C33,28.46,40.71,17.72,40.71,11.06c0-3.88-1.41-6.15-4-6.38-4.45-.39-10.82,5.47-12.26,13.63a.32.32,0,0,1-.31.25.3.3,0,0,1-.29-.24c-.63-2.71-2.05-4.13-4.17-4.13Zm4.46,27.34h-.08c-1-.29-2.12-.56-3.36-.84C14.91,39.35,7,37.54,7,30.54c0-8.39,6.62-16.32,12.07-16.93,1.42-.15,3.85.12,5,3.37C25.94,9.32,31.75,4.05,36.29,4.05a3.77,3.77,0,0,1,.47,0c2.91.25,4.58,2.81,4.58,7,0,6.86-7.83,17.69-13.54,25.6-1.26,1.71-2.41,3.33-3.38,4.73A.3.3,0,0,1,24.16,41.53Z"/></g></g></svg>