<svg xmlns="http://www.w3.org/2000/svg" viewBox="0 0 36.43 41.86"><defs><style>.cls-1{fill:#fff;}.cls-1,.cls-2,.cls-3,.cls-4{fill-rule:evenodd;}.cls-2{fill:#1a87c7;}.cls-3{fill:#bdedf8;}.cls-4{fill:#66ceef;}</style></defs><g id="Camada_2" data-name="Camada 2"><g id="_Layer_" data-name="&lt;Layer&gt;"><path class="cls-1" d="M16.94,21,6.32,27.09l1,.59,10.11-5.84c.17-.11.1-.39,0-.53S17.16,20.86,16.94,21Z"/><path class="cls-2" d="M6.94,27.09l.39.23,9.91-5.72a.41.41,0,0,0,0-.16.54.54,0,0,0-.14-.18L6.94,27.09Zm.39.89a.37.37,0,0,1-.15,0l-1-.59A.32.32,0,0,1,6,27.09a.3.3,0,0,1,.15-.26l10.63-6.14h0c.36-.17.76.12.94.49s.13.75-.13.92L7.49,28A.45.45,0,0,1,7.33,28Z"/><path class="cls-1" d="M16.94,17.93,6.63,23.88l1,.58,9.79-5.66c.17-.11.1-.38,0-.53S17.16,17.82,16.94,17.93Z"/><path class="cls-2" d="M7.25,23.88l.4.22,9.59-5.53a.51.51,0,0,0,0-.17.86.86,0,0,0-.14-.18l-9.8,5.66Zm.4.89a.53.53,0,0,1-.16,0l-1-.59a.3.3,0,0,1-.15-.26.32.32,0,0,1,.15-.27l10.31-5.95s0,0,0,0c.36-.18.76.12.94.49a.7.7,0,0,1-.13.92L7.81,24.73A.53.53,0,0,1,7.65,24.77Z"/><path class="cls-3" d="M18.16,23.59c.19-.11,1.17-.69,1.28-.73a1.78,1.78,0,0,1,1.71.56,4,4,0,0,1,1.32,3,1.24,1.24,0,0,1-.51,1l-1.2.7a1.1,1.1,0,0,0,.43-.62,3.47,3.47,0,0,0-.63-2.62,2.84,2.84,0,0,0-1.87-1.36A1.07,1.07,0,0,0,18.16,23.59Z"/><path class="cls-2" d="M19.25,23.31a3.68,3.68,0,0,1,1.57,1.37,4,4,0,0,1,.73,2.6l.26-.16a.92.92,0,0,0,.35-.74,3.71,3.71,0,0,0-1.22-2.73c-.38-.35-1-.68-1.38-.51l-.31.17Zm1.51,5.09a.28.28,0,0,1-.26-.15.28.28,0,0,1,.08-.41.76.76,0,0,0,.31-.46A3.1,3.1,0,0,0,20.3,25a2.54,2.54,0,0,0-1.63-1.22.59.59,0,0,0-.37.07.31.31,0,0,1-.29-.55l.19-.11c.76-.44,1-.6,1.12-.63.87-.37,1.78.38,2,.61a4.31,4.31,0,0,1,1.41,3.24,1.51,1.51,0,0,1-.64,1.22l-1.23.71A.33.33,0,0,1,20.76,28.4Z"/><path class="cls-4" d="M21.2,26.33c.26,1.29-.32,2.11-1.3,1.85a3.79,3.79,0,0,1-2.25-2.8c-.26-1.28.33-2.11,1.3-1.84A3.78,3.78,0,0,1,21.2,26.33Z"/><path class="cls-2" d="M18.6,23.8a.62.62,0,0,0-.42.15A1.48,1.48,0,0,0,18,25.32a3.49,3.49,0,0,0,2,2.56.71.71,0,0,0,.7-.12,1.48,1.48,0,0,0,.21-1.37h0a3.51,3.51,0,0,0-2-2.56l-.27,0Zm1.65,4.74a1.52,1.52,0,0,1-.42-.06,4.07,4.07,0,0,1-2.48-3,2.05,2.05,0,0,1,.41-1.94A1.31,1.31,0,0,1,19,23.24a4.06,4.06,0,0,1,2.48,3,2.1,2.1,0,0,1-.41,1.94A1.26,1.26,0,0,1,20.25,28.54Z"/><path class="cls-3" d="M30.36,30.64c.18-.11,1.17-.69,1.27-.73a1.75,1.75,0,0,1,1.71.56,4,4,0,0,1,1.32,3,1.27,1.27,0,0,1-.5,1l-1.22.7a1,1,0,0,0,.44-.63,3.45,3.45,0,0,0-.62-2.61,2.88,2.88,0,0,0-1.88-1.36A.86.86,0,0,0,30.36,30.64Z"/><path class="cls-2" d="M31.45,30.36A3.63,3.63,0,0,1,33,31.72a4,4,0,0,1,.73,2.6l.26-.15a1,1,0,0,0,.35-.75,3.69,3.69,0,0,0-1.22-2.73c-.37-.34-1-.67-1.38-.5,0,0-.16.08-.3.17Zm1.49,5.08a.33.33,0,0,1-.26-.14.31.31,0,0,1,.09-.42.8.8,0,0,0,.32-.45,3.18,3.18,0,0,0-.59-2.36,2.63,2.63,0,0,0-1.64-1.23.62.62,0,0,0-.37.08.34.34,0,0,1-.41-.14.31.31,0,0,1,.12-.41l.19-.11c.78-.45,1.05-.61,1.13-.64a2.1,2.1,0,0,1,2,.62A4.31,4.31,0,0,1,35,33.48a1.56,1.56,0,0,1-.65,1.22l-1.22.7A.29.29,0,0,1,32.94,35.44Z"/><path class="cls-4" d="M33.39,33.38c.27,1.28-.32,2.11-1.29,1.85a3.81,3.81,0,0,1-2.25-2.8c-.26-1.28.32-2.11,1.29-1.85A3.79,3.79,0,0,1,33.39,33.38Z"/><path class="cls-2" d="M30.8,30.84a.63.63,0,0,0-.43.16,1.5,1.5,0,0,0-.22,1.37,3.53,3.53,0,0,0,2,2.56.71.71,0,0,0,.69-.12,1.53,1.53,0,0,0,.22-1.37h0a3.53,3.53,0,0,0-2-2.56,1,1,0,0,0-.26,0Zm1.65,4.74a1.72,1.72,0,0,1-.44-.06,4.07,4.07,0,0,1-2.47-3A2.1,2.1,0,0,1,30,30.55a1.32,1.32,0,0,1,1.27-.27,4.09,4.09,0,0,1,2.48,3,2.08,2.08,0,0,1-.41,1.94A1.22,1.22,0,0,1,32.45,35.58Z"/><path class="cls-3" d="M7.31,29.87c.18-.11,1.17-.69,1.28-.73a1.77,1.77,0,0,1,1.71.56,4,4,0,0,1,1.31,3,1.23,1.23,0,0,1-.5,1l-1.21.7a1,1,0,0,0,.43-.62,3.38,3.38,0,0,0-.62-2.62,2.86,2.86,0,0,0-1.88-1.36A.94.94,0,0,0,7.31,29.87Z"/><path class="cls-2" d="M8.41,29.59A3.68,3.68,0,0,1,10,31a4,4,0,0,1,.73,2.59L11,33.4a1,1,0,0,0,.36-.74,3.77,3.77,0,0,0-1.22-2.74c-.37-.34-1-.68-1.38-.5a3.18,3.18,0,0,0-.3.17ZM9.9,34.68a.32.32,0,0,1-.26-.15.31.31,0,0,1,.09-.42.78.78,0,0,0,.31-.45,3.18,3.18,0,0,0-.58-2.36,2.61,2.61,0,0,0-1.64-1.22.7.7,0,0,0-.38.07A.31.31,0,0,1,7,30a.3.3,0,0,1,.11-.41l.15-.09c.78-.45,1.09-.62,1.17-.66a2.12,2.12,0,0,1,2,.62,4.33,4.33,0,0,1,1.41,3.24,1.52,1.52,0,0,1-.65,1.22l-1.21.7A.33.33,0,0,1,9.9,34.68Z"/><path class="cls-4" d="M10.34,32.61c.27,1.28-.31,2.11-1.29,1.85a3.79,3.79,0,0,1-2.25-2.8c-.26-1.28.32-2.11,1.3-1.85A3.8,3.8,0,0,1,10.34,32.61Z"/><path class="cls-2" d="M7.75,30.07a.63.63,0,0,0-.43.16A1.53,1.53,0,0,0,7.1,31.6a3.53,3.53,0,0,0,2,2.56A.68.68,0,0,0,9.82,34a1.53,1.53,0,0,0,.23-1.37h0a3.56,3.56,0,0,0-2-2.56,1,1,0,0,0-.26,0ZM9.4,34.82A1.68,1.68,0,0,1,9,34.75a4.07,4.07,0,0,1-2.47-3,2,2,0,0,1,.4-1.93,1.31,1.31,0,0,1,1.28-.28,4.08,4.08,0,0,1,2.47,3h0a2.07,2.07,0,0,1-.4,1.94A1.26,1.26,0,0,1,9.4,34.82Z"/><path class="cls-1" d="M17.37,17.58a.3.3,0,0,0-.32.07.82.82,0,0,0-.33.67.27.27,0,0,0,.11.19L35.15,29.09V27.84Z"/><path class="cls-2" d="M17.27,17.88a.5.5,0,0,0-.23.41L34.85,28.56V28L17.27,17.88ZM35.15,29.4a.28.28,0,0,1-.15,0L16.68,18.78a.57.57,0,0,1-.26-.42,1.12,1.12,0,0,1,.44-1,.59.59,0,0,1,.65-.09h0L35.31,27.58a.3.3,0,0,1,.15.26v1.25a.33.33,0,0,1-.15.27A.34.34,0,0,1,35.15,29.4Z"/><path class="cls-1" d="M17.68,21.61c0,.11-.12.2-.22.24a.84.84,0,0,1-.74-.06.25.25,0,0,1-.12-.18V5l1.09.62Z"/><path class="cls-2" d="M17.68,21.61h0ZM16.91,5.5V21.61a1.37,1.37,0,0,0,.43,0h0V5.77l-.47-.27Zm.23,16.72a1.09,1.09,0,0,1-.61-.18.52.52,0,0,1-.23-.43V5a.33.33,0,0,1,.15-.27.34.34,0,0,1,.31,0l1.08.62a.33.33,0,0,1,.15.27v16h0a.59.59,0,0,1-.41.52A1,1,0,0,1,17.14,22.22Z"/><path class="cls-1" d="M17.4,20.92c-.09-.06-.23,0-.31.07a.8.8,0,0,0-.32.68.23.23,0,0,0,.09.19L35.2,32.44l.44-1Z"/><path class="cls-2" d="M17.31,21.22a.52.52,0,0,0-.24.41L35.06,32l.19-.42L17.31,21.22ZM35.2,32.75a.37.37,0,0,1-.15,0L16.72,22.12a.58.58,0,0,1-.27-.42,1.13,1.13,0,0,1,.45-1,.6.6,0,0,1,.66-.09h0L35.8,31.18a.31.31,0,0,1,.12.4l-.44,1a.26.26,0,0,1-.18.16Z"/><path class="cls-3" d="M19.5,36.91c.19-.1,1.18-.68,1.28-.72a1.75,1.75,0,0,1,1.7.55,4.07,4.07,0,0,1,1.33,3,1.31,1.31,0,0,1-.51,1l-1.21.69a1,1,0,0,0,.44-.62,3.49,3.49,0,0,0-.63-2.62A2.9,2.9,0,0,0,20,36.81,1.07,1.07,0,0,0,19.5,36.91Z"/><path class="cls-2" d="M20.6,36.64A3.75,3.75,0,0,1,22.16,38a4.06,4.06,0,0,1,.73,2.6l.26-.15a.94.94,0,0,0,.34-.75A3.69,3.69,0,0,0,22.29,37c-.39-.34-1-.68-1.4-.5l-.29.17Zm1.49,5.08a.3.3,0,0,1-.26-.14.31.31,0,0,1,.09-.42.74.74,0,0,0,.31-.46,3.15,3.15,0,0,0-.58-2.35A2.66,2.66,0,0,0,20,37.12a.74.74,0,0,0-.38.07.3.3,0,0,1-.4-.14.31.31,0,0,1,.12-.4l.19-.11c.76-.45,1-.61,1.12-.64a2.09,2.09,0,0,1,2,.62,4.3,4.3,0,0,1,1.42,3.23A1.53,1.53,0,0,1,23.47,41l-1.23.7A.24.24,0,0,1,22.09,41.72Z"/><path class="cls-4" d="M22.54,39.66c.26,1.28-.32,2.11-1.3,1.84A3.78,3.78,0,0,1,19,38.71c-.26-1.29.32-2.11,1.3-1.85A3.79,3.79,0,0,1,22.54,39.66Z"/><path class="cls-2" d="M19.94,37.12a.62.62,0,0,0-.43.16,1.53,1.53,0,0,0-.21,1.37,3.51,3.51,0,0,0,2,2.56.72.72,0,0,0,.7-.12,1.5,1.5,0,0,0,.21-1.37,3.49,3.49,0,0,0-2-2.56.88.88,0,0,0-.27,0Zm1.65,4.74a1.65,1.65,0,0,1-.43-.06,4,4,0,0,1-2.47-3,2,2,0,0,1,.41-1.94,1.29,1.29,0,0,1,1.27-.27,4.06,4.06,0,0,1,2.47,3h0a2,2,0,0,1-.4,1.93A1.21,1.21,0,0,1,21.59,41.86Z"/><path class="cls-2" d="M24.6,21.88a.47.47,0,0,1-.16,0L3.71,9.86a.3.3,0,0,1-.11-.42A.32.32,0,0,1,4,9.33l20.73,12a.33.33,0,0,1,.12.43A.34.34,0,0,1,24.6,21.88Z"/><path class="cls-2" d="M35.41,15.53a.53.53,0,0,1-.16,0L14.33,3.4A.3.3,0,0,1,14.22,3a.32.32,0,0,1,.42-.11L35.57,15a.31.31,0,0,1,.11.42A.33.33,0,0,1,35.41,15.53Z"/><path class="cls-2" d="M24.6,21.88a.31.31,0,0,1-.16-.58l10.83-6.25a.31.31,0,0,1,.31.54L24.75,21.84A.28.28,0,0,1,24.6,21.88Z"/><path class="cls-2" d="M17,30.7a.32.32,0,0,1-.27-.16.29.29,0,0,1,.11-.41L35.27,19.51a.3.3,0,0,1,.42.11.31.31,0,0,1-.11.42L17.19,30.66A.28.28,0,0,1,17,30.7Z"/><path class="cls-2" d="M24.6,30.53a.31.31,0,0,1-.27-.15.32.32,0,0,1,.11-.42l10.83-6.25a.3.3,0,0,1,.42.11.31.31,0,0,1-.11.42L24.75,30.49A.28.28,0,0,1,24.6,30.53Z"/><path class="cls-2" d="M6.51,11.38a.29.29,0,0,1-.26-.15.3.3,0,0,1,.11-.42L17.18,4.56a.31.31,0,0,1,.43.11.31.31,0,0,1-.11.42L6.67,11.34A.32.32,0,0,1,6.51,11.38Z"/><path class="cls-2" d="M6.51,15.84a.31.31,0,0,1-.15-.58L16.45,9.44a.31.31,0,1,1,.31.53L6.67,15.79A.33.33,0,0,1,6.51,15.84Z"/><path class="cls-2" d="M6.51,20a.31.31,0,0,1-.15-.58l10.09-5.83a.31.31,0,0,1,.42.12.3.3,0,0,1-.11.42L6.67,20A.33.33,0,0,1,6.51,20Z"/><path class="cls-2" d="M6.5,28.53a.31.31,0,0,1-.31-.31V11.13a.31.31,0,0,1,.62,0V28.22A.31.31,0,0,1,6.5,28.53Z"/><path class="cls-2" d="M24.6,22.5a.3.3,0,0,1-.3-.3V9a.3.3,0,0,1,.3-.31.31.31,0,0,1,.31.31V22.2A.31.31,0,0,1,24.6,22.5Z"/><path class="cls-2" d="M24.53,38.94a.33.33,0,0,1-.16,0l-18-10.4a.31.31,0,1,1,.3-.54l18,10.41a.32.32,0,0,1,.11.42A.33.33,0,0,1,24.53,38.94Z"/><path class="cls-2" d="M35.43,29a.31.31,0,0,1-.31-.31V15.32a.31.31,0,0,1,.31-.31.31.31,0,0,1,.3.31V28.71A.31.31,0,0,1,35.43,29Z"/><path class="cls-2" d="M17.34,30.9a.3.3,0,0,1-.3-.31V22.16a.3.3,0,0,1,.3-.31.31.31,0,0,1,.31.31v8.43A.31.31,0,0,1,17.34,30.9Z"/><path class="cls-2" d="M24.58,26.27a.28.28,0,0,1-.15,0L6.36,15.79a.3.3,0,0,1-.11-.42.32.32,0,0,1,.42-.11L24.74,25.7a.31.31,0,0,1,.11.42A.29.29,0,0,1,24.58,26.27Z"/><path class="cls-2" d="M24.64,30.46a.3.3,0,0,1-.15-.05L6.35,19.94a.31.31,0,0,1-.12-.42.3.3,0,0,1,.42-.11L24.8,29.88a.31.31,0,0,1-.16.58Z"/><path class="cls-2" d="M35.43,20a.47.47,0,0,1-.16,0L17.53,9.74a.31.31,0,1,1,.31-.53L35.58,19.45a.31.31,0,0,1,.11.42A.3.3,0,0,1,35.43,20Z"/><path class="cls-2" d="M35.6,24.54a.28.28,0,0,1-.15,0L17.53,14.16a.31.31,0,0,1,.31-.54L35.75,24a.31.31,0,0,1-.15.57Z"/><path class="cls-2" d="M21.18,33.23a.3.3,0,0,1-.31-.3V21L10.64,27a.34.34,0,0,1-.31,0,.32.32,0,0,1-.16-.27V8.78a.31.31,0,0,1,.62,0V26.15l10.08-5.82V7.05a.31.31,0,0,1,.62,0V20.51h0V32.93A.3.3,0,0,1,21.18,33.23Z"/><path class="cls-2" d="M13.72,32.7a.31.31,0,0,1-.32-.31V6.92a.31.31,0,0,1,.32-.31.31.31,0,0,1,.3.31v21l10.32-6a.31.31,0,0,1,.31.53L14,28.61v3.78A.31.31,0,0,1,13.72,32.7Z"/><path class="cls-2" d="M28.5,33a.31.31,0,0,1-.31-.31V11.23a.31.31,0,0,1,.31-.31.3.3,0,0,1,.3.31V32.72A.3.3,0,0,1,28.5,33Z"/><path class="cls-2" d="M32.12,30.75a.31.31,0,0,1-.32-.3V13.38a.31.31,0,0,1,.32-.31.3.3,0,0,1,.3.31V30.45A.3.3,0,0,1,32.12,30.75Z"/><path class="cls-1" d="M7.12,28.08c0,.11-.13.2-.23.24a.81.81,0,0,1-.74-.06A.26.26,0,0,1,6,28.08V11.44l1.09.62Z"/><path class="cls-2" d="M6.35,12V28.08a1.09,1.09,0,0,0,.42,0h0V12.24L6.35,12Zm.22,16.72A1,1,0,0,1,6,28.51a.52.52,0,0,1-.23-.42V11.44a.33.33,0,0,1,.15-.27.34.34,0,0,1,.31,0l1.08.63a.3.3,0,0,1,.15.26v16h0a.63.63,0,0,1-.41.52A1.19,1.19,0,0,1,6.57,28.69Z"/><path class="cls-1" d="M6.84,24a.32.32,0,0,0-.33.07.8.8,0,0,0-.31.68.24.24,0,0,0,.09.18L24.6,35.54V34.29l-6.88-4Z"/><path class="cls-2" d="M6.74,24.34a.52.52,0,0,0-.24.41L24.3,35v-.54L6.74,24.34ZM24.6,35.85a.47.47,0,0,1-.16,0L6.15,25.24a.56.56,0,0,1-.27-.42,1.15,1.15,0,0,1,.45-1A.6.6,0,0,1,7,23.77H7L24.75,34a.32.32,0,0,1,.16.27v1.25a.32.32,0,0,1-.16.27A.42.42,0,0,1,24.6,35.85Z"/><path class="cls-1" d="M6.84,27.39a.37.37,0,0,0-.33.07.82.82,0,0,0-.31.68.26.26,0,0,0,.09.19L24.6,38.89V37.64l-6.88-4Z"/><path class="cls-2" d="M6.74,27.69a.52.52,0,0,0-.24.42L24.3,38.36v-.53L6.74,27.69ZM24.6,39.2a.32.32,0,0,1-.16,0L6.15,28.6a.58.58,0,0,1-.27-.42,1.15,1.15,0,0,1,.45-1,.61.61,0,0,1,.66-.1H7L24.75,37.38a.31.31,0,0,1,.16.26v1.25a.3.3,0,0,1-.16.27A.28.28,0,0,1,24.6,39.2Z"/><path class="cls-1" d="M35.39,28.14,24.6,34.37v1.17L35.9,29c.16-.11.09-.39,0-.53S35.6,28,35.39,28.14Z"/><path class="cls-2" d="M24.91,34.55V35l10.78-6.23a.41.41,0,0,0,0-.16.45.45,0,0,0-.15-.18L24.91,34.55Zm-.31,1.3a.47.47,0,0,1-.16,0,.3.3,0,0,1-.14-.27V34.37a.27.27,0,0,1,.14-.26l10.8-6.24s0,0,0,0a.76.76,0,0,1,.94.49.69.69,0,0,1-.13.92L24.75,35.81A.42.42,0,0,1,24.6,35.85Z"/><path class="cls-1" d="M13.81,2.11a.3.3,0,0,0-.32.07.82.82,0,0,0-.32.68.24.24,0,0,0,.1.18l22,12.7.13-1.18-.62-.36Z"/><path class="cls-2" d="M13.72,2.41a.49.49,0,0,0-.24.41L35,15.23l0-.51L13.72,2.41ZM35.25,16a.28.28,0,0,1-.15,0l-22-12.69a.57.57,0,0,1-.26-.42,1.15,1.15,0,0,1,.45-1A.59.59,0,0,1,14,1.84h0L35.52,14.29a.31.31,0,0,1,.16.3l-.12,1.17a.3.3,0,0,1-.17.25A.29.29,0,0,1,35.25,16Z"/><path class="cls-1" d="M35.47,31.45,24.6,37.73v1.16L36,32.33C36.29,32.12,35.81,31.28,35.47,31.45Z"/><path class="cls-2" d="M24.91,37.9v.46l10.86-6.27a.67.67,0,0,0-.19-.35L24.91,37.9Zm-.31,1.3a.32.32,0,0,1-.16,0,.29.29,0,0,1-.14-.27V37.73a.29.29,0,0,1,.14-.27l10.87-6.28h0c.3-.15.67,0,.9.43s.19.8-.09,1l-11.4,6.58A.28.28,0,0,1,24.6,39.2Z"/><path class="cls-1" d="M25.15,35.12c0,.11-.13.2-.22.24a.86.86,0,0,1-.75-.06.23.23,0,0,1-.11-.18V21.4l1.08-.22Z"/><path class="cls-2" d="M25.15,35.12Zm-.78-13.47V35.12a1.46,1.46,0,0,0,.44,0h0V21.56l-.47.09Zm.23,14.08a1,1,0,0,1-.6-.18.55.55,0,0,1-.24-.43V21.4a.3.3,0,0,1,.25-.3l1.07-.22a.34.34,0,0,1,.27.07.29.29,0,0,1,.1.23V35.12h0a.61.61,0,0,1-.41.53A1.19,1.19,0,0,1,24.6,35.73Z"/><path class="cls-1" d="M3.26,8.56a.3.3,0,0,0-.32.07.82.82,0,0,0-.32.67.26.26,0,0,0,.1.19L24.6,22.12V20.88Z"/><path class="cls-2" d="M3.17,8.86a.53.53,0,0,0-.25.41L24.3,21.59v-.54L3.17,8.86ZM24.6,22.43a.32.32,0,0,1-.16,0L2.57,9.76a.6.6,0,0,1-.26-.42,1.13,1.13,0,0,1,.45-1,.59.59,0,0,1,.65-.09h0L24.75,20.61a.3.3,0,0,1,.16.27v1.24a.3.3,0,0,1-.16.27A.28.28,0,0,1,24.6,22.43Z"/><path class="cls-1" d="M36,28.75c0,.12-.13.2-.23.25a.86.86,0,0,1-.75-.07.25.25,0,0,1-.11-.18V16L36,15.27Z"/><path class="cls-2" d="M35.26,16.19V28.75a1,1,0,0,0,.44,0h0V15.87l-.46.32Zm.23,13.17a1,1,0,0,1-.61-.18.52.52,0,0,1-.23-.42V16a.29.29,0,0,1,.13-.25L35.85,15a.3.3,0,0,1,.33,0,.29.29,0,0,1,.16.27V28.75h0a.62.62,0,0,1-.41.52A1.27,1.27,0,0,1,35.49,29.36Z"/><path class="cls-1" d="M35.52,14.53l-11,6.33V22L36,15.41c.16-.11.08-.38,0-.53S35.73,14.43,35.52,14.53Z"/><path class="cls-2" d="M24.88,21v.45l10.94-6.32a.73.73,0,0,0,0-.16,1,1,0,0,0-.16-.18L24.88,21Zm-.32,1.29a.23.23,0,0,1-.14,0,.29.29,0,0,1-.16-.26V20.86a.32.32,0,0,1,.16-.27l10.95-6.32,0,0c.37-.18.76.13.93.5a.7.7,0,0,1-.13.92L24.72,22.29A.32.32,0,0,1,24.56,22.33Z"/><path class="cls-4" d="M1.51,9.47A1.39,1.39,0,0,0,1,9a.47.47,0,0,0-.5,0,.48.48,0,0,0-.21.45,1.42,1.42,0,0,0,.21.7,1.51,1.51,0,0,0,.5.53.51.51,0,0,0,.5.05.51.51,0,0,0,.21-.46A1.45,1.45,0,0,0,1.51,9.47Z"/><path class="cls-2" d="M.69,9.16h0s-.05.08-.05.19a1.19,1.19,0,0,0,.16.55,1.27,1.27,0,0,0,.38.41c.11.06.17.06.2,0s0-.07,0-.19a1.09,1.09,0,0,0-.17-.54h0a1.12,1.12,0,0,0-.38-.42.37.37,0,0,0-.17-.05ZM1.33,11a1,1,0,0,1-.47-.13,1.82,1.82,0,0,1-.62-.64A1.86,1.86,0,0,1,0,9.35a.8.8,0,0,1,.36-.72.78.78,0,0,1,.8,0,1.74,1.74,0,0,1,.62.64,1.76,1.76,0,0,1,.25.85.83.83,0,0,1-.36.73A.81.81,0,0,1,1.33,11Z"/><path class="cls-3" d="M15.81.4a.53.53,0,0,0-.49-.05l-1.64.94L.52,8.89a.46.46,0,0,1,.38,0,1,1,0,0,1,.34.23,1.79,1.79,0,0,1,.39.59,1.64,1.64,0,0,1,.09.44.52.52,0,0,1-.2.47l14.8-8.54c.38-.25.13-.94-.05-1.21A1.47,1.47,0,0,0,15.81.4Z"/><path class="cls-2" d="M1.32,8.79a.45.45,0,0,1,.13.11,1.86,1.86,0,0,1,.46.7A1.47,1.47,0,0,1,2,10L16.17,1.81c.11-.07,0-.51-.16-.78a1,1,0,0,0-.36-.36.27.27,0,0,0-.19-.05L1.32,8.79Zm.2,2.14a.3.3,0,0,1-.26-.15.31.31,0,0,1,.1-.42s0-.15,0-.21a1.15,1.15,0,0,0-.07-.33A1.47,1.47,0,0,0,1,9.34a.77.77,0,0,0-.24-.16c-.08,0-.11,0-.13,0A.32.32,0,0,1,.25,9a.32.32,0,0,1,.12-.42L15.17.08A.8.8,0,0,1,16,.13h0a1.87,1.87,0,0,1,.56.56c.28.45.52,1.28,0,1.64L1.68,10.89A.32.32,0,0,1,1.52,10.93Z"/><path class="cls-1" d="M16.94,4.56l-10.31,6,1,.58,9.8-5.66c.16-.11.09-.38,0-.52S17.16,4.45,16.94,4.56Z"/><path class="cls-2" d="M7.25,10.51l.4.22L17.24,5.2a.51.51,0,0,0,0-.17.86.86,0,0,0-.14-.18l-9.8,5.66Zm.4.89a.53.53,0,0,1-.16,0l-1-.59a.3.3,0,0,1-.15-.26.32.32,0,0,1,.15-.27L16.79,4.29h0c.36-.18.76.12.94.49a.7.7,0,0,1-.13.92L7.81,11.36A.53.53,0,0,1,7.65,11.4Z"/><path class="cls-1" d="M14.29,31.59c0,.08-1.06.48-1.09-.52V29l1.09.62Z"/><path class="cls-2" d="M13.52,29.5v1.57q0,.25.12.33a.5.5,0,0,0,.34,0V29.76l-.46-.26Zm.27,2.55h0a.89.89,0,0,1-.89-1V29a.31.31,0,0,1,.46-.27l1.08.63a.31.31,0,0,1,.15.26v2h0C14.58,32,13.8,32.05,13.79,32.05Z"/></g></g></svg>