<svg xmlns="http://www.w3.org/2000/svg" viewBox="0 0 31.99 43.43"><defs><style>.cls-1{fill:#bdedf8;}.cls-1,.cls-2,.cls-3,.cls-4{fill-rule:evenodd;}.cls-2{fill:#1a87c7;}.cls-3{fill:#fff;}.cls-4{fill:#66ceef;}</style></defs><g id="Camada_2" data-name="Camada 2"><g id="_Layer_" data-name="&lt;Layer&gt;"><path class="cls-1" d="M18.21,1.7,15.91.36l-.08,0h-.08l-.07,0h-.25l-.09,0-.09,0-.08,0-.1,0L15,.45l-.09,0-.1.05L2.17,7.84A3.84,3.84,0,0,0,.74,9.52a4,4,0,0,0-.43,1.72V40.3a1.6,1.6,0,0,0,.49,1.28l2.3,1.33a1.56,1.56,0,0,1-.48-1.28V12.57A4.11,4.11,0,0,1,3,10.85,3.91,3.91,0,0,1,4.47,9.17L17.1,1.87l.09-.05.1-.05.09,0,.09,0,.09,0,.09,0h.41l.07,0Z"/><path class="cls-2" d="M15.58.62,15,.77l-.08,0L2.33,8.1A3.54,3.54,0,0,0,1,9.65a3.91,3.91,0,0,0-.39,1.6V40.3A1.28,1.28,0,0,0,1,41.35l1.35.78a2.89,2.89,0,0,1,0-.5l0-29.06a4.46,4.46,0,0,1,.46-1.85A4.22,4.22,0,0,1,4.31,8.9l12.9-7.42L15.58.62ZM3.11,43.22a.28.28,0,0,1-.15,0L.65,41.85A1.93,1.93,0,0,1,0,40.31L0,11.24A4.46,4.46,0,0,1,.46,9.39,4.16,4.16,0,0,1,2,7.57L15.38,0h.21l.31,0,.09,0,2.37,1.36a.31.31,0,0,1,.13.39.31.31,0,0,1-.38.17l-.23,0-.56.15-.08,0L4.63,9.43A3.53,3.53,0,0,0,3.32,11a3.78,3.78,0,0,0-.4,1.6V41.63a1.31,1.31,0,0,0,.38,1,.32.32,0,0,1,0,.42A.3.3,0,0,1,3.11,43.22Z"/><path class="cls-1" d="M4.49,42.89l12.62-7.3A4.32,4.32,0,0,0,19,32.18v-29c0-1.29-.84-1.85-1.86-1.26L4.47,9.17a4.3,4.3,0,0,0-1.85,3.4V41.63C2.63,42.91,3.46,43.48,4.49,42.89Z"/><path class="cls-2" d="M17.87,2a1.29,1.29,0,0,0-.63.19L4.63,9.43a4,4,0,0,0-1.71,3.14V41.63a1.22,1.22,0,0,0,.45,1.1,1,1,0,0,0,1-.11L17,35.33a4,4,0,0,0,1.71-3.15l0-29A1.2,1.2,0,0,0,18.2,2,.73.73,0,0,0,17.87,2ZM4.49,42.89Zm-.78.54a1.24,1.24,0,0,1-.63-.17,1.76,1.76,0,0,1-.76-1.63l0-29.06a4.65,4.65,0,0,1,2-3.67L16.94,1.61A1.51,1.51,0,0,1,18.5,1.5a1.76,1.76,0,0,1,.76,1.63V32.18a4.62,4.62,0,0,1-2,3.68L4.64,43.15h0A1.81,1.81,0,0,1,3.71,43.43Z"/><path class="cls-3" d="M19,31.84V3.13c0-1.29-.84-1.85-1.86-1.26L4.47,9.17a4.3,4.3,0,0,0-1.85,3.4v28.7Z"/><path class="cls-2" d="M17.87,2a1.29,1.29,0,0,0-.63.19L4.63,9.43a4,4,0,0,0-1.71,3.14V40.74l15.73-9.08,0-28.53A1.2,1.2,0,0,0,18.2,2,.73.73,0,0,0,17.87,2ZM2.63,41.58a.29.29,0,0,1-.16,0,.28.28,0,0,1-.15-.27l0-28.7a4.65,4.65,0,0,1,2-3.67L16.94,1.61A1.51,1.51,0,0,1,18.5,1.5a1.76,1.76,0,0,1,.76,1.63V31.84a.28.28,0,0,1-.15.26L2.78,41.54A.28.28,0,0,1,2.63,41.58Z"/><path class="cls-4" d="M.75,9.49v0a4,4,0,0,0-.43,1.72V40.3a1.6,1.6,0,0,0,.49,1.28l2.3,1.33a1.56,1.56,0,0,1-.48-1.28V12.57A4,4,0,0,1,3,10.85v0Z"/><path class="cls-2" d="M.9,9.92a3.53,3.53,0,0,0-.28,1.33V40.3A1.28,1.28,0,0,0,1,41.35l1.35.78a2.89,2.89,0,0,1,0-.5l0-29.06a4.57,4.57,0,0,1,.36-1.63L.9,9.92Zm2.21,33.3a.28.28,0,0,1-.15,0L.65,41.85A1.93,1.93,0,0,1,0,40.31L0,11.24A4.51,4.51,0,0,1,.46,9.38a.32.32,0,0,1,.19-.17.27.27,0,0,1,.25,0l2.31,1.33a.3.3,0,0,1,.12.4,4,4,0,0,0-.41,1.63V41.63a1.31,1.31,0,0,0,.38,1,.32.32,0,0,1,0,.42A.3.3,0,0,1,3.11,43.22Z"/><path class="cls-2" d="M1.51,22.3A.31.31,0,0,1,1.2,22V19.07a.31.31,0,0,1,.62,0V22A.31.31,0,0,1,1.51,22.3Z"/><path class="cls-2" d="M1.51,17.46a.31.31,0,0,1-.31-.31V14.23a.31.31,0,0,1,.62,0v2.92A.31.31,0,0,1,1.51,17.46Z"/><path class="cls-2" d="M9.93,38.72a.31.31,0,0,1-.14-.58l2.53-1.46a.31.31,0,0,1,.3.54l-2.53,1.46A.38.38,0,0,1,9.93,38.72Z"/><path class="cls-1" d="M16.54,3.54h0a.78.78,0,0,0-.33.61h0c0,.23.15.33.33.23h0a.79.79,0,0,0,.34-.61h0C16.88,3.54,16.72,3.44,16.54,3.54Z"/><path class="cls-2" d="M16.54,3.54h0ZM16.4,4.73a.39.39,0,0,1-.23-.07.55.55,0,0,1-.26-.51,1.08,1.08,0,0,1,.48-.87.53.53,0,0,1,.53,0,.56.56,0,0,1,.26.51,1.11,1.11,0,0,1-.48.88A.64.64,0,0,1,16.4,4.73Z"/><path class="cls-2" d="M13.38,23.91a.33.33,0,0,1-.27-.15.31.31,0,0,1,.11-.43l2.49-1.42a.29.29,0,0,1,.41.11.3.3,0,0,1-.11.42l-2.48,1.43A.28.28,0,0,1,13.38,23.91Z"/><path class="cls-2" d="M13.38,28.82a.32.32,0,0,1-.27-.16.3.3,0,0,1,.11-.42l2.49-1.43a.31.31,0,0,1,.3.54l-2.48,1.42A.3.3,0,0,1,13.38,28.82Z"/><path class="cls-2" d="M4.73,11.82a.29.29,0,0,1-.27-.15.3.3,0,0,1,.11-.42l.73-.42a.3.3,0,0,1,.42.11.31.31,0,0,1-.11.42l-.74.42A.23.23,0,0,1,4.73,11.82Z"/><path class="cls-2" d="M6.18,11a.29.29,0,0,1-.26-.16A.3.3,0,0,1,6,10.41L6.76,10a.31.31,0,0,1,.42.12.3.3,0,0,1-.11.41l-.73.42A.37.37,0,0,1,6.18,11Z"/><path class="cls-2" d="M7.64,10.15A.33.33,0,0,1,7.37,10a.32.32,0,0,1,.11-.42l.73-.42a.31.31,0,0,1,.32.54l-.73.42A.53.53,0,0,1,7.64,10.15Z"/><path class="cls-2" d="M5.4,27.54a.31.31,0,0,1-.27-.15A.31.31,0,0,1,5.25,27l1.24-.71a.31.31,0,0,1,.42.11.3.3,0,0,1-.11.42l-1.25.71A.28.28,0,0,1,5.4,27.54Z"/><path class="cls-2" d="M5.4,32.45a.31.31,0,0,1-.15-.58l1.24-.71a.31.31,0,0,1,.42.12.3.3,0,0,1-.11.42l-1.25.71A.28.28,0,0,1,5.4,32.45Z"/><path class="cls-2" d="M5.4,17.73a.31.31,0,0,1-.27-.15.32.32,0,0,1,.11-.42l1.24-.71a.31.31,0,0,1,.43.11A.3.3,0,0,1,6.8,17l-1.25.71A.28.28,0,0,1,5.4,17.73Z"/><path class="cls-2" d="M5.4,22.64a.31.31,0,0,1-.15-.58l1.24-.71a.31.31,0,0,1,.42.12.3.3,0,0,1-.11.42l-1.25.71A.28.28,0,0,1,5.4,22.64Z"/><path class="cls-2" d="M13.38,14.1a.31.31,0,0,1-.27-.15.31.31,0,0,1,.11-.43l2.49-1.42a.3.3,0,0,1,.3.53l-2.48,1.43A.28.28,0,0,1,13.38,14.1Z"/><path class="cls-2" d="M13.38,19a.32.32,0,0,1-.27-.16.3.3,0,0,1,.11-.42L15.71,17a.31.31,0,0,1,.3.54L13.53,19A.3.3,0,0,1,13.38,19Z"/><polygon class="cls-3" points="16.48 11.03 8.18 15.83 8.18 19.17 16.48 14.37 16.48 11.03"/><path class="cls-2" d="M8.48,16v2.62l7.7-4.44V11.57L8.48,16Zm-.3,3.46a.32.32,0,0,1-.16,0,.3.3,0,0,1-.15-.26V15.83A.33.33,0,0,1,8,15.56l8.31-4.79a.29.29,0,0,1,.31,0,.3.3,0,0,1,.15.26v3.34a.33.33,0,0,1-.15.27l-8.3,4.79A.34.34,0,0,1,8.18,19.47Z"/><polygon class="cls-3" points="16.48 15.94 8.18 20.73 8.18 24.07 16.48 19.28 16.48 15.94"/><path class="cls-2" d="M8.48,20.91v2.63l7.7-4.44V16.47l-7.7,4.44Zm-.3,3.47a.32.32,0,0,1-.16,0,.33.33,0,0,1-.15-.27V20.73A.3.3,0,0,1,8,20.47l8.31-4.8a.34.34,0,0,1,.31,0,.33.33,0,0,1,.15.27v3.34a.3.3,0,0,1-.15.26l-8.3,4.8A.34.34,0,0,1,8.18,24.38Z"/><polygon class="cls-3" points="16.48 20.84 8.18 25.64 8.18 28.98 16.48 24.18 16.48 20.84"/><path class="cls-2" d="M8.48,25.82v2.62L16.18,24V21.38l-7.7,4.44Zm-.3,3.46a.32.32,0,0,1-.16,0A.3.3,0,0,1,7.87,29V25.64A.33.33,0,0,1,8,25.37l8.31-4.79a.29.29,0,0,1,.31,0,.3.3,0,0,1,.15.26v3.34a.33.33,0,0,1-.15.27l-8.3,4.79A.34.34,0,0,1,8.18,29.28Z"/><polygon class="cls-3" points="16.48 25.75 8.18 30.54 8.18 33.88 16.48 29.09 16.48 25.75"/><path class="cls-2" d="M8.48,30.72v2.63l7.7-4.44V26.28l-7.7,4.44Zm-.3,3.47a.32.32,0,0,1-.16,0,.33.33,0,0,1-.15-.27V30.54A.3.3,0,0,1,8,30.28l8.31-4.8a.34.34,0,0,1,.31,0,.33.33,0,0,1,.15.27v3.34a.31.31,0,0,1-.15.26l-8.3,4.8A.34.34,0,0,1,8.18,34.19Z"/><path class="cls-1" d="M15.42,27.86l-1.27-.73V14.81a2.67,2.67,0,0,1,1.21-2.1L30,4.27,30.47,4a.89.89,0,0,1,.82-.11L28.78,2.44a.91.91,0,0,0-.82.1l-.48.28L12.86,11.26a2.64,2.64,0,0,0-1.22,2.1V25.74a.87.87,0,0,0,.31.76l.85.49v0a23,23,0,0,0-.17,4l2.51,1.45A21.51,21.51,0,0,1,15.42,27.86Z"/><path class="cls-2" d="M12.93,30.83l1.9,1.09a21.19,21.19,0,0,1,.25-3.9L14,27.39a.29.29,0,0,1-.14-.26V14.81a3,3,0,0,1,1.36-2.37L30.32,3.73l0,0-1.74-1a.64.64,0,0,0-.51.11L13,11.52A2.34,2.34,0,0,0,12,13.37V25.74a.63.63,0,0,0,.19.52l.83.47a.3.3,0,0,1,.15.31,24.29,24.29,0,0,0-.18,3.79Zm2.21,1.94a.53.53,0,0,1-.16,0l-2.51-1.46a.3.3,0,0,1-.15-.26,26.21,26.21,0,0,1,.15-3.85l-.67-.39a1.21,1.21,0,0,1-.47-1V13.36A3,3,0,0,1,12.7,11L27.81,2.28a1.16,1.16,0,0,1,1.08-.12l2.56,1.46a.32.32,0,0,1,.12.41.31.31,0,0,1-.4.14.59.59,0,0,0-.55.1L15.52,13a2.38,2.38,0,0,0-1.06,1.85V27l1.12.65a.29.29,0,0,1,.14.32,23.51,23.51,0,0,0-.28,4.54.3.3,0,0,1-.14.27A.47.47,0,0,1,15.14,32.77Z"/><path class="cls-3" d="M15.42,27.86h0l-.86.14-2.18-1.25.42.24v0a23,23,0,0,0-.17,4l2.51,1.45A21.51,21.51,0,0,1,15.42,27.86Z"/><path class="cls-2" d="M12.93,30.83l1.9,1.09A22.41,22.41,0,0,1,15,28.24l-.44.07a.28.28,0,0,1-.2,0l-1.35-.78a26.77,26.77,0,0,0-.12,3.34Zm2.21,1.94a.53.53,0,0,1-.16,0l-2.51-1.46a.3.3,0,0,1-.15-.26,26.21,26.21,0,0,1,.15-3.85L12.22,27a.31.31,0,0,1-.11-.42.32.32,0,0,1,.42-.11l2.08,1.2.77-.12a.28.28,0,0,1,.26.09.3.3,0,0,1,.08.27,23.51,23.51,0,0,0-.28,4.54.3.3,0,0,1-.14.27A.47.47,0,0,1,15.14,32.77Z"/><path class="cls-4" d="M14.56,13.54l-2.51-1.46a2.46,2.46,0,0,0-.41,1.28V25.74a.87.87,0,0,0,.31.76l.85.49a23.48,23.48,0,0,0-.17,4l2.51,1.45a21.48,21.48,0,0,1,.28-4.6l-1.27-.73V14.81A2.47,2.47,0,0,1,14.56,13.54Z"/><path class="cls-2" d="M12.93,30.83l1.9,1.09a21,21,0,0,1,.25-3.9L14,27.39a.29.29,0,0,1-.14-.26V14.81a2.72,2.72,0,0,1,.29-1.16l-2-1.14a2.05,2.05,0,0,0-.21.86V25.74a.63.63,0,0,0,.19.52l.83.47a.3.3,0,0,1,.15.31,24,24,0,0,0-.18,3.79Zm2.21,1.94a.53.53,0,0,1-.16,0l-2.51-1.46a.3.3,0,0,1-.15-.26,26.1,26.1,0,0,1,.15-3.85l-.67-.39a1.21,1.21,0,0,1-.47-1V13.36a2.81,2.81,0,0,1,.46-1.44.29.29,0,0,1,.41-.1l2.51,1.45a.32.32,0,0,1,.15.19.33.33,0,0,1,0,.24,2.24,2.24,0,0,0-.36,1.12V27l1.12.65a.29.29,0,0,1,.14.32,23.51,23.51,0,0,0-.28,4.54.3.3,0,0,1-.14.27A.47.47,0,0,1,15.14,32.77Z"/><path class="cls-3" d="M31.68,17.2c0-3,0-9.45,0-12.5,0-.77-.55-1.09-1.22-.7l-15.1,8.71a2.67,2.67,0,0,0-1.21,2.1V27.19c0,.78.55,1.09,1.22.71l.05,0a21,21,0,0,0-.28,4.6c.49-.84,1-1.67,1.45-2.51,3.06-5.35,9.09-8,13.85-10.63a2.38,2.38,0,0,0,.88-.9A2.47,2.47,0,0,0,31.68,17.2Z"/><path class="cls-2" d="M15.4,27.58a.31.31,0,0,1,.18.05.29.29,0,0,1,.14.29,17.31,17.31,0,0,0-.28,3.42c.3-.51.6-1,.88-1.54C19.07,25,24.1,22.34,28.54,20l1.75-.94a2,2,0,0,0,.76-.79,2.17,2.17,0,0,0,.33-1.06V4.7a.58.58,0,0,0-.2-.52.61.61,0,0,0-.55.08L15.52,13a2.42,2.42,0,0,0-1.06,1.84V27.19c0,.26.07.45.2.52s.32.05.55-.08a.38.38,0,0,1,.19-.05Zm-.26,5.19h-.08a.3.3,0,0,1-.22-.3v-.27a21.14,21.14,0,0,1,.2-3.84,1,1,0,0,1-.68-.1,1.18,1.18,0,0,1-.5-1.06V14.81a3,3,0,0,1,1.37-2.37l15.1-8.71a1.19,1.19,0,0,1,1.17-.09A1.18,1.18,0,0,1,32,4.7V17.2a2.77,2.77,0,0,1-.41,1.38,2.62,2.62,0,0,1-1,1l-1.75.94c-4.36,2.32-9.32,4.94-12,9.58l-1.45,2.51A.33.33,0,0,1,15.14,32.77Z"/><path class="cls-2" d="M17.09,16.13a.28.28,0,0,1-.26-.15.3.3,0,0,1,.11-.42l10.2-5.88a.31.31,0,0,1,.43.11.32.32,0,0,1-.11.42L17.24,16.09A.28.28,0,0,1,17.09,16.13Z"/><path class="cls-2" d="M17.09,19.23a.3.3,0,0,1-.26-.15.31.31,0,0,1,.11-.43L28.6,11.93A.29.29,0,0,1,29,12a.3.3,0,0,1-.11.42L17.24,19.19A.28.28,0,0,1,17.09,19.23Z"/><path class="cls-2" d="M17.09,22.52a.32.32,0,0,1-.27-.16.31.31,0,0,1,.11-.42l7.51-4.33a.31.31,0,1,1,.31.53l-7.51,4.34A.28.28,0,0,1,17.09,22.52Z"/></g></g></svg>