<svg xmlns="http://www.w3.org/2000/svg" viewBox="0 0 55.51 82.29"><defs><style>.cls-1{fill:#fff;}.cls-1,.cls-2,.cls-3{fill-rule:evenodd;}.cls-2{fill:#1a87c7;}.cls-3{fill:#66ceef;}</style></defs><g id="Camada_2" data-name="Camada 2"><g id="_Layer_" data-name="&lt;Layer&gt;"><path class="cls-1" d="M7.44,81.41,1.77,78.14A2.91,2.91,0,0,1,.61,75.58V42.24l5.67,3.28V78.86A2.88,2.88,0,0,0,7.44,81.41Z"/><path class="cls-2" d="M1.23,43.31V75.58c.11,1.11.13,1.42.92,2.08l3.6,2.07c0-.25,0-.51-.08-.82l0-33L1.23,43.31ZM7.44,82a.71.71,0,0,1-.31-.08L1.46,78.67a3.5,3.5,0,0,1-1.46-3l0-33.4a.6.6,0,0,1,.29-.53.64.64,0,0,1,.63,0L6.6,45a.62.62,0,0,1,.32.54l0,33.34C7,80,7,80.27,7.82,80.93A.61.61,0,0,1,7.44,82Z"/><path class="cls-3" d="M6.29,45.52.62,42.24V31.44a8.72,8.72,0,0,1,4-6.83L45.28,1.13A2.88,2.88,0,0,1,48.07.86l5.66,3.27A2.89,2.89,0,0,0,51,4.41L10.24,27.89a8.7,8.7,0,0,0-3.95,6.82Z"/><path class="cls-2" d="M1.23,41.89l4.46,2.56V34.71a9.21,9.21,0,0,1,4.22-7.34L50.64,3.87a8.52,8.52,0,0,1,.8-.35L47.75,1.4c-.87-.32-1.15-.2-2.2.29L4.88,25.15a8,8,0,0,0-3.63,6.32l0,10.42Zm5.06,4.25A.73.73,0,0,1,6,46.05L.31,42.78A.61.61,0,0,1,0,42.24V31.44a9.26,9.26,0,0,1,4.22-7.35L45,.6A3.5,3.5,0,0,1,48.29.29L54,3.6a.62.62,0,0,1,.25.8.6.6,0,0,1-.77.31c-1-.36-1.25-.23-2.31.25L10.55,28.42a8,8,0,0,0-3.63,6.32V45.52a.6.6,0,0,1-.32.53A.69.69,0,0,1,6.29,46.14Z"/><path class="cls-3" d="M10.24,27.89,51,4.41c2.17-1.26,3.94-.23,3.94,2.28V17.48l-48.59,28V34.71A8.71,8.71,0,0,1,10.24,27.89Z"/><path class="cls-2" d="M10.55,28.42a8.19,8.19,0,0,0-3.63,6.29v9.74L54.27,17.12V6.69a2.16,2.16,0,0,0-.85-2,2.17,2.17,0,0,0-2.16.27L10.55,28.42ZM6.29,46.14A.73.73,0,0,1,6,46.05a.6.6,0,0,1-.29-.53V34.71A9.4,9.4,0,0,1,10,27.35h0L50.64,3.87A3.34,3.34,0,0,1,54,3.6a3.37,3.37,0,0,1,1.47,3.09V17.48a.62.62,0,0,1-.32.53L6.6,46.05A.69.69,0,0,1,6.29,46.14Z"/><path class="cls-1" d="M54.88,17.48V50.83a8.7,8.7,0,0,1-4,6.82L10.22,81.13c-2.17,1.26-3.94.23-3.94-2.27V45.52Z"/><path class="cls-2" d="M6.92,45.87l0,33a2.14,2.14,0,0,0,.86,2,2.16,2.16,0,0,0,2.15-.27L50.62,57.12a8.18,8.18,0,0,0,3.63-6.29l0-32.29L6.92,45.87ZM8.47,82.29a2.63,2.63,0,0,1-1.34-.35,3.35,3.35,0,0,1-1.46-3.08l0-33.34A.61.61,0,0,1,6,45l48.6-28a.61.61,0,0,1,.61,0,.64.64,0,0,1,.32.54l0,33.35a9.41,9.41,0,0,1-4.23,7.36L10.53,81.67A4.2,4.2,0,0,1,8.47,82.29Z"/><path class="cls-1" d="M36.14,18.49c1.06-.61,1.91-.11,1.91,1.1a4.21,4.21,0,0,1-1.91,3.3c-1,.6-1.9.11-1.9-1.1A4.22,4.22,0,0,1,36.14,18.49Z"/><path class="cls-2" d="M36.14,18.49h0Zm.85.36a1.07,1.07,0,0,0-.54.18h0a3.55,3.55,0,0,0-1.6,2.76.81.81,0,0,0,.26.69.83.83,0,0,0,.74-.13,3.59,3.59,0,0,0,1.57-2.76c0-.35-.08-.61-.24-.7a.38.38,0,0,0-.19,0Zm-1.7,4.91a1.59,1.59,0,0,1-.8-.21,2,2,0,0,1-.87-1.76A4.78,4.78,0,0,1,35.85,18h0a1.75,1.75,0,0,1,2.81,1.63,4.78,4.78,0,0,1-2.21,3.83A2.24,2.24,0,0,1,35.29,23.76Z"/><path class="cls-1" d="M42.71,14.7c1-.6,1.9-.11,1.9,1.1a4.22,4.22,0,0,1-1.9,3.3c-1.06.61-1.91.11-1.91-1.1A4.21,4.21,0,0,1,42.71,14.7Z"/><path class="cls-2" d="M43.54,15.06a1.21,1.21,0,0,0-.54.18h0A3.63,3.63,0,0,0,41.41,18a.79.79,0,0,0,.26.7c.16.09.42,0,.73-.14A3.54,3.54,0,0,0,44,15.8a.8.8,0,0,0-.25-.69.3.3,0,0,0-.2,0ZM41.84,20a1.52,1.52,0,0,1-.8-.21A1.94,1.94,0,0,1,40.19,18a4.83,4.83,0,0,1,2.21-3.83h0a1.94,1.94,0,0,1,2-.13,2,2,0,0,1,.87,1.76A4.78,4.78,0,0,1,43,19.63,2.24,2.24,0,0,1,41.84,20Z"/><path class="cls-1" d="M49.27,10.92c1-.61,1.89-.12,1.89,1.1a4.24,4.24,0,0,1-1.89,3.3c-1.06.6-1.92.11-1.92-1.11A4.2,4.2,0,0,1,49.27,10.92Z"/><path class="cls-2" d="M50.1,11.27a1.17,1.17,0,0,0-.54.18A3.6,3.6,0,0,0,48,14.21a.84.84,0,0,0,.24.71.86.86,0,0,0,.73-.14A3.59,3.59,0,0,0,50.55,12a.82.82,0,0,0-.26-.7.36.36,0,0,0-.19-.05Zm-1.69,4.92a1.48,1.48,0,0,1-.79-.21,1.9,1.9,0,0,1-.87-1.77A4.85,4.85,0,0,1,49,10.38a2,2,0,0,1,2-.13A2,2,0,0,1,51.79,12a4.82,4.82,0,0,1-2.23,3.83A2.24,2.24,0,0,1,48.41,16.19Z"/><polygon class="cls-3" points="21.52 53.97 21.52 52.21 29.62 47.52 29.62 49.28 21.52 53.97"/><path class="cls-2" d="M22.13,52.57v.33l6.88-4v-.34l-6.88,4Zm-.61,2a.55.55,0,0,1-.31-.08.62.62,0,0,1-.32-.53V52.21a.65.65,0,0,1,.32-.54L29.32,47a.58.58,0,0,1,.62,0,.61.61,0,0,1,.3.52v1.77a.63.63,0,0,1-.3.53L21.81,54.5A.47.47,0,0,1,21.52,54.58Z"/><polygon class="cls-3" points="12.46 57.2 12.46 54.47 18.32 48.42 12.46 49.16 12.46 46.45 20.86 45.8 20.86 48.12 12.46 57.2"/><path class="cls-2" d="M13.07,54.72v.91l7.18-7.75V46.47L13.07,47v1.44l5.18-.65a.62.62,0,0,1,.63.33.64.64,0,0,1-.12.71l-5.69,5.87Zm-.61,3.1a.54.54,0,0,1-.22,0,.59.59,0,0,1-.4-.57V54.47A.7.7,0,0,1,12,54l4.64-4.79-4.12.52a.61.61,0,0,1-.48-.15.68.68,0,0,1-.21-.47v-2.7a.64.64,0,0,1,.57-.62l8.41-.64a.63.63,0,0,1,.66.61v2.32a.61.61,0,0,1-.17.42l-8.39,9.08A.65.65,0,0,1,12.46,57.82Z"/></g></g></svg>