<svg xmlns="http://www.w3.org/2000/svg" viewBox="0 0 39.7 40.91"><defs><style>.cls-1{fill:#bdedf8;}.cls-1,.cls-2,.cls-3,.cls-4{fill-rule:evenodd;}.cls-2{fill:#1a87c7;}.cls-3{fill:#66ceef;}.cls-4{fill:#fff;}</style></defs><g id="Camada_2" data-name="Camada 2"><g id="_Layer_" data-name="&lt;Layer&gt;"><path class="cls-1" d="M1.44,17.93V32.84c0,1.27.88,1.78,2,1.15l23-13.28a4.44,4.44,0,0,0,2-3.45V2.36c0-1.27-.9-1.79-2-1.15l-23,13.28A4.38,4.38,0,0,0,1.44,17.93Z"/><path class="cls-2" d="M27.31,1.24a1.51,1.51,0,0,0-.73.23l-23,13.29a4.13,4.13,0,0,0-1.84,3.17V32.84a1.13,1.13,0,0,0,.43,1,1.11,1.11,0,0,0,1.1-.14l23-13.28a4.14,4.14,0,0,0,1.84-3.18V2.36a1.1,1.1,0,0,0-.43-1,.66.66,0,0,0-.37-.1ZM2.53,34.57a1.42,1.42,0,0,1-.67-.17,1.71,1.71,0,0,1-.73-1.56V17.93a4.76,4.76,0,0,1,2.14-3.71L26.27.94A1.69,1.69,0,0,1,28,.8a1.71,1.71,0,0,1,.73,1.56v14.9A4.72,4.72,0,0,1,26.58,21l-23,13.28A2.21,2.21,0,0,1,2.53,34.57Z"/><polygon class="cls-3" points="1.44 19.7 1.44 24.31 28.42 8.73 28.42 4.12 1.44 19.7"/><path class="cls-2" d="M1.74,19.87v3.91L28.11,8.56V4.65L1.74,19.87Zm-.3,4.75a.29.29,0,0,1-.16,0,.33.33,0,0,1-.15-.27V19.69a.3.3,0,0,1,.15-.26l27-15.58a.29.29,0,0,1,.31,0,.29.29,0,0,1,.15.27V8.73a.29.29,0,0,1-.15.27l-27,15.58A.28.28,0,0,1,1.44,24.62Z"/><path class="cls-3" d="M13,40.46l-1.1-.63a1.38,1.38,0,0,1-.59-1.29c0-5,0-9.95,0-14.93a4.43,4.43,0,0,1,2-3.44l23-13.28a1.41,1.41,0,0,1,1.4-.14l1.1.64a1.41,1.41,0,0,0-1.39.13l-23,13.29a4.35,4.35,0,0,0-2,3.44V39.18A1.43,1.43,0,0,0,13,40.46Z"/><path class="cls-2" d="M37.14,6.93a1.67,1.67,0,0,0-.71.24l-23,13.26a4.12,4.12,0,0,0-1.83,3.21c0,1.63,0,3.29,0,4.95,0,3.26,0,6.63,0,10a1.06,1.06,0,0,0,.47,1.05l.06,0c0-.12,0-.26-.05-.41v-15a4.73,4.73,0,0,1,2.12-3.7l23-13.29a2.85,2.85,0,0,1,.41-.18L37.55,7a1.34,1.34,0,0,0-.41-.08ZM13,40.77a.32.32,0,0,1-.16,0l-1.09-.64A1.66,1.66,0,0,1,11,38.54c0-3.32,0-6.69,0-9.95,0-1.66,0-3.32,0-5a4.71,4.71,0,0,1,2.12-3.69l23-13.3a1.73,1.73,0,0,1,1.66-.16L39,7.12a.3.3,0,0,1,.12.4.3.3,0,0,1-.38.15c-.49-.18-.64-.11-1.17.13l-23,13.27a4.09,4.09,0,0,0-1.84,3.21v14.9c.06.56.07.71.48,1a.31.31,0,0,1,.05.42A.33.33,0,0,1,13,40.77Z"/><path class="cls-4" d="M14.4,20.81l23-13.29c1.09-.63,2-.12,2,1.15V23.6a4.42,4.42,0,0,1-2,3.44l-23,13.29c-1.1.63-2,.11-2-1.15V24.25A4.39,4.39,0,0,1,14.4,20.81Z"/><path class="cls-2" d="M14.55,21.07a4.15,4.15,0,0,0-1.84,3.18V39.18a1.11,1.11,0,0,0,.44,1,1.1,1.1,0,0,0,1.09-.14l23-13.28a4.14,4.14,0,0,0,1.83-3.18V8.67a1.15,1.15,0,0,0-.42-1,1.13,1.13,0,0,0-1.11.14l-23,13.28Zm-1,19.84a1.36,1.36,0,0,1-.68-.18,1.69,1.69,0,0,1-.73-1.55V24.25a4.75,4.75,0,0,1,2.14-3.71h0l23-13.28A1.65,1.65,0,0,1,39,7.12a1.66,1.66,0,0,1,.74,1.55V23.6a4.76,4.76,0,0,1-2.15,3.71l-23,13.28A2.11,2.11,0,0,1,13.51,40.91Z"/><path class="cls-3" d="M36.92,14.49v-3c0-.2-.14-.28-.31-.18l-5.89,3.4a.71.71,0,0,0-.3.53v3c0,.2.14.28.3.18L36.61,15A.67.67,0,0,0,36.92,14.49Z"/><path class="cls-2" d="M36.61,11.63l-5.73,3.31a.35.35,0,0,0-.16.26v2.86l5.74-3.31a.39.39,0,0,0,.15-.26V11.63Zm-6,7.14a.49.49,0,0,1-.23-.06.53.53,0,0,1-.24-.47v-3a1,1,0,0,1,.46-.8L36.46,11a.49.49,0,0,1,.76.45v3a1,1,0,0,1-.46.8l-5.88,3.4A.67.67,0,0,1,30.58,18.77Z"/><path class="cls-1" d="M15.4,26.55a1.32,1.32,0,0,1,.6-1l3.7-2.13c.32-.19.59,0,.59.34V27a1.33,1.33,0,0,1-.59,1L16,30.15c-.33.19-.6,0-.6-.34Z"/><path class="cls-2" d="M20,23.61l-.11.05-3.7,2.13a1,1,0,0,0-.43.76v3.26a.68.68,0,0,0,0,.12l.12,0,3.69-2.14A1,1,0,0,0,20,27V23.73c0-.08,0-.11,0-.12Zm-4.23,6.93a.61.61,0,0,1-.3-.08.72.72,0,0,1-.33-.65V26.55a1.66,1.66,0,0,1,.75-1.3l3.69-2.13a.74.74,0,0,1,.73,0,.72.72,0,0,1,.33.65V27a1.66,1.66,0,0,1-.75,1.3l-3.7,2.13A.84.84,0,0,1,15.73,30.54Z"/><path class="cls-2" d="M15.87,35.45a.31.31,0,0,1-.15-.58l3.72-2.14a.3.3,0,1,1,.3.53L16,35.41A.24.24,0,0,1,15.87,35.45Z"/><path class="cls-2" d="M21.49,32.21a.31.31,0,0,1-.15-.58l3.71-2.14a.31.31,0,1,1,.32.53l-3.72,2.14A.37.37,0,0,1,21.49,32.21Z"/><path class="cls-2" d="M27.11,29a.34.34,0,0,1-.27-.15.33.33,0,0,1,.12-.43l3.72-2.14a.29.29,0,0,1,.41.11.3.3,0,0,1-.11.42l-3.71,2.15A.29.29,0,0,1,27.11,29Z"/><path class="cls-2" d="M32.74,25.72a.29.29,0,0,1-.27-.16.3.3,0,0,1,.11-.42L36.3,23a.31.31,0,0,1,.42.12.32.32,0,0,1-.11.42l-3.72,2.14A.3.3,0,0,1,32.74,25.72Z"/><path class="cls-3" d="M2,34.15l-1.1-.64a1.32,1.32,0,0,1-.58-1.29c-.06-5,0-9.95,0-14.92a4.39,4.39,0,0,1,2-3.45L25.32.57A1.48,1.48,0,0,1,26.73.43l1.1.64a1.41,1.41,0,0,0-1.4.14l-23,13.28a4.35,4.35,0,0,0-2,3.44V32.86A1.43,1.43,0,0,0,2,34.15Z"/><path class="cls-2" d="M26.18.61a1.74,1.74,0,0,0-.73.24l-23,13.27a4.1,4.1,0,0,0-1.83,3.2c0,1.64,0,3.29,0,4.95,0,3.26,0,6.64,0,10a1.07,1.07,0,0,0,.47,1.05l.07,0c0-.13,0-.26-.05-.42v-15a4.69,4.69,0,0,1,2.12-3.7L26.27.94l.42-.18L26.57.7a1.12,1.12,0,0,0-.39-.09ZM2,34.46a.37.37,0,0,1-.16-.05l-1.1-.63A1.7,1.7,0,0,1,0,32.23c0-3.32,0-6.7,0-10,0-1.66,0-3.31,0-5a4.73,4.73,0,0,1,2.12-3.7L25.17.3A1.8,1.8,0,0,1,26.84.14L28,.8a.31.31,0,0,1,.12.4.31.31,0,0,1-.39.16c-.49-.19-.63-.12-1.16.13l-23,13.27A4,4,0,0,0,1.74,18v14.9c.05.56.07.72.47,1a.31.31,0,0,1,.06.41A.3.3,0,0,1,2,34.46Z"/></g></g></svg>