<svg xmlns="http://www.w3.org/2000/svg" viewBox="0 0 68.86 81.36"><defs><style>.cls-1{fill:#66ceef;}.cls-1,.cls-2,.cls-3,.cls-4{fill-rule:evenodd;}.cls-2{fill:#1a87c7;}.cls-3{fill:#bdedf8;}.cls-4{fill:#fff;}</style></defs><g id="Camada_2" data-name="Camada 2"><g id="_Layer_" data-name="&lt;Layer&gt;"><polygon class="cls-1" points="20.25 74.48 0.62 63.15 48.61 35.44 68.24 46.78 20.25 74.48"/><path class="cls-2" d="M1.85,63.15l18.4,10.62L67,46.78,48.61,36.15l-46.76,27ZM20.25,75.1a.59.59,0,0,1-.31-.09L.31,63.68a.61.61,0,0,1,0-1.06l48-27.71a.62.62,0,0,1,.62,0L68.55,46.24a.62.62,0,0,1,0,1.07L20.56,75A.59.59,0,0,1,20.25,75.1Z"/><polygon class="cls-1" points="20.25 80.74 0.62 69.41 0.62 63.15 20.25 74.48 20.25 80.74"/><path class="cls-2" d="M1.23,69.05l18.4,10.62V74.84L1.23,64.22v4.83Zm19,12.31a.68.68,0,0,1-.31-.08L.31,69.94A.61.61,0,0,1,0,69.41V63.15a.61.61,0,0,1,.31-.53.62.62,0,0,1,.62,0L20.56,74a.61.61,0,0,1,.31.53v6.26a.63.63,0,0,1-.31.54A.68.68,0,0,1,20.25,81.36Z"/><polygon class="cls-1" points="20.25 74.48 68.24 46.78 68.24 53.03 20.25 80.74 20.25 74.48"/><path class="cls-2" d="M20.87,74.84v4.83l46.76-27V47.84l-46.76,27Zm-.62,6.52a.68.68,0,0,1-.31-.08.63.63,0,0,1-.31-.54V74.48a.61.61,0,0,1,.31-.53l48-27.71a.61.61,0,0,1,.61,0,.63.63,0,0,1,.31.54V53a.61.61,0,0,1-.31.53l-48,27.72A.68.68,0,0,1,20.25,81.36Z"/><polygon class="cls-3" points="33.66 61.87 22.88 55.65 22.88 7.97 33.66 14.19 33.66 61.87"/><path class="cls-2" d="M23.5,55.29,33,60.8V14.55L23.5,9V55.29Zm10.16,7.2a.65.65,0,0,1-.31-.08L22.57,56.18a.61.61,0,0,1-.31-.53V8a.61.61,0,0,1,.31-.53.62.62,0,0,1,.62,0L34,13.66a.61.61,0,0,1,.31.53V61.87a.63.63,0,0,1-.31.54A.64.64,0,0,1,33.66,62.49Z"/><polygon class="cls-3" points="33.66 14.19 22.88 7.97 35.62 0.61 46.4 6.84 33.66 14.19"/><path class="cls-2" d="M24.11,8l9.55,5.51L45.17,6.84,35.62,1.32,24.11,8Zm9.55,6.84a.55.55,0,0,1-.31-.08L22.57,8.5a.61.61,0,0,1,0-1.06L35.31.08a.6.6,0,0,1,.61,0L46.71,6.31a.6.6,0,0,1,.31.53.61.61,0,0,1-.31.53L34,14.73A.54.54,0,0,1,33.66,14.81Z"/><polygon class="cls-4" points="33.66 40.47 22.88 34.24 10.13 41.6 20.91 47.82 33.66 40.47"/><path class="cls-2" d="M11.37,41.6l9.54,5.51,11.51-6.64L22.88,35,11.37,41.6Zm9.54,6.84a.64.64,0,0,1-.3-.08L9.83,42.13a.61.61,0,0,1-.31-.53.6.6,0,0,1,.31-.53l12.74-7.36a.62.62,0,0,1,.62,0L34,39.94A.61.61,0,0,1,34,41L21.22,48.36A.65.65,0,0,1,20.91,48.44Z"/><polygon class="cls-4" points="20.91 47.82 10.13 41.6 10.13 63 20.91 69.23 20.91 47.82"/><path class="cls-2" d="M10.75,62.65l9.54,5.51v-20l-9.54-5.51v20Zm10.16,7.2a.55.55,0,0,1-.3-.09L9.83,63.54A.63.63,0,0,1,9.52,63V41.6a.6.6,0,0,1,.31-.53.56.56,0,0,1,.61,0l10.78,6.22a.59.59,0,0,1,.31.53V69.23a.59.59,0,0,1-.31.53A.56.56,0,0,1,20.91,69.85Z"/><polygon class="cls-1" points="46.4 54.52 35.62 48.29 35.62 17.22 46.4 23.44 46.4 54.52"/><path class="cls-2" d="M36.23,47.93l9.55,5.52V23.79l-9.55-5.5V47.93Zm10.17,7.2a.65.65,0,0,1-.31-.08L35.31,48.82a.61.61,0,0,1-.31-.53V17.22a.63.63,0,0,1,.31-.54.6.6,0,0,1,.61,0l10.79,6.23a.61.61,0,0,1,.31.53V54.51a.6.6,0,0,1-.31.54A.64.64,0,0,1,46.4,55.13Z"/><polygon class="cls-1" points="46.4 23.44 35.62 17.22 48.36 9.86 59.14 16.09 46.4 23.44"/><path class="cls-2" d="M36.85,17.22l9.55,5.51,11.51-6.64-9.55-5.52L36.85,17.22Zm9.55,6.84a.59.59,0,0,1-.31-.09L35.31,17.75a.61.61,0,0,1-.31-.53.63.63,0,0,1,.31-.54L48.06,9.33a.6.6,0,0,1,.61,0l10.78,6.22a.62.62,0,0,1,0,1.07L46.71,24A.61.61,0,0,1,46.4,24.06Z"/><polygon class="cls-1" points="46.4 54.52 46.4 23.44 59.14 16.09 59.14 47.16 46.4 54.52"/><path class="cls-2" d="M47,23.79V53.45L58.52,46.8V17.15L47,23.79ZM46.4,55.13a.65.65,0,0,1-.31-.08.62.62,0,0,1-.31-.54V23.44a.61.61,0,0,1,.31-.53l12.74-7.36a.62.62,0,0,1,.93.54V47.16a.61.61,0,0,1-.31.53L46.7,55.05A.64.64,0,0,1,46.4,55.13Z"/><polygon class="cls-4" points="33.66 61.87 33.66 40.47 20.91 47.82 20.91 69.23 33.66 61.87"/><path class="cls-2" d="M33.66,61.87h0ZM21.53,48.18v20L33,61.52v-20L21.53,48.18Zm-.62,21.67a.55.55,0,0,1-.3-.09.6.6,0,0,1-.32-.53V47.82a.6.6,0,0,1,.32-.53l12.74-7.36a.6.6,0,0,1,.61,0,.63.63,0,0,1,.31.54v21.4a.63.63,0,0,1-.31.54L21.22,69.76A.56.56,0,0,1,20.91,69.85Z"/><polygon class="cls-3" points="33.66 61.87 33.66 14.19 46.4 6.84 46.4 54.52 33.66 61.87"/><path class="cls-2" d="M34.27,14.55V60.8l11.51-6.64V7.91L34.27,14.55Zm-.61,47.94a.65.65,0,0,1-.31-.08.63.63,0,0,1-.31-.54V14.19a.61.61,0,0,1,.31-.53L46.09,6.31a.56.56,0,0,1,.61,0,.58.58,0,0,1,.31.53V54.51a.61.61,0,0,1-.31.54L34,62.41A.64.64,0,0,1,33.66,62.49Z"/></g></g></svg>