<svg xmlns="http://www.w3.org/2000/svg" viewBox="0 0 38.03 40.8"><defs><style>.cls-1{fill:#66ceef;}.cls-1,.cls-2,.cls-3,.cls-4{fill-rule:evenodd;}.cls-2{fill:#1a87c7;}.cls-3{fill:#fff;}.cls-4{fill:#bdedf8;}</style></defs><g id="Camada_2" data-name="Camada 2"><g id="_Layer_" data-name="&lt;Layer&gt;"><path class="cls-1" d="M15.59,19.34A3.08,3.08,0,0,1,15.78,18a3.33,3.33,0,0,1,1.34-1.7L35.6,5.64a8.14,8.14,0,0,1,.83-.46,1.06,1.06,0,0,1,.68-.06l-3-1.76a1.19,1.19,0,0,0-.53,0,1.84,1.84,0,0,0-.38.17L14.68,14.19c-.22.13-.62.34-.83.5a3.44,3.44,0,0,0-1.3,2.5V33a1,1,0,0,0,.31.74l0,0,3,1.75a1,1,0,0,1-.32-.77Z"/><path class="cls-2" d="M33.91,3.63a1.93,1.93,0,0,0-.29,0,1.42,1.42,0,0,0-.32.14L14.66,14.56a5.61,5.61,0,0,0-.62.38,3.11,3.11,0,0,0-1.18,2.26V33a.69.69,0,0,0,.21.52l2.22,1.28V19.34h.31l-.31-.07a3.28,3.28,0,0,1,.21-1.38A3.66,3.66,0,0,1,17,16L35.59,5.29c.18-.11.42-.25.6-.34L33.91,3.63Zm-18,32.2a.28.28,0,0,1-.15,0l-3-1.76L12.63,34a1.29,1.29,0,0,1-.39-1V17.19a3.71,3.71,0,0,1,1.43-2.74,5.48,5.48,0,0,1,.69-.43l.17-.09L33,3.27a2.08,2.08,0,0,1,.45-.19,1.2,1.2,0,0,1,.73,0l3.08,1.77a.32.32,0,0,1,.13.39.29.29,0,0,1-.35.18.74.74,0,0,0-.5,0,7.17,7.17,0,0,0-.64.35l-.15.09L17.28,16.56a3,3,0,0,0-1.21,1.55,2.67,2.67,0,0,0-.17,1.16V34.75a.71.71,0,0,0,.23.55.32.32,0,0,1,0,.41A.3.3,0,0,1,15.91,35.83Z"/><path class="cls-3" d="M29,28.84c3.68-1.9,5.11-.25,7.45,1.07a21,21,0,0,0-.35-5.4l.07,0a3.39,3.39,0,0,0,1.54-2.66V6.18c0-1-.68-1.37-1.53-.88l-19.07,11A3.39,3.39,0,0,0,15.59,19v15.8a1,1,0,0,0,.53.92,1,1,0,0,0,1.05,0Z"/><path class="cls-2" d="M36.87,5.4a1.06,1.06,0,0,0-.52.16l-19.07,11A3.1,3.1,0,0,0,15.9,19v15.8A.75.75,0,0,0,17,35.4l11.83-6.82h0c3.27-1.69,4.88-.7,6.73.45l.57.35a18.44,18.44,0,0,0-.35-4.78.34.34,0,0,1,.15-.35l.07,0a3.08,3.08,0,0,0,1.38-2.39V6.18a.79.79,0,0,0-.3-.72.51.51,0,0,0-.25-.06ZM16.64,36.12a1.41,1.41,0,0,1-.68-.18,1.34,1.34,0,0,1-.68-1.19V19A3.69,3.69,0,0,1,17,16L36,5a1.38,1.38,0,0,1,1.39-.11A1.38,1.38,0,0,1,38,6.18V21.81a3.7,3.7,0,0,1-1.57,2.85,20.6,20.6,0,0,1,.32,4.91v.34a.3.3,0,0,1-.15.26.31.31,0,0,1-.31,0c-.36-.21-.71-.42-1-.63-1.77-1.1-3.16-2-6.11-.44L17.33,35.94A1.42,1.42,0,0,1,16.64,36.12Z"/><path class="cls-4" d="M3.67,16.92A3.61,3.61,0,0,1,5.3,14.11L24.85,2.83c.53-.31,1.1-.76,1.72-.5-.44-.25-3.28-1.93-3.49-2-.55-.16-1.13.29-1.6.55L2.57,11.81A3.67,3.67,0,0,0,.74,13.48,3.29,3.29,0,0,0,.31,15V31.52a1.23,1.23,0,0,0,.42,1l1.14.65a31,31,0,0,0-.24,5.36L5,40.49a27,27,0,0,1,.38-6.14l-1.7-1Z"/><path class="cls-2" d="M1.94,38.37,4.68,40A25.83,25.83,0,0,1,5,34.51l-1.51-.87a.32.32,0,0,1-.16-.27V16.92h0a3.9,3.9,0,0,1,1.77-3.08L24.92,2.43a5.22,5.22,0,0,1,.62-.34C24.65,1.57,23.17.71,23,.63s-.76.17-1.13.4l-.22.13-19,11A3.24,3.24,0,0,0,1,13.62,3,3,0,0,0,.62,15V31.52a1,1,0,0,0,.28.76L2,32.92a.31.31,0,0,1,.15.32,30,30,0,0,0-.23,5.09v0ZM5,40.8a.28.28,0,0,1-.15,0L1.47,38.82a.3.3,0,0,1-.15-.26v-.22a29.87,29.87,0,0,1,.22-5l-1-.55A1.46,1.46,0,0,1,0,31.52V15a3.46,3.46,0,0,1,.46-1.65A3.9,3.9,0,0,1,2.3,11.6L21.54.5A2.05,2.05,0,0,1,23.17.05c.13,0,.66.32,3.1,1.75l.45.26a.31.31,0,0,1-.28.55c-.37-.16-.78.09-1.2.35L25,3.1,5.45,14.38A3.27,3.27,0,0,0,4,16.92V33.19l1.54.9a.28.28,0,0,1,.15.32,26.33,26.33,0,0,0-.37,5.86v.22a.33.33,0,0,1-.15.27A.29.29,0,0,1,5,40.8Z"/><path class="cls-3" d="M5.37,34.35h0l-1.16.19L1.3,32.87l.57.32v.05a33.71,33.71,0,0,0-.23,5.31L5,40.49a30.28,30.28,0,0,1,.34-5.93Z"/><path class="cls-2" d="M1.94,38.37,4.68,40A28.69,28.69,0,0,1,5,34.73l-.73.12a.28.28,0,0,1-.2,0L2.11,33.69a33.51,33.51,0,0,0-.17,4.68ZM5,40.8a.28.28,0,0,1-.15,0L1.47,38.82a.3.3,0,0,1-.15-.26,33.81,33.81,0,0,1,.22-5.21l-.4-.22A.32.32,0,0,1,1,32.71a.3.3,0,0,1,.42-.11l.57.32H2l2.24,1.29,1.05-.17a.28.28,0,0,1,.27.09.3.3,0,0,1,.08.27l0,.21a30.09,30.09,0,0,0-.33,5.87.33.33,0,0,1-.15.27A.29.29,0,0,1,5,40.8Z"/><path class="cls-1" d="M4.22,15.21.85,13.28.31,15,.41,32.1c.19.51.77.69,1.46,1.09a31.09,31.09,0,0,0-.24,5.36L5,40.49a27.6,27.6,0,0,1,.38-6.14l-1.7-1c0-2.2-.14-16.23.1-17.15Z"/><path class="cls-2" d="M4,33.37Zm-2,5L4.68,40A25.87,25.87,0,0,1,5,34.51l-1.51-.87a.32.32,0,0,1-.16-.27c0-.41,0-1.23,0-2.29-.05-8.49-.05-14.29.13-14.94l.34-.8L1,13.73.62,15,.71,32c.13.26.43.42.85.63l.46.25a.3.3,0,0,1,.15.32,30.12,30.12,0,0,0-.24,5v.1ZM5,40.8a.28.28,0,0,1-.15,0L1.47,38.82a.3.3,0,0,1-.15-.26v-.28a30.22,30.22,0,0,1,.22-4.92l-.27-.14a2.13,2.13,0,0,1-1.15-1,.52.52,0,0,1,0-.11L0,15a.28.28,0,0,1,0-.09l.54-1.71A.31.31,0,0,1,.74,13,.29.29,0,0,1,1,13L4.37,15a.31.31,0,0,1,.13.39l-.44,1C3.88,17,3.94,26.86,4,31.08c0,.93,0,1.67,0,2.11l1.54.9a.28.28,0,0,1,.15.32,26,26,0,0,0-.37,5.82v.26a.33.33,0,0,1-.15.27A.29.29,0,0,1,5,40.8Z"/><path class="cls-2" d="M27.16,16a.33.33,0,0,1-.27-.16.31.31,0,0,1,.12-.42l6.85-4a.31.31,0,0,1,.42.12.3.3,0,0,1-.11.42l-6.85,4A.33.33,0,0,1,27.16,16Z"/><path class="cls-2" d="M27.16,19.91a.31.31,0,0,1-.27-.15.32.32,0,0,1,.11-.42L32.75,16a.32.32,0,0,1,.42.11.3.3,0,0,1-.11.42l-5.75,3.32A.28.28,0,0,1,27.16,19.91Z"/><path class="cls-2" d="M19.29,28.6a.31.31,0,0,1-.15-.58l14.72-8.49a.32.32,0,0,1,.42.11.3.3,0,0,1-.11.42L19.45,28.55A.3.3,0,0,1,19.29,28.6Z"/><path class="cls-3" d="M27.09,20.11c0-4.08,0-12.63,0-16.7,0-1-.73-1.46-1.62-.94L5.3,14.11a3.61,3.61,0,0,0-1.63,2.81V33.46c0,1,.73,1.45,1.62.94l.08,0A27.86,27.86,0,0,0,5,40.49c.65-1.11,1.3-2.22,1.94-3.34C11,30,19.06,26.41,25.42,23a3.56,3.56,0,0,0,1.67-2.84Z"/><path class="cls-2" d="M5.37,34a.32.32,0,0,1,.18.06.32.32,0,0,1,.12.31,23.5,23.5,0,0,0-.38,5c.46-.8.92-1.59,1.37-2.39C10.31,30.62,17,27.06,23,23.92c.79-.42,1.57-.83,2.33-1.25a2.76,2.76,0,0,0,1-1.09,2.9,2.9,0,0,0,.45-1.47h0V3.41a.89.89,0,0,0-.32-.79.89.89,0,0,0-.84.12L5.45,14.38A3.3,3.3,0,0,0,4,16.92V33.46a.84.84,0,0,0,.32.78.86.86,0,0,0,.84-.11l.07,0A.33.33,0,0,1,5.37,34ZM5,40.8H4.91a.3.3,0,0,1-.23-.29v-.34A28.38,28.38,0,0,1,5,34.87a1.2,1.2,0,0,1-1-.1,1.4,1.4,0,0,1-.63-1.31V16.92a3.88,3.88,0,0,1,1.77-3.08L25.32,2.2a1.46,1.46,0,0,1,1.46-.11,1.45,1.45,0,0,1,.62,1.32v16.7a3.46,3.46,0,0,1-.54,1.78,3.52,3.52,0,0,1-1.29,1.33l-2.34,1.25c-5.84,3.1-12.47,6.61-16,12.83-.64,1.12-1.29,2.24-1.94,3.35A.31.31,0,0,1,5,40.8Z"/><path class="cls-2" d="M7.6,18.58a.31.31,0,0,1-.27-.15A.3.3,0,0,1,7.44,18l13.64-7.86a.3.3,0,0,1,.42.11.31.31,0,0,1-.11.42L7.75,18.54A.28.28,0,0,1,7.6,18.58Z"/><path class="cls-2" d="M7.59,22.72a.31.31,0,0,1-.15-.58l15.58-9a.3.3,0,0,1,.42.11.32.32,0,0,1-.11.42l-15.58,9A.42.42,0,0,1,7.59,22.72Z"/><path class="cls-2" d="M7.59,27.11A.3.3,0,0,1,7.33,27a.29.29,0,0,1,.11-.41l10-5.79a.3.3,0,0,1,.42.11.3.3,0,0,1-.11.42l-10,5.79A.24.24,0,0,1,7.59,27.11Z"/><path class="cls-2" d="M4.08,34.78a.42.42,0,0,1-.15,0L.68,32.86a.31.31,0,1,1,.3-.54L4.24,34.2a.32.32,0,0,1,.11.42A.32.32,0,0,1,4.08,34.78Z"/></g></g></svg>