<svg xmlns="http://www.w3.org/2000/svg" viewBox="0 0 30.84 41.92"><defs><style>.cls-1{fill:#66ceef;}.cls-1,.cls-2,.cls-3,.cls-4{fill-rule:evenodd;}.cls-2{fill:#1a87c7;}.cls-3{fill:#bdedf8;}.cls-4{fill:#fff;}</style></defs><g id="Camada_2" data-name="Camada 2"><g id="_Layer_" data-name="&lt;Layer&gt;"><path class="cls-1" d="M4.19,41.55.6,39.48a.71.71,0,0,1-.29-.65V9.61A.71.71,0,0,1,.73,9c.4-.24.81-.48,1.23-.71a.24.24,0,0,1,.23,0l3.59,2.08a.24.24,0,0,0-.23,0l-1.32.76a.74.74,0,0,0-.33.58V35.62L26.6,22.51c.1-.05.14-.07.24,0l3.59,2.08a.23.23,0,0,0-.24,0l-24.31,14-2-1.14v3.44A.69.69,0,0,0,4.19,41.55Z"/><path class="cls-2" d="M2.1,8.55.88,9.26a.44.44,0,0,0-.27.38V38.83c0,.25.05.32.16.4l2.82,1.62V37.47a.33.33,0,0,1,.15-.27.34.34,0,0,1,.31,0l1.83,1.06L29.71,24.5l-3-1.71L4.05,35.88a.29.29,0,0,1-.31,0,.3.3,0,0,1-.15-.26V11.69a1.05,1.05,0,0,1,.47-.84l1-.58-3-1.72ZM4.19,41.86a.32.32,0,0,1-.16,0L.45,39.74A1,1,0,0,1,0,38.85V9.61a1,1,0,0,1,.57-.89L1.8,8a.58.58,0,0,1,.5,0l3.64,2.1a.3.3,0,0,1,.12.4.3.3,0,0,1-.38.15l-1.29.77a.43.43,0,0,0-.19.33V35.08L26.45,22.24a.53.53,0,0,1,.5,0l3.63,2.09a.3.3,0,0,1-.26.55L6,38.88a.29.29,0,0,1-.31,0L4.21,38v2.91c0,.24,0,.31.15.39a.3.3,0,0,1,.09.41A.3.3,0,0,1,4.19,41.86Z"/><path class="cls-3" d="M4.89,41.48a.7.7,0,0,1-.7.07.69.69,0,0,1-.29-.64V11.69a.76.76,0,0,1,.33-.58l1.32-.76c.18-.11.33,0,.33.19V38.61l24.31-14c.19-.11.34,0,.34.19v1.52a.73.73,0,0,1-.34.58Z"/><path class="cls-2" d="M5.57,10.69l-1.18.69a.42.42,0,0,0-.18.31V40.91a.44.44,0,0,0,.13.37.42.42,0,0,0,.4-.07h0L30,26.6a.42.42,0,0,0,.18-.31V24.92L6,38.88a.29.29,0,0,1-.31,0,.3.3,0,0,1-.16-.27V10.69ZM4.45,41.92a.87.87,0,0,1-.42-.1,1,1,0,0,1-.44-.91V11.69a1.06,1.06,0,0,1,.49-.85l1.31-.76a.57.57,0,0,1,.55,0,.53.53,0,0,1,.25.48V38.08L30,24.31a.55.55,0,0,1,.54,0,.54.54,0,0,1,.26.48v1.52a1.06,1.06,0,0,1-.49.85L5,41.75A1.13,1.13,0,0,1,4.45,41.92Z"/><polygon class="cls-4" points="25.74 25.3 5.88 36.76 5.88 15.47 25.74 4 25.74 25.3"/><path class="cls-2" d="M25.74,25.29h0ZM6.19,15.65V36.23L25.43,25.12V4.54L6.19,15.65ZM5.88,37.07a.42.42,0,0,1-.15,0,.32.32,0,0,1-.16-.27V15.47a.32.32,0,0,1,.16-.27L25.59,3.74a.27.27,0,0,1,.3,0,.29.29,0,0,1,.16.27V25.29a.3.3,0,0,1-.16.27L6,37A.42.42,0,0,1,5.88,37.07Z"/><path class="cls-1" d="M19.36,12.09a.69.69,0,0,1-.16-.18l-.38-.67a1.29,1.29,0,0,1,0-1A4.11,4.11,0,0,1,19.71,9l1.63-1.86,3.49-4,1.86-2.12L25.37.31,22.82,3.23l-3,3.46L18.17,8.55a2.7,2.7,0,0,0-.67,1,1.22,1.22,0,0,0,0,.9l.38.68a.65.65,0,0,0,.16.17l1.31.76Zm5.21.61-1.31-.76c-.24-.17-.26-.28-.29-.57l-.06-1.82,1.31.76.06,1.82c0,.28,0,.4.29.57ZM8.45,31.93l-1.31-.75c-.46-.29-.27-1-.1-1.37L12,19.58a2.86,2.86,0,0,1,1.08-1.23l5.23-3,2.32-6.08,1.31.76L19.6,16.07l-5.23,3a2.93,2.93,0,0,0-1.08,1.23L8.36,30.56c-.18.41-.37,1.08.09,1.37Z"/><path class="cls-2" d="M23.23,10.1l0,1.26c0,.23,0,.24.17.33L24,12l0-1.51-.69-.39ZM24.57,13a.42.42,0,0,1-.15,0l-1.31-.76a.93.93,0,0,1-.45-.8L22.6,9.56a.29.29,0,0,1,.15-.27.29.29,0,0,1,.31,0l1.31.75a.3.3,0,0,1,.16.26l.06,1.82c0,.22,0,.23.16.33a.31.31,0,0,1-.18.56ZM25.44.7l.77.45L21.11,7,19.3,9a3.6,3.6,0,0,0-.74,1.08,1.66,1.66,0,0,0-.07,1.11l-.25-.15a.16.16,0,0,1-.08-.08l-.37-.65a.91.91,0,0,1,0-.67,2.45,2.45,0,0,1,.61-.93l7-8Zm-4.67,9-2.19,5.74a.36.36,0,0,1-.14.16l-5.23,3a2.48,2.48,0,0,0-1,1.1L7.32,29.94c-.05.12-.33.78,0,1l.56.32a2.45,2.45,0,0,1,.21-.79L13,20.2a3.19,3.19,0,0,1,1.19-1.36l5.14-3,2.19-5.74-.77-.44ZM8.45,32.24a.28.28,0,0,1-.15,0L7,31.44c-.49-.31-.57-1-.22-1.76L11.7,19.45a3.16,3.16,0,0,1,1.2-1.36l5.14-3,1.07-2.8-1.22-.7a1.58,1.58,0,0,1-.26-.27l-.39-.7a1.53,1.53,0,0,1,0-1.13,3,3,0,0,1,.7-1.12L25.14.1A.32.32,0,0,1,25.53,0L26.84.8A.3.3,0,0,1,27,1a.29.29,0,0,1-.07.25L19.76,9.45a3,3,0,0,0-.62.89,1,1,0,0,0,0,.77l.28.49.95-2.48a.29.29,0,0,1,.18-.18.33.33,0,0,1,.26,0l1.31.76a.31.31,0,0,1,.13.38l-2.32,6.08a.34.34,0,0,1-.13.16l-5.24,3a2.49,2.49,0,0,0-.95,1.1L8.64,30.7c-.08.17-.33.78,0,1a.32.32,0,0,1,.1.42A.31.31,0,0,1,8.45,32.24Z"/><path class="cls-3" d="M8.36,30.56l4.93-10.22a3.42,3.42,0,0,1,.48-.73,2.49,2.49,0,0,1,.6-.5l5.23-3L21.92,10l-1.49,1.7c-.45.52-1,.62-1.23.22l-.38-.67a1.67,1.67,0,0,1,.43-1.67l7.44-8.5c.1,3.13.19,6.26.29,9.39a2,2,0,0,1-.89,1.61l-.86.53c-.51.32-.94.1-.95-.47l-.06-1.82L21.5,17.39a3,3,0,0,1-.46.77,2.36,2.36,0,0,1-.66.58L15,21.85,10.5,31.24c-.31.64-.89,1.06-1.3.94L8.52,32C8.12,31.84,8.05,31.21,8.36,30.56Z"/><path class="cls-2" d="M8.64,30.7a1.12,1.12,0,0,0-.13.86.2.2,0,0,0,.1.11l.69.21c.2.07.65-.21.92-.77l4.53-9.39a.26.26,0,0,1,.12-.13l5.35-3.11A2.31,2.31,0,0,0,20.8,18a2.71,2.71,0,0,0,.42-.7l2.71-7.06a.3.3,0,0,1,.34-.19.29.29,0,0,1,.26.29l.06,1.82a.37.37,0,0,0,.11.3c.08.05.22,0,.37-.08l.86-.53a1.72,1.72,0,0,0,.74-1.34L26.4,1.86,19.48,9.77a1.44,1.44,0,0,0-.39,1.32l.38.67a.15.15,0,0,0,.12.09.87.87,0,0,0,.61-.37l1.49-1.7a.32.32,0,0,1,.39-.06.31.31,0,0,1,.13.38l-2.32,6.08a.34.34,0,0,1-.13.16l-5.24,3a2.47,2.47,0,0,0-.52.43,3.56,3.56,0,0,0-.43.66L8.64,30.7Zm.72,1.81a.69.69,0,0,1-.25,0l-.68-.21A.82.82,0,0,1,8,31.81a1.72,1.72,0,0,1,.13-1.38h0L13,20.2a3.48,3.48,0,0,1,.52-.79,2.75,2.75,0,0,1,.68-.57l5.13-3L21,11.48l-.35.41a1.4,1.4,0,0,1-1.14.57.77.77,0,0,1-.6-.4l-.37-.67a1.93,1.93,0,0,1,.46-2L26.46.86a.29.29,0,0,1,.33-.08.31.31,0,0,1,.21.28l.29,9.39a2.33,2.33,0,0,1-1,1.88l-.86.54a1,1,0,0,1-1,.1.93.93,0,0,1-.44-.83v-.29L21.79,17.5a3.62,3.62,0,0,1-.51.85,2.85,2.85,0,0,1-.75.66l-5.27,3.06-4.49,9.3A1.79,1.79,0,0,1,9.36,32.51Z"/></g></g></svg>