<svg xmlns="http://www.w3.org/2000/svg" viewBox="0 0 45.69 46.02"><defs><style>.cls-1{fill:#66ceef;}.cls-1,.cls-2,.cls-3,.cls-4{fill-rule:evenodd;}.cls-2{fill:#1a87c7;}.cls-3{fill:#fff;}.cls-4{fill:#bdedf8;}</style></defs><g id="Camada_2" data-name="Camada 2"><g id="_Layer_" data-name="&lt;Layer&gt;"><path class="cls-1" d="M25.29,44.08l-.35.69a2.13,2.13,0,0,1-1.54.89,4,4,0,0,1-1.61-.07,1.94,1.94,0,0,1-1.22-.82l-.35-.69A9.29,9.29,0,0,0,25.29,44.08Z"/><path class="cls-2" d="M20.8,44.54l0,.09a1.63,1.63,0,0,0,1,.66,3.67,3.67,0,0,0,1.48.06,1.78,1.78,0,0,0,1.31-.73l0-.08a9.54,9.54,0,0,1-3.91,0ZM22.74,46a4.53,4.53,0,0,1-1-.13,2.22,2.22,0,0,1-1.42-1l-.36-.7a.3.3,0,0,1,0-.34.32.32,0,0,1,.32-.1,8.91,8.91,0,0,0,4.91,0,.32.32,0,0,1,.32.1.32.32,0,0,1,0,.34l-.35.69A2.38,2.38,0,0,1,23.46,46,4.56,4.56,0,0,1,22.74,46Z"/><path class="cls-1" d="M26.69,43.49c1.49-.86,2-2.09,1.4-3.18L27,38.23H18.49l-1.07,2.08c-.56,1.09-.09,2.32,1.4,3.18A8.67,8.67,0,0,0,26.69,43.49Z"/><path class="cls-2" d="M26.69,43.49h0Zm-8-5-1,1.91c-.51,1,0,2,1.28,2.78a8.37,8.37,0,0,0,7.55,0c1.31-.76,1.79-1.8,1.28-2.78l-1-1.91Zm4.07,6.2a8.32,8.32,0,0,1-4.08-1c-1.6-.92-2.18-2.3-1.52-3.59l1.06-2.08a.33.33,0,0,1,.28-.17H27a.33.33,0,0,1,.28.17l1.06,2.08c.66,1.29.08,2.66-1.52,3.59h0A8.33,8.33,0,0,1,22.75,44.74Z"/><path class="cls-3" d="M34.09,17.82c1.57,5-.14,8.34-1.91,11.38-1.12,1.92-1.92,2.19-2.53,4.36-.37,1.31-.24,2.33-1.27,3.4-2.83,2.92-8.72,3-11.25,0-.95-1.14-.9-2.09-1.27-3.4-.61-2.17-1.41-2.44-2.53-4.36-1.77-3-3.48-6.42-1.91-11.38s6.47-7.64,11.33-7.64S32.48,12.73,34.09,17.82Z"/><path class="cls-2" d="M22.75,10.49c-5.27,0-9.61,2.92-11,7.43-1.5,4.72,0,8,1.89,11.12a15.11,15.11,0,0,0,1.07,1.58,7.43,7.43,0,0,1,1.49,2.86c.1.35.17.68.23,1a4.53,4.53,0,0,0,1,2.29,6.62,6.62,0,0,0,4.91,2.11,7.83,7.83,0,0,0,5.88-2.13,3.73,3.73,0,0,0,1-2.2c.06-.33.13-.69.23-1.06a7.43,7.43,0,0,1,1.49-2.86A16.86,16.86,0,0,0,31.91,29c1.85-3.16,3.38-6.4,1.89-11.12-1.43-4.51-5.77-7.43-11-7.43Zm-.15,29h-.34a7.23,7.23,0,0,1-5.36-2.34,5.06,5.06,0,0,1-1.11-2.56c-.06-.29-.13-.6-.23-.94A6.73,6.73,0,0,0,14.18,31a15,15,0,0,1-1.11-1.63c-1.92-3.29-3.52-6.66-1.94-11.63C12.64,13,17.2,9.87,22.75,9.87S32.87,13,34.38,17.73h0c1.58,5,0,8.34-1.94,11.63A15,15,0,0,1,31.33,31a6.73,6.73,0,0,0-1.39,2.66c-.1.35-.16.68-.22,1a4.28,4.28,0,0,1-1.12,2.52A8.37,8.37,0,0,1,22.6,39.49Z"/><path class="cls-3" d="M26,41.47c1.77-1,1.77-2.67,0-3.7a7.12,7.12,0,0,0-6.39,0c-1.77,1-1.77,2.68,0,3.7A7.05,7.05,0,0,0,26,41.47Z"/><path class="cls-2" d="M22.75,37.32a6.27,6.27,0,0,0-3,.72,2,2,0,0,0-1.17,1.58,2,2,0,0,0,1.17,1.58,6.74,6.74,0,0,0,6.09,0A2,2,0,0,0,27,39.62,2,2,0,0,0,25.8,38a6.28,6.28,0,0,0-3.05-.72Zm0,5.21a6.74,6.74,0,0,1-3.34-.8,2.24,2.24,0,0,1,0-4.22,7.37,7.37,0,0,1,6.69,0,2.24,2.24,0,0,1,0,4.22A6.75,6.75,0,0,1,22.75,42.53Z"/><path class="cls-1" d="M26.69,41.79c1.49-.86,2-2.09,1.4-3.18L27,36.53H18.49l-1.07,2.08c-.56,1.09-.09,2.32,1.4,3.18A8.73,8.73,0,0,0,26.69,41.79Z"/><path class="cls-2" d="M18.68,36.83l-1,1.91c-.51,1,0,2,1.28,2.78a8.31,8.31,0,0,0,7.55,0h0c1.31-.75,1.79-1.79,1.28-2.78l-1-1.91ZM22.75,43a8.32,8.32,0,0,1-4.08-1c-1.6-.93-2.18-2.3-1.52-3.6l1.06-2.07a.31.31,0,0,1,.28-.17H27a.31.31,0,0,1,.28.17l1.06,2.07c.66,1.3.08,2.67-1.52,3.6h0A8.33,8.33,0,0,1,22.75,43Z"/><path class="cls-4" d="M26.74,33.52c2.19,1.27,2.19,3.33,0,4.6a8.79,8.79,0,0,1-8,0c-2.2-1.27-2.2-3.33,0-4.6A8.79,8.79,0,0,1,26.74,33.52Z"/><path class="cls-2" d="M22.75,32.88a7.79,7.79,0,0,0-3.82.91,2.51,2.51,0,0,0-1.5,2,2.5,2.5,0,0,0,1.5,2,8.45,8.45,0,0,0,7.65,0,2.52,2.52,0,0,0,1.5-2,2.53,2.53,0,0,0-1.5-2h0a7.8,7.8,0,0,0-3.83-.91Zm0,6.49a8.54,8.54,0,0,1-4.13-1,3.11,3.11,0,0,1-1.8-2.57,3.11,3.11,0,0,1,1.8-2.57,9.19,9.19,0,0,1,8.27,0,3.11,3.11,0,0,1,1.8,2.57,3.11,3.11,0,0,1-1.8,2.57A8.56,8.56,0,0,1,22.75,39.37Z"/><path class="cls-1" d="M28.38,36v2A2.3,2.3,0,0,1,28,39a5.7,5.7,0,0,1-3.61,1.9A8.69,8.69,0,0,1,18.57,40a2.93,2.93,0,0,1-1.42-1.86l0-.16V36a1.9,1.9,0,0,0,.16.61,4.6,4.6,0,0,0,3.09,2.18A8.76,8.76,0,0,0,26.93,38a3,3,0,0,0,1.43-1.87Z"/><path class="cls-2" d="M17.44,37.43l0,.62a2.71,2.71,0,0,0,1.28,1.65,8.34,8.34,0,0,0,5.56.89,5.64,5.64,0,0,0,3.42-1.76,2,2,0,0,0,.35-.91v-.5a4.26,4.26,0,0,1-1,.84,9.15,9.15,0,0,1-6.8.81,5.93,5.93,0,0,1-2.86-1.64Zm5.3,3.91a8.12,8.12,0,0,1-4.33-1.13,3.18,3.18,0,0,1-1.56-2.07l0-.17V36a.31.31,0,0,1,.29-.31.32.32,0,0,1,.33.27,1.79,1.79,0,0,0,.13.53c.54,1.28,2.35,1.86,2.89,2a8.52,8.52,0,0,0,6.31-.73,2.7,2.7,0,0,0,1.28-1.66l0-.14a.3.3,0,0,1,.33-.27.31.31,0,0,1,.29.31v2a2.57,2.57,0,0,1-.47,1.25,6.07,6.07,0,0,1-3.81,2A10.63,10.63,0,0,1,22.74,41.34Z"/><polygon class="cls-1" points="24.74 33.58 24.74 35.28 24.74 35.3 24.74 35.31 24.73 35.32 24.73 35.33 24.72 35.34 24.7 35.36 24.69 35.37 24.68 35.38 21.81 37.03 21.79 37.04 21.77 37.05 21.75 37.05 21.73 37.06 21.71 37.06 21.69 37.07 21.67 37.07 21.65 37.07 21.63 37.07 21.6 37.07 21.58 37.06 21.56 37.06 21.54 37.05 21.52 37.05 21.5 37.04 21.48 37.03 21.47 37.02 21.26 36.9 20.73 36.59 20.71 36.58 20.7 36.57 20.69 36.56 20.68 36.55 20.67 36.54 20.66 36.52 20.66 36.51 20.66 34.8 20.66 34.81 20.66 34.83 20.67 34.84 20.68 34.85 20.69 34.86 20.7 34.87 20.71 34.88 20.73 34.89 21.26 35.2 21.47 35.32 21.48 35.33 21.5 35.34 21.52 35.35 21.54 35.35 21.56 35.36 21.58 35.37 21.6 35.37 21.63 35.37 21.65 35.37 21.67 35.37 21.69 35.37 21.71 35.37 21.73 35.36 21.75 35.35 21.77 35.35 21.79 35.34 21.81 35.33 24.68 33.67 24.69 33.67 24.7 33.65 24.72 33.65 24.73 33.63 24.73 33.62 24.74 33.61 24.74 33.59 24.74 33.58"/><path class="cls-2" d="M21,36.38l.65.37,2.82-1.59v-1L22,35.6l-.07,0-.09,0-.08,0h-.18l-.1,0-.08,0L21,35.39v1Zm.67,1h-.1l-.08,0-.07,0-.08,0-.74-.42-.09-.07-.06-.08a.16.16,0,0,1,0-.07s0-.09,0-.11V34.8a.31.31,0,0,1,.3-.31.32.32,0,0,1,.3.19l.67.37,2.85-1.61a.26.26,0,0,1,.3-.19.32.32,0,0,1,.28.33v1.79a.26.26,0,0,1,0,.08l0,.07-.08.08-.06,0L22,37.3l-.07,0-.1,0h-.15Z"/><path class="cls-4" d="M23.92,33.05l.76.44c.09,0,.09.13,0,.19l-2.87,1.65a.38.38,0,0,1-.33,0h0l-.21-.12-.53-.31c-.09,0-.09-.13,0-.19l2.86-1.65A.38.38,0,0,1,23.92,33.05Z"/><path class="cls-2" d="M24.52,33.76h0Zm-3.34,1,.44.25,2.6-1.47-.45-.26L21.18,34.8Zm.47.88a.66.66,0,0,1-.32-.08l-.76-.44a.42.42,0,0,1-.22-.36.41.41,0,0,1,.22-.36l2.87-1.66a.7.7,0,0,1,.63,0l.76.44a.42.42,0,0,1,.22.36.41.41,0,0,1-.22.36L22,35.6A.65.65,0,0,1,21.65,35.68Z"/><path class="cls-2" d="M23.71,33.81h0a.3.3,0,0,1-.3-.31c0-4.09,1.5-9.82,2-11.47a.31.31,0,0,1,.6.16A49.8,49.8,0,0,0,24,33.5a.3.3,0,0,1-.3.31Zm-1.94,1.11a.3.3,0,0,1-.31-.3,26,26,0,0,0-1.82-9.29.31.31,0,1,1,.57-.24,26.72,26.72,0,0,1,1.87,9.53A.3.3,0,0,1,21.77,34.92Z"/><path class="cls-2" d="M20.93,23.34a1.79,1.79,0,0,0-.54.94l-.17,1a.52.52,0,0,0,0,.24,1.77,1.77,0,0,0,.54-.94h0l.17-1a.46.46,0,0,0,0-.23Zm-.76,2.79a.48.48,0,0,1-.31-.1.75.75,0,0,1-.24-.82l.17-1a2,2,0,0,1,.86-1.33.62.62,0,0,1,.66,0,.75.75,0,0,1,.23.81l-.16,1A2,2,0,0,1,20.51,26,.75.75,0,0,1,20.17,26.13Z"/><path class="cls-2" d="M22.15,22.31a1.77,1.77,0,0,0-.54.94l-.27,1.67a.34.34,0,0,0,0,.23,1.74,1.74,0,0,0,.53-.94l.31.05-.31-.05.28-1.67a.46.46,0,0,0,0-.23Zm-.87,3.43a.57.57,0,0,1-.31-.1.79.79,0,0,1-.24-.82L21,23.15a1.92,1.92,0,0,1,.86-1.33.61.61,0,0,1,.65,0,.74.74,0,0,1,.24.81l-.27,1.67a2,2,0,0,1-.87,1.34A.72.72,0,0,1,21.28,25.74Z"/><path class="cls-2" d="M23.3,23.89h0Zm.07-2.59a1.81,1.81,0,0,0-.54.94l-.38,2.3a.52.52,0,0,0,0,.24,1.83,1.83,0,0,0,.54-.94l.37-2.3a.49.49,0,0,0,0-.24Zm-1,4.06a.53.53,0,0,1-.32-.1.75.75,0,0,1-.23-.81l.37-2.31a2,2,0,0,1,.87-1.33.61.61,0,0,1,.65,0,.77.77,0,0,1,.24.82l-.38,2.3h0a2,2,0,0,1-.86,1.33A.75.75,0,0,1,22.4,25.36Z"/><path class="cls-2" d="M24.49,20.87a1.73,1.73,0,0,0-.54.94l-.27,1.66a.45.45,0,0,0,0,.24,1.77,1.77,0,0,0,.54-.94h0l.28-1.67a.46.46,0,0,0,0-.23Zm-.87,3.42a.5.5,0,0,1-.31-.1.77.77,0,0,1-.24-.81l.27-1.67a2,2,0,0,1,.87-1.34.61.61,0,0,1,.65,0,.77.77,0,0,1,.24.82l-.27,1.67A1.94,1.94,0,0,1,24,24.2.72.72,0,0,1,23.62,24.29Z"/><path class="cls-2" d="M25.59,20.58a1.77,1.77,0,0,0-.54.94l-.17,1a.34.34,0,0,0,0,.23,1.74,1.74,0,0,0,.53-.94h0l.17-1a.45.45,0,0,0,0-.24Zm-.76,2.79a.51.51,0,0,1-.32-.1.77.77,0,0,1-.24-.81l.17-1a2,2,0,0,1,.87-1.33.59.59,0,0,1,.65,0,.75.75,0,0,1,.24.81L26,22a1.94,1.94,0,0,1-.87,1.33A.71.71,0,0,1,24.83,23.37Z"/><path class="cls-2" d="M22.84,8.29a.43.43,0,0,1-.43-.43V.43a.43.43,0,1,1,.86,0V7.86A.43.43,0,0,1,22.84,8.29Z"/><path class="cls-2" d="M11.74,12a.47.47,0,0,1-.31-.12L6.22,6.65A.43.43,0,0,1,6.83,6L12,11.25a.43.43,0,0,1,0,.61A.42.42,0,0,1,11.74,12Z"/><path class="cls-2" d="M7.73,23H.43a.43.43,0,1,1,0-.86h7.3a.43.43,0,0,1,0,.86Z"/><path class="cls-2" d="M34,12a.47.47,0,0,1-.31-.12.45.45,0,0,1,0-.61L38.86,6a.43.43,0,0,1,.61.61l-5.22,5.21A.42.42,0,0,1,34,12Z"/><path class="cls-2" d="M45.25,23H38a.43.43,0,0,1,0-.86h7.29a.43.43,0,1,1,0,.86Z"/></g></g></svg>