<svg xmlns="http://www.w3.org/2000/svg" viewBox="0 0 86.83 79.56"><defs><style>.cls-1{fill:#66ceef;}.cls-1,.cls-2,.cls-3,.cls-4{fill-rule:evenodd;}.cls-2{fill:#1a87c7;}.cls-3{fill:#fff;}.cls-4{fill:#bdedf8;}</style></defs><g id="Camada_2" data-name="Camada 2"><g id="_Layer_" data-name="&lt;Layer&gt;"><path class="cls-1" d="M40.17,20.44l-9.91-5.72C24,12.08,17.59,16.15,13.07,20.25c-.5.47-1.16,1.12-1.63,1.63A42.58,42.58,0,0,0,2,38.22C.09,44.54-.73,53.62,5.21,58.11l9.88,5.71c3.25,2.26,5.65,3.47,13.15-.86S46,40.92,46,32.24,43.7,22.06,40.08,20.4Z"/><path class="cls-2" d="M26.11,14.47c-3.81,0-8,2.08-12.62,6.23-.5.46-1.13,1.1-1.6,1.6a42.27,42.27,0,0,0-9.3,16.1c-1,3.24-3.65,14.2,3,19.22l9.82,5.67c3.22,2.23,5.35,3.28,12.54-.87S45.35,40.7,45.35,32.24s-2-9.66-5.51-11.28l-.16-.09L30,15.25a9.86,9.86,0,0,0-3.86-.78Zm-5.88,52c-2.14,0-3.7-.91-5.49-2.16L4.9,58.65C-2.45,53.11.36,41.48,1.41,38.05A43.49,43.49,0,0,1,11,21.45c.49-.51,1.15-1.17,1.67-1.65,6.5-5.89,12.68-7.84,17.86-5.65l10,5.75h0c3.8,1.77,6.09,3.56,6.09,12.34,0,9-10.27,26.77-18,31.25C24.8,65.64,22.27,66.48,20.23,66.48Z"/><path class="cls-1" d="M28.24,63C38,57.3,46,43.55,46,32.24S38,16.34,28.24,22,10.5,41.41,10.5,52.72,18.44,68.61,28.24,63Z"/><path class="cls-2" d="M36.16,20.18a15.51,15.51,0,0,0-7.62,2.35c-9.61,5.55-17.43,19.09-17.43,30.19,0,5.24,1.73,9.13,4.88,11s7.39,1.38,12-1.25c9.61-5.54,17.41-19.08,17.41-30.18,0-5.24-1.74-9.13-4.88-11a8.46,8.46,0,0,0-4.31-1.1ZM20.32,66a9.75,9.75,0,0,1-4.94-1.28c-3.55-2-5.49-6.31-5.49-12,0-11.49,8.08-25.51,18.05-31.26,4.93-2.85,9.59-3.29,13.15-1.24s5.49,6.32,5.49,12c0,11.49-8.07,25.51-18,31.25A16.66,16.66,0,0,1,20.32,66Z"/><path class="cls-3" d="M27.55,55c6.28-3.63,11.37-12.43,11.37-19.69s-5.09-10.18-11.37-6.56S16.18,41.15,16.18,48.4,21.28,58.58,27.55,55Z"/><path class="cls-2" d="M32.63,27.77a9.77,9.77,0,0,0-4.77,1.47c-6.1,3.52-11.07,12.12-11.07,19.16,0,3.28,1.08,5.7,3,6.82s4.58.84,7.42-.79h0c6.1-3.52,11.06-12.1,11.06-19.15,0-3.27-1.08-5.7-3-6.82a5.22,5.22,0,0,0-2.64-.68ZM22.48,57.13a6.45,6.45,0,0,1-3.27-.84c-2.35-1.35-3.65-4.15-3.65-7.89,0-7.43,5.25-16.51,11.68-20.22,3.23-1.87,6.31-2.15,8.66-.8s3.63,4.16,3.63,7.89c0,7.44-5.23,16.51-11.67,20.23A11.05,11.05,0,0,1,22.48,57.13Z"/><path class="cls-4" d="M36.89,26.72c-3-1.29-5.83-.39-8.59,1.12a26.29,26.29,0,0,0-9,9.55,28,28,0,0,0-3.6,10.26c-.38,3.77-.09,7.87,3.18,10.33l1.76,1,1.84,1.06c2.35,1.63,4.06,2.5,9.47-.62S44.69,43.57,44.69,37.31,43.06,30,40.45,28.79Z"/><path class="cls-2" d="M33.92,26.72a11.16,11.16,0,0,0-5.32,1.67,25.38,25.38,0,0,0-8.8,9.3,27.44,27.44,0,0,0-3.53,10.05c-.49,4.76.43,7.87,2.94,9.75l3.54,2C24.82,61,26.28,62,31.6,58.91s12.46-15.54,12.46-21.6-1.61-6.92-3.87-8l-3.58-2.08a7,7,0,0,0-2.69-.55ZM26.14,62.15a6.86,6.86,0,0,1-4.05-1.58l-3.56-2.06c-3.84-2.89-3.83-7.62-3.47-10.93a28.34,28.34,0,0,1,3.66-10.5A26.62,26.62,0,0,1,28,27.32c2.59-1.42,5.67-2.65,9.16-1.17l.07,0,3.56,2.06c2.8,1.3,4.54,2.57,4.54,9.06S37.84,56.73,32.23,60C29.5,61.55,27.64,62.15,26.14,62.15Z"/><path class="cls-4" d="M31.91,59.44c7.06-4.07,12.78-14,12.78-22.13S39,25.86,31.91,29.93s-12.77,14-12.77,22.14S24.85,63.52,31.91,59.44Z"/><path class="cls-2" d="M37.61,28.8a10.88,10.88,0,0,0-5.38,1.67c-6.89,4-12.48,13.66-12.48,21.6,0,3.71,1.21,6.45,3.44,7.74s5.2,1,8.41-.9h0c6.88-4,12.46-13.65,12.46-21.6,0-3.71-1.21-6.45-3.42-7.74a6,6,0,0,0-3-.77Zm-11.41,33a7.18,7.18,0,0,1-3.64-.94c-2.6-1.5-4-4.63-4-8.8,0-8.33,5.88-18.5,13.09-22.67,3.62-2.09,7-2.4,9.65-.89s4,4.63,4,8.8c0,8.33-5.86,18.5-13.07,22.66h0A12.29,12.29,0,0,1,26.2,61.81Z"/><path class="cls-3" d="M81.77,62.79a2.82,2.82,0,0,0-1.06,2.62,12,12,0,0,1-.09,2.87,2,2,0,0,1-.71,1.33L66.45,77.72c-3.93,2.26-9.54,1.16-15.62-1.45C40,71.63,30.68,63.57,24,59.72c-2.9-2.18-3.32-5.67-3.09-9.06a27.38,27.38,0,0,1,6.29-14.53c6.09-7.11,9.53-4.35,13.4-13.43,1.45-3.37,3.06-10.06,4.26-13.26.09-.24.21-.24.38,0,.49-1.25,1.36-4,1.81-5.05.75-1.73,1.86-3.27,3.22-3.61s4.5-.11,6.08,2.17c1,1.52,0,8.89-.22,11,0,.59-.33,1.94-.65,3.37-.75,3.58-1.07,4.69-.36,8.35.48,2.41,1.32,5,2.41,5.79l0-3.55a.67.67,0,0,1,.52-.63c8.21-2.5,11-2.89,19.33,2.45C80.17,31.44,85,34.54,86,37.94a10.3,10.3,0,0,1-.18,5.2c-.51,2.34-.18,2.8.23,5A9.46,9.46,0,0,1,85.73,53c-.76,1.62-1.27,1.56-1.13,3.65a9,9,0,0,1,0,3.93,2.19,2.19,0,0,1-.78,1Z"/><path class="cls-2" d="M45.33,10c-.48,1.37-1,3.27-1.63,5.26C42.86,18.09,42,21,41.2,22.94c-2.35,5.49-4.59,6.84-7.2,8.4a22.29,22.29,0,0,0-6.31,5.2,26.91,26.91,0,0,0-6.15,14.18c-.26,4.19.61,6.82,2.85,8.52,2.26,1.29,4.93,3.17,7.79,5.15,5.56,3.89,11.88,8.3,18.87,11.31,6.82,2.93,11.75,3.41,15.11,1.48l13.44-8.1a1.53,1.53,0,0,0,.43-.94,11.06,11.06,0,0,0,.09-2.31l0-.4a3.47,3.47,0,0,1,1.29-3.13l0,0,2-1.23A1.47,1.47,0,0,0,84,60.3a6.49,6.49,0,0,0,0-2.85L84,56.7a4,4,0,0,1,.66-3c.15-.26.33-.56.54-1a8.9,8.9,0,0,0,.22-4.51c-.07-.38-.13-.72-.21-1a7.92,7.92,0,0,1,0-4.19,9.91,9.91,0,0,0,.19-4.91c-.87-3.07-5.34-6-8-7.76l-.26-.16c-8.15-5.27-10.81-4.8-18.8-2.38l-.13,3.59a.62.62,0,0,1-.32.55.63.63,0,0,1-.65-.06c-1.46-1.05-2.27-4.31-2.66-6.16a15.78,15.78,0,0,1,.22-7.91l.17-.68c.24-1.22.57-2.73.6-3.3,0-.34.09-.83.16-1.4.26-2.42.88-8.1.17-9.19-1.37-2-4.4-2.16-5.4-1.9s-2,1.43-2.8,3.25c-.26.59-.66,1.76-1,2.9-.3.82-.56,1.61-.77,2.13a.6.6,0,0,1-.46.38ZM61.38,79.56q-4.46,0-10.8-2.73c-7.12-3.06-13.49-7.51-19.1-11.43-2.83-2-5.49-3.83-7.77-5.14-3.45-2.59-3.58-6.74-3.41-9.64a28.28,28.28,0,0,1,6.44-14.87,23.26,23.26,0,0,1,6.62-5.46c2.52-1.52,4.52-2.72,6.71-7.83.78-1.86,1.63-4.75,2.45-7.54.64-2.2,1.25-4.27,1.79-5.7a.78.78,0,0,1,.57-.55c.16-.46.35-1,.56-1.59.38-1.16.8-2.35,1.08-3,.68-1.56,1.84-3.51,3.61-4,1.52-.37,5-.06,6.75,2.42.88,1.36.48,5.69,0,10-.06.56-.11,1-.15,1.38,0,.59-.29,1.8-.64,3.44l-.14.69c-.64,3-.88,4.12-.22,7.41a18.54,18.54,0,0,0,1.19,4l0-1.65a1.31,1.31,0,0,1,1-1.21c8.24-2.5,11.25-3,19.85,2.52l.26.18c2.82,1.84,7.55,4.94,8.52,8.46a11,11,0,0,1-.17,5.52,6.52,6.52,0,0,0,0,3.63c.08.32.14.66.23,1.07a9.92,9.92,0,0,1-.33,5.23,9.72,9.72,0,0,1-.61,1.13,3,3,0,0,0-.47,2.25c0,.22.06.46.09.7a7.52,7.52,0,0,1-.12,3.45,3,3,0,0,1-1,1.3l-2,1.25c-.68.52-.77,1.08-.78,2.13v.35a11.54,11.54,0,0,1-.11,2.61,2.64,2.64,0,0,1-.92,1.7L66.77,78.25A10.63,10.63,0,0,1,61.38,79.56Z"/><path class="cls-1" d="M57.59,27.83c-.11,1.61.61,2.58,4.24,2.65l2.09-.2a7.32,7.32,0,0,1,5.66,1.47l2.28,1.38a1.57,1.57,0,0,1,.78,1.55A1.59,1.59,0,0,1,71.58,36l-1.63.6c-2.77,1-8.38-1.77-9.87-3.07l-2.53-2.19Z"/><path class="cls-2" d="M58.16,31.1l2.32,2c1.53,1.33,6.88,3.84,9.26,3l1.63-.59a1,1,0,0,0,.66-.86,1,1,0,0,0-.48-1L68.85,32A6.32,6.32,0,0,0,64,30.89l-2.09.2a7.65,7.65,0,0,1-3.72-.71l0,.72Zm10.38,6.37c-3.23,0-7.63-2.36-8.88-3.44l-2.51-2.19a.65.65,0,0,1-.22-.47l0-3.05a3.12,3.12,0,0,1,0-.53.58.58,0,0,1,.64-.57.61.61,0,0,1,.59.61v.44a1.24,1.24,0,0,0,.29.8c.44.49,1.59.76,3.36.8l2-.21A7.57,7.57,0,0,1,69.5,31l2.68,1.62a2.24,2.24,0,0,1-.39,4l-1.63.6A4.59,4.59,0,0,1,68.54,37.47Z"/><path class="cls-3" d="M45.26,9.39c.09-1.15,1.27-6,2.93-7.93.49-.58,1.58.89,1.3,1.72L47.94,7.81c-.54,1.64-1,3.08-2.28,2C45.41,9.61,45.53,9.68,45.26,9.39Z"/><path class="cls-2" d="M45.91,9.2a.18.18,0,0,0,.05.07c.33.29.44.3.47.31.31-.09.73-1.35.94-2L48.92,3a1.34,1.34,0,0,0-.41-1c-1.33,1.78-2.41,5.75-2.6,7.17Zm.52,1.61a1.81,1.81,0,0,1-1.17-.5A1.71,1.71,0,0,1,45,10l-.14-.17a.53.53,0,0,1-.15-.45c.09-1.25,1.3-6.18,3.06-8.28A1,1,0,0,1,49,.87a2.38,2.38,0,0,1,1.08,2.5L48.53,8c-.43,1.28-.83,2.5-1.77,2.76A1.29,1.29,0,0,1,46.43,10.81Z"/><path class="cls-2" d="M66.11,37.1a.63.63,0,0,1-.63-.62V30.27a.62.62,0,1,1,1.24,0v6.21A.62.62,0,0,1,66.11,37.1Z"/><path class="cls-2" d="M70.87,53.78a.63.63,0,0,1-.54-.31.61.61,0,0,1,.23-.84l14.56-8.41a.64.64,0,0,1,.86.22.63.63,0,0,1-.23.85L71.16,53.7A.47.47,0,0,1,70.87,53.78Z"/><path class="cls-2" d="M70,62.8a.62.62,0,0,1-.31-1.15l15.69-9.06a.62.62,0,1,1,.61,1.07l-15.7,9.06A.57.57,0,0,1,70,62.8Z"/><path class="cls-2" d="M65.9,72.55a.58.58,0,0,1-.52-.31.6.6,0,0,1,.23-.84l15.67-9.06a.61.61,0,0,1,.84.23.6.6,0,0,1-.23.84l-15.68,9A.61.61,0,0,1,65.9,72.55Z"/></g></g></svg>