<svg xmlns="http://www.w3.org/2000/svg" viewBox="0 0 60.15 81.56"><defs><style>.cls-1{fill:#66ceef;}.cls-1,.cls-2,.cls-3{fill-rule:evenodd;}.cls-2{fill:#1a87c7;}.cls-3{fill:#fff;}</style></defs><g id="Camada_2" data-name="Camada 2"><g id="_Layer_" data-name="&lt;Layer&gt;"><path class="cls-1" d="M47.74.83C40.64-1,23.77,10,17.89,14.13c-16.81,11.94-18,25-17,46.09.71,15,2.5,14.55,11.91,20-4-2.63-4.45-8.68-4.82-13-1.07-13.31-1-30.7,7.93-41.24C21.76,19,47.93,1.4,55.32,5.12L47.74.83ZM32,36.33h0c0-2.5.5-6.14-1.13-8.26,8,4.63,8.65,2.67,8,15-.14,2.43-.42,4.53-2.12,6.37l3.56,2.3c1.67-2.21,2.84-2.63,5.79-2.28l7.2,4.07c-.44-.17-3.6-.75-5.37,1.32-4.29,5-3.06,4.44-9.88,8.48-4.13,2.44-16.16,10.57-20.68,8.35l-6.9-4c5,2.07,18-6.63,22.54-9.48,3.55-2.2,4.68-3,7.09-6.19l-3.73-2.16c-1.2,1.31-5.49,4.16-7.1,3.58l-6.91-4c2.08.37,8.79-2.78,9.47-8.85l.21-4.3ZM48,43l-6.9-4c6.24.26,5.15-16.6,5-20.48,0,0-6.39,2.45-7.07,5.09l-.18,1.55c-4.14-2.14-16.72,4-18.47,18.59-.56,4.63-1.31,15.59,2.43,18.89-8.21-4.73-10.07-3.89-9.7-17.9.29-10.39,3.27-18.9,13.49-23.28,1.88-.8,3.54-1.22,5.35-.29.11-3.38,1.73-3.9,6.57-6.41,1.38-.72,4.23,1.64,7.56,3.57-.12-2.54-.08-7.85-2.48-9.31C52.08,14,53.18,11.87,53,27.84c0,4,.35,15.38-5,15.15Z"/><path class="cls-2" d="M32,36.33h0Zm10.73,3,5.37,3.1a2.53,2.53,0,0,0,1.79-.73c2.43-2.33,2.45-9.41,2.45-12.82l0-1c.13-13.32-.44-13.62-5.93-16.51l-.82-.42a22.78,22.78,0,0,1,1,6.63l0,.77a.18.18,0,0,1,0,.1.13.13,0,0,1,0,.09l0,.49c.33,6.81.42,16.23-2.81,19.49a4.07,4.07,0,0,1-1.09.8ZM24.27,49.87l5.3,3.06c1.06.36,5-2,6.33-3.46a.57.57,0,0,1,.26-.16.52.52,0,0,1,.14-.25c1.58-1.72,1.82-3.74,2-6,.57-10.07.38-10.17-4.44-12.71l-1.49-.79a17.69,17.69,0,0,1,.36,5.32c0,.5,0,1,0,1.45v0l-.2,4.31A10.61,10.61,0,0,1,28,47.94a12.37,12.37,0,0,1-3.74,1.93Zm5.47-28.6a7.7,7.7,0,0,0-3,.77C18,25.78,14,32.79,13.66,44.77s.89,12.67,6.77,15.88l.31.17c-2.26-5-1.42-14.08-1-17.13C21.09,32,28.89,27,31.24,25.74c2.62-1.39,5.22-1.9,7-1.42l.09-.77c.57-2.27,4.48-4.32,6.5-5.19-.57-.34-1.11-.69-1.63-1-1.86-1.17-3.78-2.4-4.49-2l-1.15.59c-3.94,2-5,2.56-5.07,5.3a.62.62,0,0,1-.31.51.61.61,0,0,1-.6,0,4,4,0,0,0-1.86-.46ZM13.21,68.6c5.5-.58,13.84-5.86,18.72-8.95l1.41-.89c3.55-2.21,4.8-3.06,7.25-6.34a.6.6,0,0,0,.09-.15l.14-.13c1.47-2,2.4-2.35,5.09-2l4.8,2.71a5.07,5.07,0,0,0-3.25,1.67c-.8.93-1.41,1.66-1.9,2.27-2.19,2.63-2.36,2.85-7.82,6.09-.52.3-1.16.7-1.89,1.15-4.73,2.91-14.54,9-18.17,7.2L13.21,68.6Zm6.09,4.11a4.84,4.84,0,0,1-2.19-.45l-6.94-4a.6.6,0,0,1-.26-.8.64.64,0,0,1,.8-.3c4.26,1.76,15.68-5.46,20.56-8.54l1.43-.9c3.32-2.06,4.43-2.81,6.48-5.48l-2.72-1.57C35,52,30.93,54.74,29.07,54l-7-4a.6.6,0,0,1-.27-.74.62.62,0,0,1,.69-.4A8.31,8.31,0,0,0,27.28,47a9.55,9.55,0,0,0,3.94-6.4l.2-4.25c0-.46,0-1,0-1.48.09-2.26.17-4.83-1-6.38a.61.61,0,0,1,0-.78s.05-.05.07-.08a21.92,21.92,0,0,0-9.61,16.25C20,51,20.19,59.58,23.14,62.19a.62.62,0,0,1,.1.82.64.64,0,0,1-.82.18c-.93-.55-1.8-1-2.6-1.45-6.38-3.5-7.72-4.67-7.39-17C12.76,32.21,17,24.87,26.29,20.91c1.8-.77,3.39-1.17,5.05-.63.35-2.74,2.06-3.61,5.69-5.47l1.15-.59c1.32-.69,3.25.54,5.7,2.08l1.47.93c-.1-2.46-.34-6.57-2.13-7.67A.6.6,0,0,1,43,8.72a.62.62,0,0,1,.83-.22c1.22.7,2.26,1.26,3.2,1.74,6,3.14,6.73,4.06,6.59,17.61l0,1c0,3.86,0,11-2.83,13.71A3.77,3.77,0,0,1,48,43.61a.74.74,0,0,1-.3-.08l-6.9-4a.62.62,0,0,1,.33-1.15A2.4,2.4,0,0,0,43,37.61c2.11-2.13,2.94-8.24,2.47-18.18-2,.85-5.48,2.69-5.91,4.34l-.14,1.46a.65.65,0,0,1-.33.48.61.61,0,0,1-.57,0c-1.41-.73-4-.3-6.7,1.11-.29.16-.71.39-1.18.7a.65.65,0,0,1,.59,0c1.22.7,2.26,1.25,3.17,1.72,5.3,2.8,5.7,3.26,5.09,13.87-.12,2.19-.37,4.32-1.81,6.21L40.17,51c1.62-2,3-2.42,6-2.07a.61.61,0,0,1,.24.07L53.6,53a.63.63,0,0,1,.25.8.61.61,0,0,1-.78.31c-.34-.13-3.16-.61-4.69,1.15-.78.91-1.38,1.64-1.88,2.24-2.24,2.73-2.48,3-8.13,6.36L36.49,65c-6.15,3.79-12.88,7.68-17.19,7.68ZM45.93,1.23C39,1.23,25.59,9.4,18.24,14.63,1.2,26.74.54,39.92,1.5,60.19,2.09,72.9,3.3,74.13,9.72,77.75c-1.76-3-2.09-7.11-2.35-10.31l0-.24c-1-12.62-1.3-30.66,8.07-41.69C20.27,19.8,41.63,4.63,52.1,4L47.51,1.4a6.54,6.54,0,0,0-1.58-.17ZM12.78,80.8a.51.51,0,0,1-.31-.08c-.87-.5-1.69-1-2.44-1.37C2.68,75.22.92,74.23.27,60.25-.68,40.16,0,26.07,17.52,13.62,21.19,11,39.93-1.89,47.9.23l.15.06,7.56,4.29A.62.62,0,0,1,55,5.67c-6.92-3.49-32.87,13.8-38.68,20.64C7.29,37,7.56,54.7,8.59,67.1l0,.24c.33,4.18.8,9.91,4.5,12.33a.61.61,0,0,1-.33,1.13Z"/><path class="cls-3" d="M38.94,36.72c0-4.72-1.11-6.43-5.6-3.84a15.86,15.86,0,0,0-3,2.17C28.13,37.23,28,40.54,28,43.5v4.17c0,1,0,1.84.09,2.56.24,3.73,1.41,4.17,4.83,2.19a20.28,20.28,0,0,0,2.56-1.71c2.68-2.13,3.2-4,3.41-7.27.06-.91.1-2,.1-3.13V36.72Zm8.09-17v19.2c.1,1.79-.3,5.35,2.48,3.74,2.4-1.39,2.78-4,3.08-6.45.55-4.83.88-19.19-1.06-22.18-.84-1.28-2.06-1.43-3.48-1.17-4.89.87-23.16,11.32-28.35,16.8a16.43,16.43,0,0,0-3.81,6.21C14,41.49,13.46,63,15.25,68.61c1,3.09,2.71,4.06,5.89,3.34,4.8-1.06,19.94-9.78,23.92-13.45,1.15-1.07,3.3-4.88,4.54-4.92l3.25-.11a.82.82,0,0,1,.88.69c.77,2.67-4.9,8.74-6.48,10.13-5.53,4.86-16.36,11.19-23,14.23-2.62,1.21-6.34,2.73-9.33,2.37-4.43-.54-5.79-5.18-6.41-9a98.14,98.14,0,0,1-.91-15.53c0-7.1.47-15.09,3.1-21.85a29.68,29.68,0,0,1,6.13-9.76,39.86,39.86,0,0,1,4.4-4.05,114.67,114.67,0,0,1,25.82-15c2.19-.85,5.23-1.74,7.56-.9A4.88,4.88,0,0,1,57,6.65c1.58,2.23,2,6.08,2.22,8.68.51,6.33.51,16-.9,22.29a21.11,21.11,0,0,1-2.55,6.55A17.15,17.15,0,0,1,51.34,49a28.91,28.91,0,0,1-3,2c-1.79,1-5.87,3.3-7.65,1.28a3.23,3.23,0,0,1-.52-.81c-.25.57-.49,1.1-.76,1.62A20.68,20.68,0,0,1,31,61.1c-6.59,3.81-10.19,3.11-10.9-5.45-.45-5.37-.28-13.57,1.67-18.46A19.59,19.59,0,0,1,27,29.7c2.32-2.09,8.72-6.64,11.83-4.53a3.72,3.72,0,0,1,1.67-3.58l4.9-2.84c.93-.52,1.68-.1,1.68,1Z"/><path class="cls-2" d="M36.65,32.29a6.81,6.81,0,0,0-3,1.12,14.62,14.62,0,0,0-2.85,2.08c-2.05,2-2.21,5.06-2.21,8v4.17c0,1,0,1.8.07,2.52.1,1.55.38,2.45.82,2.69s1.49-.06,3.11-1a23.47,23.47,0,0,0,2.47-1.66c2.48-2,3-3.64,3.18-6.82.07-.94.08-2,.08-3.1V36.72c0-2.48-.32-3.88-1-4.28a1.24,1.24,0,0,0-.64-.15ZM29.87,54.2a2.11,2.11,0,0,1-1-.23c-.88-.48-1.32-1.58-1.48-3.69,0-.74-.07-1.61-.07-2.61V43.5c0-3.08.2-6.55,2.6-8.89A15.17,15.17,0,0,1,33,32.35c2.24-1.29,3.79-1.6,4.88-1,1.45.83,1.64,3.17,1.64,5.34v3.59c0,1.15,0,2.22-.09,3.18-.22,3.43-.83,5.46-3.65,7.7A20.88,20.88,0,0,1,33.19,53a7.29,7.29,0,0,1-3.32,1.25ZM52.52,5.09a5.67,5.67,0,0,1,1.91.3A4.32,4.32,0,0,1,56.5,7c1.42,2,1.88,5.53,2.1,8.37.54,6.64.47,16-.88,22.11a20.55,20.55,0,0,1-2.47,6.36A16.66,16.66,0,0,1,51,48.47a28.66,28.66,0,0,1-3,2c-3.56,2.06-5.88,2.53-6.88,1.41a3.3,3.3,0,0,1-.41-.68.59.59,0,0,0-.58-.34.62.62,0,0,0-.56.38q-.33.81-.72,1.56a20.14,20.14,0,0,1-8.11,7.81c-3.47,2-5.8,2.57-7.31,1.78s-2.37-3-2.68-6.74c-.47-5.82-.15-13.7,1.64-18.19a19,19,0,0,1,5-7.25c2.49-2.24,8.47-6.27,11.1-4.49a.61.61,0,0,0,.64,0,.59.59,0,0,0,.33-.54c0-1.59.4-2.5,1.34-3.05l4.92-2.84c.28-.16.46-.16.55-.11s.18.22.18.54V38.94c0,.24,0,.53,0,.82,0,1.46.06,3.11,1.11,3.71a2.21,2.21,0,0,0,2.28-.29c2.77-1.6,3.12-4.67,3.37-6.92.47-4.12,1.05-19.22-1.14-22.57A3.68,3.68,0,0,0,48,12.24c-5.1.91-23.38,11.39-28.71,17a17.12,17.12,0,0,0-3.93,6.43c-2,5.84-2.44,27.52-.64,33.13,1.08,3.39,3.12,4.55,6.61,3.76,5-1.11,20.15-9.87,24.19-13.6a16,16,0,0,0,1.61-2c.66-.9,2-2.75,2.53-2.78l3.25-.12c.11,0,.21,0,.28.25.59,2.07-4.2,7.67-6.29,9.5-5.34,4.69-16,11-22.83,14.13-2.51,1.16-6.17,2.66-9,2.32-4.12-.5-5.34-5-5.89-8.44a98.38,98.38,0,0,1-.89-15.43c0-6.42.35-14.67,3-21.63a29.13,29.13,0,0,1,6-9.56,38.42,38.42,0,0,1,4.33-4A112.28,112.28,0,0,1,47.3,6.29a14.77,14.77,0,0,1,5.22-1.2ZM15.89,81.56a8.54,8.54,0,0,1-1,0c-4.92-.61-6.33-5.69-7-9.46A99,99,0,0,1,7,56.41c0-6.52.35-14.93,3.13-22.08a30.33,30.33,0,0,1,6.26-9.94,38.43,38.43,0,0,1,4.47-4.12,114.67,114.67,0,0,1,26-15.14c3.39-1.32,6-1.62,8-.9A5.45,5.45,0,0,1,57.49,6.3c1.61,2.25,2.1,6,2.35,9,.54,6.73.46,16.3-.92,22.47a22.21,22.21,0,0,1-2.61,6.75,18.34,18.34,0,0,1-4.61,5,26.41,26.41,0,0,1-3.1,2c-1.68,1-6.18,3.59-8.35,1.21-.11.22-.21.43-.34.64-1.7,3.24-4.52,5.95-8.57,8.3-3.88,2.23-6.57,2.81-8.5,1.8s-3-3.46-3.32-7.74C19.05,50.19,19.23,42,21.22,37a20.28,20.28,0,0,1,5.31-7.71c.09-.08,7.28-6.49,11.7-5a3.87,3.87,0,0,1,1.91-3.15l4.92-2.84a1.73,1.73,0,0,1,1.77-.12,1.8,1.8,0,0,1,.8,1.61v19.2c0,.22,0,.51,0,.83,0,.84,0,2.41.48,2.66.18.1.58,0,1.06-.29,2.06-1.19,2.45-3.32,2.75-6,.57-5,.82-19-.94-21.76-.59-.9-1.42-1.17-2.85-.9-4.83.85-23,11.27-28,16.61a16,16,0,0,0-3.67,6c-1.93,5.56-2.35,27-.64,32.37C16.72,71.2,18.13,72,21,71.35,25.76,70.29,40.76,61.6,44.64,58a15.12,15.12,0,0,0,1.45-1.8c1.44-2,2.47-3.24,3.47-3.27l3.27-.12A1.41,1.41,0,0,1,54.33,54c.92,3.21-5.47,9.71-6.66,10.77C42.24,69.52,31.43,75.9,24.55,79.09,22,80.26,18.76,81.56,15.89,81.56Z"/></g></g></svg>