<svg xmlns="http://www.w3.org/2000/svg" viewBox="0 0 38.24 41.88"><defs><style>.cls-1{fill:#bdedf8;}.cls-1,.cls-2,.cls-3,.cls-4{fill-rule:evenodd;}.cls-2{fill:#1a87c7;}.cls-3{fill:#66ceef;}.cls-4{fill:#fff;}</style></defs><g id="Camada_2" data-name="Camada 2"><g id="_Layer_" data-name="&lt;Layer&gt;"><path class="cls-1" d="M8.9,41.08,1.21,36.6C-.63,34.82.75,30.92,2.1,29,3.28,27.28,6,24.85,8,26.22l7.7,4.47C13.42,29,10.38,32,9.19,34.09,8.11,36,7.05,39.43,8.9,41.08Z"/><path class="cls-2" d="M6.69,26.13c-1.67,0-3.54,1.87-4.33,3-1.42,2.05-2.53,5.7-.93,7.24l6.44,3.74c-.81-2,.23-4.77,1-6.18,1-1.66,2.83-3.62,4.67-4l.15,0-5.9-3.43a2,2,0,0,0-1.15-.36ZM8.9,41.39a.53.53,0,0,1-.16,0L1.05,36.86c-2-1.92-.73-5.87.8-8.07C3.16,26.91,6,24.49,8.17,26l7.1,4.12a2.72,2.72,0,0,1,.61.36.3.3,0,0,1,.07.41.31.31,0,0,1-.41.1L15,30.65a2.24,2.24,0,0,0-1.29-.1c-1.59.32-3.35,2.1-4.27,3.69-1,1.84-2,5.11-.34,6.61a.32.32,0,0,1,0,.41A.29.29,0,0,1,8.9,41.39Z"/><path class="cls-3" d="M33,28.4,25.33,24c-.42-.41-.34-1.44-.41-2.09-.44-4.44-2-9.11-5.61-12l-.73-.54,7.57,4.37c3.69,2.42,5.57,7.07,6.18,11.29l.34,3Z"/><path class="cls-2" d="M25.52,23.71l6.81,3.95L32,25C31.69,22.68,30.41,16.87,26,14l-4.91-2.83c2.85,3.21,3.85,7.48,4.17,10.71,0,.16,0,.33,0,.52a2.77,2.77,0,0,0,.26,1.36Zm7.47,5a.38.38,0,0,1-.16,0l-7.66-4.45-.06,0a2.79,2.79,0,0,1-.47-1.8c0-.17,0-.33,0-.48-.36-3.65-1.61-8.66-5.51-11.78l-.71-.53a.33.33,0,0,1-.08-.42.3.3,0,0,1,.41-.09l7.57,4.36c4.65,3.06,6,9.07,6.34,11.52L33,27.87l.25.35a.3.3,0,0,1,0,.39A.32.32,0,0,1,33,28.71Z"/><path class="cls-1" d="M8.32,25.05c-.9-.52-7.51-4.24-7.75-4.54a1.45,1.45,0,0,1-.24-.84,17.14,17.14,0,0,1,.11-3.19c.49-1.83,1.82-2.31,3.49-2.93,3.8-1.43,8.15-1.73,11.65.65l.58.44L23.72,19a10.71,10.71,0,0,0-7.84-2.13,18.65,18.65,0,0,0-6.24,1.84,3.51,3.51,0,0,0-1.75,2.85,22.22,22.22,0,0,0,.07,3Z"/><path class="cls-2" d="M9.6,12.76A16.42,16.42,0,0,0,4,13.83c-1.68.63-2.86,1.07-3.31,2.73A14.5,14.5,0,0,0,.64,19.4v.27a1,1,0,0,0,.18.65c.31.29,4.93,2.91,6.66,3.9l.13.07a22.84,22.84,0,0,1,0-2.46v-.27A3.79,3.79,0,0,1,9.5,18.43a19.08,19.08,0,0,1,6.34-1.87,12.24,12.24,0,0,1,3.16.07L16,14.9l-.62-.45A10.07,10.07,0,0,0,9.6,12.76ZM8.32,25.36a.28.28,0,0,1-.16-.05l-1-.56C1.62,21.59.48,20.89.33,20.7a1.69,1.69,0,0,1-.3-1v-.27a14.79,14.79,0,0,1,.12-3c.53-2,2-2.49,3.64-3.12,4.58-1.71,8.82-1.47,12,.68l.59.44,5.09,2.93a11.77,11.77,0,0,1,2.47,1.43.31.31,0,0,1-.33.52l-2.4-1.39a10.6,10.6,0,0,0-5.26-.71A18.64,18.64,0,0,0,9.78,19,3.18,3.18,0,0,0,8.2,21.57v.27a21.09,21.09,0,0,0,.05,2.55l.32.49a.3.3,0,0,1,0,.38A.32.32,0,0,1,8.32,25.36Z"/><path class="cls-3" d="M23.57,33.86c-.89-.52-7.5-4.24-7.73-4.53a6.11,6.11,0,0,1-.43-2.13A10,10,0,0,0,12.06,21l7.56,4.37a9.52,9.52,0,0,1,3.05,4.89c.34,1.23.45,3,.66,3.36Z"/><path class="cls-2" d="M13.74,22.29a11.14,11.14,0,0,1,2,4.85c0,.23.06.48.08.73a3.31,3.31,0,0,0,.28,1.26c.3.29,4.92,2.91,6.66,3.9l.14.08c-.05-.22-.09-.49-.13-.82a17.34,17.34,0,0,0-.38-2,9.24,9.24,0,0,0-2.93-4.73l-5.7-3.29Zm9.83,11.88a.42.42,0,0,1-.15,0l-1-.57c-5.56-3.16-6.69-3.86-6.84-4a3.51,3.51,0,0,1-.4-1.58c0-.24,0-.48-.08-.69a9.63,9.63,0,0,0-3.25-6.05.3.3,0,0,1-.06-.41.31.31,0,0,1,.41-.09l7.56,4.36A9.89,9.89,0,0,1,23,30.14a19.72,19.72,0,0,1,.39,2.06,6.41,6.41,0,0,0,.23,1.23l.21.22a.32.32,0,0,1,0,.4A.3.3,0,0,1,23.57,34.17Z"/><path class="cls-1" d="M8.34,14.17C7.45,13.66.82,9.92.59,9.64a1.38,1.38,0,0,1-.26-.85,17.89,17.89,0,0,1,.1-3.18c.47-1.72,1.63-2.18,3-2.82C9.12.2,16-1,21.61,2.3l.92.59L30.1,7.25a15.13,15.13,0,0,0-7.34-2.53A25.31,25.31,0,0,0,9.6,7.85a3.52,3.52,0,0,0-1.71,2.83,22.22,22.22,0,0,0,.07,3Z"/><path class="cls-2" d="M13.83.62A25.51,25.51,0,0,0,3.58,3.07l-.18.08c-1.27.58-2.27,1-2.67,2.54A14.77,14.77,0,0,0,.64,8.54v.24a1,1,0,0,0,.19.67c.3.27,4.92,2.9,6.66,3.89l.12.07a22.75,22.75,0,0,1,0-2.45v-.28a3.79,3.79,0,0,1,1.86-3.1A25.41,25.41,0,0,1,22.78,4.42a15.31,15.31,0,0,1,2.42.36L22.38,3.15l-.94-.59A15,15,0,0,0,13.83.62ZM8.34,14.48a.32.32,0,0,1-.16,0l-1-.57C1.63,10.71.5,10,.35,9.84A1.66,1.66,0,0,1,0,8.79V8.56a15.61,15.61,0,0,1,.11-3c.49-1.78,1.71-2.34,3-2.94l.17-.08C7.34.67,15.06-1.83,21.76,2l.94.59,6,3.48c.5.26,1,.55,1.53.88a.31.31,0,0,1-.32.53l-1.49-.86A14.28,14.28,0,0,0,22.73,5a24.85,24.85,0,0,0-13,3.09A3.22,3.22,0,0,0,8.2,10.69V11a20.76,20.76,0,0,0,.05,2.53l.34.49a.3.3,0,0,1,0,.38A.3.3,0,0,1,8.34,14.48Z"/><path class="cls-4" d="M23.16,33c.08.92.77,1.24,1.6.76l2.14-1.23a3.17,3.17,0,0,0,1.18-1.29,3.07,3.07,0,0,0,.43-1.65c-.84-11.1-8.84-15.72-18.87-10.89A3,3,0,0,0,8.41,19.9a3.34,3.34,0,0,0-.52,1.66V24c0,1,.64,1.39,1.46,1,7.3-3.42,13.12-.06,13.81,8Zm9.43-5.5C31.83,13.56,21.86,7.81,9.4,14.13c-.84.43-1.51,0-1.51-1V10.68A3.26,3.26,0,0,1,8.4,9,3.17,3.17,0,0,1,9.6,7.85C24.86,0,37.08,7.08,37.93,24.21a3,3,0,0,1-.43,1.63,3.21,3.21,0,0,1-1.18,1.26l-2.14,1.23c-.85.49-1.54.13-1.59-.82Z"/><path class="cls-2" d="M32.89,27.5a.78.78,0,0,0,.32.68.88.88,0,0,0,.83-.12l2.13-1.23a3.22,3.22,0,0,0,1.46-2.6C37.22,16.05,34.16,9.91,29,6.94S17,4.38,9.73,8.12A2.75,2.75,0,0,0,8.67,9.2a2.88,2.88,0,0,0-.47,1.48v2.47a.89.89,0,0,0,.31.77.81.81,0,0,0,.76-.06c6.12-3.11,11.9-3.43,16.27-.91s7,7.69,7.35,14.55Zm.57,1.36a1.19,1.19,0,0,1-.53-.13,1.38,1.38,0,0,1-.66-1.2h0c-.35-6.64-2.86-11.63-7-14s-9.76-2.09-15.69.91a1.34,1.34,0,0,1-1.35,0,1.43,1.43,0,0,1-.6-1.29V10.68a3.48,3.48,0,0,1,.55-1.8A3.43,3.43,0,0,1,9.45,7.57C16.93,3.74,24,3.32,29.32,6.4s8.51,9.4,8.92,17.79a3.37,3.37,0,0,1-.47,1.8,3.57,3.57,0,0,1-1.29,1.37L34.34,28.6a1.81,1.81,0,0,1-.88.26ZM14.75,23.41a13.18,13.18,0,0,0-5.53,1.35.75.75,0,0,1-.72,0A.86.86,0,0,1,8.2,24V21.56a2.84,2.84,0,0,1,.48-1.5A2.74,2.74,0,0,1,9.77,19c4.76-2.29,9.23-2.48,12.6-.53s5.43,5.91,5.83,11.17a2.7,2.7,0,0,1-.39,1.48,2.77,2.77,0,0,1-1.06,1.17l-2.14,1.24a.88.88,0,0,1-.82.12.74.74,0,0,1-.32-.64h0c-.35-4-2-7-4.58-8.52a8.15,8.15,0,0,0-4.14-1.06ZM24,34.3a1.18,1.18,0,0,1-.53-.12A1.33,1.33,0,0,1,22.85,33h0c-.32-3.78-1.84-6.64-4.27-8s-5.65-1.29-9.1.32a1.33,1.33,0,0,1-1.31,0A1.45,1.45,0,0,1,7.59,24V21.56a3.51,3.51,0,0,1,.56-1.82,3.32,3.32,0,0,1,1.36-1.31c4.93-2.38,9.62-2.56,13.17-.51s5.72,6.18,6.13,11.66a3.27,3.27,0,0,1-.45,1.82,3.54,3.54,0,0,1-1.3,1.4L24.91,34A1.77,1.77,0,0,1,24,34.3Z"/><path class="cls-4" d="M12.3,30.81c2.43-1.41,4.4-.27,4.4,2.54A9.73,9.73,0,0,1,12.3,41c-2.43,1.4-4.41.27-4.41-2.54A9.72,9.72,0,0,1,12.3,30.81Z"/><path class="cls-2" d="M14.26,30.51a3.7,3.7,0,0,0-1.8.56A9.39,9.39,0,0,0,8.2,38.43,2.79,2.79,0,0,0,9.34,41a2.81,2.81,0,0,0,2.8-.31,9.37,9.37,0,0,0,4.25-7.35,2.8,2.8,0,0,0-1.14-2.59,1.92,1.92,0,0,0-1-.25ZM10.33,41.88A2.62,2.62,0,0,1,9,41.55a3.39,3.39,0,0,1-1.44-3.12,10.08,10.08,0,0,1,4.55-7.89,3.38,3.38,0,0,1,3.43-.31A3.38,3.38,0,0,1,17,33.35a10.11,10.11,0,0,1-4.55,7.89A4.32,4.32,0,0,1,10.33,41.88Z"/></g></g></svg>