<svg xmlns="http://www.w3.org/2000/svg" viewBox="0 0 34.24 43.59"><defs><style>.cls-1{fill:#66ceef;}.cls-1,.cls-2,.cls-3,.cls-4{fill-rule:evenodd;}.cls-2{fill:#1a87c7;}.cls-3{fill:#fff;}.cls-4{fill:#bdedf8;}</style></defs><g id="Camada_2" data-name="Camada 2"><g id="_Layer_" data-name="&lt;Layer&gt;"><path class="cls-1" d="M2,43.14.89,42.52a1.57,1.57,0,0,1-.6-1.32l0-20.65A4.49,4.49,0,0,1,2.36,17L30.84.58A1.46,1.46,0,0,1,32.28.44l1.07.62a1.48,1.48,0,0,0-1.44.14L3.43,17.62a4.52,4.52,0,0,0-2,3.55l0,20.65A1.58,1.58,0,0,0,2,43.14Z"/><path class="cls-2" d="M31.7.61A1.79,1.79,0,0,0,31,.86L2.52,17.27A4.2,4.2,0,0,0,.6,20.57V41.2a1.19,1.19,0,0,0,.5,1.09h0a2,2,0,0,1-.06-.45V21.17a4.81,4.81,0,0,1,2.18-3.8L31.75.93l.42-.19-.05,0A1.38,1.38,0,0,0,31.7.61ZM2,43.45a.18.18,0,0,1-.13,0l-1.1-.62A1.78,1.78,0,0,1,0,41.23V20.55a4.82,4.82,0,0,1,2.17-3.8L30.68.31a1.8,1.8,0,0,1,1.7-.16l1.13.64a.3.3,0,0,1,.1.4.28.28,0,0,1-.36.16c-.53-.19-.66-.13-1.23.13L3.59,17.89a4.12,4.12,0,0,0-1.89,3.3l0,20.63a1.2,1.2,0,0,0,.49,1.09.3.3,0,0,1,.06.41A.34.34,0,0,1,2,43.45Z"/><path class="cls-3" d="M3.59,19.18,31.75,2.93c.5-.29.92-.06.92.53V22.6a2.05,2.05,0,0,1-.92,1.59L3.56,40.44c-.49.29-.91.06-.91-.53V20.77A2,2,0,0,1,3.59,19.18Z"/><path class="cls-2" d="M3.72,19.45A1.79,1.79,0,0,0,3,20.77V39.91c0,.16,0,.29.11.33a.38.38,0,0,0,.34-.06L31.6,23.92a1.69,1.69,0,0,0,.76-1.32V3.46c0-.16,0-.29-.11-.33a.36.36,0,0,0-.34.07L3.72,19.45ZM3.14,40.87a.81.81,0,0,1-.39-.1.94.94,0,0,1-.39-.86V20.77a2.32,2.32,0,0,1,1.07-1.85h0L31.6,2.66a1,1,0,0,1,1-.06,1,1,0,0,1,.42.86V22.6a2.37,2.37,0,0,1-1.11,1.86L3.72,40.71A1.13,1.13,0,0,1,3.14,40.87Z"/><path class="cls-4" d="M3.59,19.18a2,2,0,0,0-.94,1.59V39.91c0,.59.42.82.91.53L31.75,24.19a2.05,2.05,0,0,0,.92-1.59V3.46c0-.59-.42-.82-.92-.53L3.59,19.18Zm-.16-1.56L31.91,1.2c1.13-.65,2-.12,2,1.18l0,20.66a4.52,4.52,0,0,1-2.05,3.54L3.43,43c-1.12.65-2.07.12-2.07-1.18l0-20.65a4.54,4.54,0,0,1,2-3.55Z"/><path class="cls-2" d="M3.72,19.45A1.79,1.79,0,0,0,3,20.77V39.91c0,.16,0,.29.11.33a.38.38,0,0,0,.34-.06L31.6,23.92a1.69,1.69,0,0,0,.76-1.32V3.46c0-.16,0-.29-.11-.33a.36.36,0,0,0-.34.07L3.72,19.45ZM3.14,40.87a.81.81,0,0,1-.39-.1.94.94,0,0,1-.39-.86V20.77a2.32,2.32,0,0,1,1.07-1.85h0L31.6,2.66a1,1,0,0,1,1-.06,1,1,0,0,1,.42.86V22.6a2.37,2.37,0,0,1-1.11,1.86L3.72,40.71a1.13,1.13,0,0,1-.58.16Zm.45-23L32,1.46a1.18,1.18,0,0,1,1.15-.13,1.13,1.13,0,0,1,.45,1V23a4.2,4.2,0,0,1-1.91,3.27L3.27,42.74a1.18,1.18,0,0,1-1.15.14,1.15,1.15,0,0,1-.44-1.06l0-20.65a4.18,4.18,0,0,1,1.89-3.28ZM2.52,43.59a1.31,1.31,0,0,1-.69-.18,1.72,1.72,0,0,1-.76-1.59V21.17a4.91,4.91,0,0,1,2.2-3.82L31.75.93A1.69,1.69,0,0,1,33.48.79a1.71,1.71,0,0,1,.76,1.59V23A4.82,4.82,0,0,1,32,26.85L3.56,43.27A2.14,2.14,0,0,1,2.52,43.59Z"/><path class="cls-3" d="M17.89,33.25c-.05,0-.07,0-.13,0a.48.48,0,0,0-.15.14.47.47,0,0,0-.06.19.14.14,0,0,0,.06.12.16.16,0,0,0,.15,0c.06,0,.08-.09.13-.15a.43.43,0,0,0,.06-.18A.15.15,0,0,0,17.89,33.25Z"/><path class="cls-2" d="M17.74,33.52l.1,0s0-.07-.08-.09a.14.14,0,0,0-.13,0s.05,0,.11.09Zm-.08.52a.41.41,0,0,1-.21,0,.45.45,0,0,1-.21-.39.88.88,0,0,1,.1-.35.71.71,0,0,1,.27-.25.41.41,0,0,1,.44,0,.43.43,0,0,1,.21.39.88.88,0,0,1-.1.34.72.72,0,0,1-.24.25A.56.56,0,0,1,17.66,34Z"/><polygon class="cls-3" points="7.34 21.25 28.19 9.21 28.19 23.58 7.34 35.62 7.34 21.25"/><path class="cls-2" d="M7.65,21.43V35.09L27.88,23.41V9.74L7.65,21.43Zm-.31,14.5a.29.29,0,0,1-.16,0A.29.29,0,0,1,7,35.62V21.25A.3.3,0,0,1,7.18,21L28,8.94a.31.31,0,0,1,.47.27V23.58a.34.34,0,0,1-.15.27l-20.86,12A.28.28,0,0,1,7.34,35.93Z"/><polygon class="cls-4" points="7.34 21.25 28.19 9.21 28.19 7.14 7.34 19.18 7.34 21.25"/><path class="cls-2" d="M7.65,19.36v1.36L27.88,9V7.67L7.65,19.36Zm-.31,2.2a.3.3,0,0,1-.16,0A.27.27,0,0,1,7,21.25V19.18a.3.3,0,0,1,.16-.27L28,6.87a.31.31,0,0,1,.32,0,.34.34,0,0,1,.15.27V9.21a.36.36,0,0,1-.15.27l-20.86,12A.3.3,0,0,1,7.34,21.56Z"/><path class="cls-4" d="M12.63,21.88h0c.16-.09.29,0,.29.17h0a.62.62,0,0,1-.29.49h0c-.16.1-.29,0-.29-.16h0A.64.64,0,0,1,12.63,21.88Z"/><path class="cls-2" d="M12.5,22.89a.53.53,0,0,1-.24-.06.48.48,0,0,1-.23-.45.94.94,0,0,1,.44-.77.47.47,0,0,1,.5,0,.49.49,0,0,1,.26.45,1,1,0,0,1-.44.76A.75.75,0,0,1,12.5,22.89Z"/><path class="cls-4" d="M12.63,25.05h0a.18.18,0,0,1,.29.17h0a.64.64,0,0,1-.29.5h0a.18.18,0,0,1-.29-.17h0A.64.64,0,0,1,12.63,25.05Z"/><path class="cls-2" d="M12.5,26.07a.55.55,0,0,1-.24-.07.47.47,0,0,1-.23-.45.91.91,0,0,1,.44-.76h0a.46.46,0,0,1,.5,0,.49.49,0,0,1,.26.45,1,1,0,0,1-.44.76A.64.64,0,0,1,12.5,26.07Z"/><path class="cls-4" d="M12.63,28.42h0a.18.18,0,0,1,.29.17h0a.64.64,0,0,1-.29.5h0a.18.18,0,0,1-.29-.17h0A.66.66,0,0,1,12.63,28.42Z"/><path class="cls-2" d="M12.5,29.44a.55.55,0,0,1-.24-.07.47.47,0,0,1-.23-.45.91.91,0,0,1,.44-.76.46.46,0,0,1,.5,0,.49.49,0,0,1,.26.45,1,1,0,0,1-.44.76A.64.64,0,0,1,12.5,29.44Z"/><path class="cls-2" d="M14.59,24.55a.29.29,0,0,1-.26-.15.3.3,0,0,1,.11-.42l8.14-4.71a.31.31,0,0,1,.42.11.28.28,0,0,1-.1.42l-8.15,4.71A.29.29,0,0,1,14.59,24.55Z"/><path class="cls-2" d="M14.59,21.38a.29.29,0,0,1-.26-.15.3.3,0,0,1,.11-.42l8.14-4.71a.3.3,0,0,1,.42.11.28.28,0,0,1-.1.42l-8.15,4.71A.29.29,0,0,1,14.59,21.38Z"/><path class="cls-2" d="M14.59,27.92a.29.29,0,0,1-.26-.15.3.3,0,0,1,.11-.42L21,23.54a.32.32,0,0,1,.42.12.3.3,0,0,1-.13.41l-6.58,3.81A.29.29,0,0,1,14.59,27.92Z"/></g></g></svg>