<svg xmlns="http://www.w3.org/2000/svg" viewBox="0 0 38.27 40.66"><defs><style>.cls-1{fill:#bdedf8;}.cls-1,.cls-2,.cls-3,.cls-4{fill-rule:evenodd;}.cls-2{fill:#1a87c7;}.cls-3{fill:#66ceef;}.cls-4{fill:#fff;}</style></defs><g id="Camada_2" data-name="Camada 2"><g id="_Layer_" data-name="&lt;Layer&gt;"><path class="cls-1" d="M19.46,37a15.1,15.1,0,1,0-15.1-15.1A15.1,15.1,0,0,0,19.46,37Z"/><path class="cls-2" d="M19.46,7.08a14.8,14.8,0,1,0,14.8,14.8,14.81,14.81,0,0,0-14.8-14.8Zm0,30.21A15.41,15.41,0,1,1,34.87,21.88,15.43,15.43,0,0,1,19.46,37.29Z"/><path class="cls-3" d="M32.44,14.11A11.86,11.86,0,0,1,37,18.34h0a6.75,6.75,0,0,1,0,7.07h0a12,12,0,0,1-4.52,4.24h0a26.63,26.63,0,0,1-13,3.11,26.62,26.62,0,0,1-13-3.11h0A12.14,12.14,0,0,1,2,25.41a6.81,6.81,0,0,1,0-7.07H2a12.13,12.13,0,0,1,4.53-4.23l0,0a15.53,15.53,0,0,0-.89,1.72,10.17,10.17,0,0,0-2.85,3h0a5.92,5.92,0,0,0,0,6.11A11.09,11.09,0,0,0,7,28.81H7a25.49,25.49,0,0,0,12.49,3,25.5,25.5,0,0,0,12.5-3h0a11.13,11.13,0,0,0,4.17-3.88h0a5.86,5.86,0,0,0,0-6.11h0a10,10,0,0,0-2.84-3,14.06,14.06,0,0,0-.9-1.72Z"/><path class="cls-2" d="M2.24,18.47s0,0,0,0a6.51,6.51,0,0,0,0,6.77,11.71,11.71,0,0,0,4.41,4.12,26.06,26.06,0,0,0,12.82,3.07,26.1,26.1,0,0,0,12.83-3.07,11.79,11.79,0,0,0,4.4-4.1l0,0a6.56,6.56,0,0,0,0-6.77A11.06,11.06,0,0,0,33.24,15c.1.22.21.43.3.64a10.24,10.24,0,0,1,2.86,3.06s0,0,0,0a6.17,6.17,0,0,1,0,6.4,11.47,11.47,0,0,1-4.28,4h0a25.75,25.75,0,0,1-12.63,3,25.71,25.71,0,0,1-12.62-3h0a11.32,11.32,0,0,1-4.28-4,6.17,6.17,0,0,1,0-6.42A10,10,0,0,1,5.39,15.6q.14-.31.3-.63a10.91,10.91,0,0,0-3.45,3.5Zm17.22,14.6A26.67,26.67,0,0,1,6.34,29.91,12.1,12.1,0,0,1,1.7,25.57a7.08,7.08,0,0,1,0-7.37v0a12.32,12.32,0,0,1,4.64-4.34.33.33,0,0,1,.39,0,.31.31,0,0,1,.07.36,14.16,14.16,0,0,0-.88,1.68.35.35,0,0,1-.11.13A9.8,9.8,0,0,0,3.06,19a5.54,5.54,0,0,0,0,5.8,10.72,10.72,0,0,0,4,3.75h0a25,25,0,0,0,12.33,2.94A25,25,0,0,0,31.8,28.54h0a10.79,10.79,0,0,0,4-3.75,5.54,5.54,0,0,0,0-5.8l0,0a9.58,9.58,0,0,0-2.74-2.91.26.26,0,0,1-.1-.13,14.16,14.16,0,0,0-.88-1.68.3.3,0,0,1,0-.37.29.29,0,0,1,.37,0l0,0a12.26,12.26,0,0,1,4.64,4.35,7.06,7.06,0,0,1,0,7.36h0a12.11,12.11,0,0,1-4.64,4.35A26.68,26.68,0,0,1,19.46,33.07Z"/><path class="cls-4" d="M23.72,35.12a3.63,3.63,0,1,0-3.63-3.63A3.63,3.63,0,0,0,23.72,35.12Z"/><path class="cls-2" d="M23.72,28.18A3.32,3.32,0,1,0,27,31.49a3.31,3.31,0,0,0-3.31-3.31Zm0,7.24a3.93,3.93,0,1,1,3.93-3.93A3.94,3.94,0,0,1,23.72,35.42Z"/><path class="cls-3" d="M19.23,5.88a16.29,16.29,0,0,1,8-2.48,8.45,8.45,0,0,1,4.08,1,7.26,7.26,0,0,1,2.87,2.82,11.35,11.35,0,0,1,1.34,5.69,21.62,21.62,0,0,1-1.15,6.63,18.34,18.34,0,0,0-.44-2,19.46,19.46,0,0,0,.63-4.68,10.35,10.35,0,0,0-1.22-5.21,6.29,6.29,0,0,0-2.5-2.46,7.46,7.46,0,0,0-3.61-.84A15.45,15.45,0,0,0,19.7,6.71h0A32.8,32.8,0,0,0,8.86,17.48c-2.78,4.37-4.5,9.18-4.5,13.39a10.43,10.43,0,0,0,1.21,5.21h0a6.42,6.42,0,0,0,2.5,2.46,7.49,7.49,0,0,0,3.61.85A15.51,15.51,0,0,0,19.23,37l.11-.06h.12a14.29,14.29,0,0,0,1.86-.12q-.8.54-1.62,1a16.39,16.39,0,0,1-8,2.48,8.56,8.56,0,0,1-4.07-1,7.23,7.23,0,0,1-2.87-2.83h0A11.29,11.29,0,0,1,3.4,30.87C3.4,26.48,5.17,21.48,8,17A33.83,33.83,0,0,1,19.23,5.88Z"/><path class="cls-2" d="M19.23,5.88h0ZM5,36.43a7.08,7.08,0,0,0,2.74,2.69c3,1.62,7.33,1.07,11.8-1.51l.57-.34-.66,0L19.23,37l.14.27c-4.34,2.51-8.58,3.06-11.44,1.5a6.63,6.63,0,0,1-2.62-2.58,10.6,10.6,0,0,1-1.25-5.36c0-4.13,1.61-8.94,4.54-13.56a32.88,32.88,0,0,1,11-10.86C23.9,3.93,28.14,3.38,31,4.94a6.57,6.57,0,0,1,2.62,2.58,10.63,10.63,0,0,1,1.25,5.36,19.86,19.86,0,0,1-.61,4.68l.18.68a20.19,20.19,0,0,0,.78-5.36,11,11,0,0,0-1.3-5.54,7,7,0,0,0-2.74-2.7c-3-1.62-7.34-1.08-11.81,1.5,0,0,0,0,0,0a33.35,33.35,0,0,0-11.06,11c-3,4.67-4.6,9.55-4.6,13.74A11,11,0,0,0,5,36.41v0Zm6.67,4.23a8.71,8.71,0,0,1-4.22-1,7.58,7.58,0,0,1-3-2.94l0,0a11.72,11.72,0,0,1-1.37-5.83c0-4.31,1.67-9.31,4.69-14.08A34,34,0,0,1,19.07,5.61h0c4.65-2.68,9.2-3.23,12.36-1.51a7.61,7.61,0,0,1,3,2.94,11.59,11.59,0,0,1,1.39,5.85,21.52,21.52,0,0,1-1.17,6.72.28.28,0,0,1-.31.21.31.31,0,0,1-.29-.25,13.53,13.53,0,0,0-.42-1.91.29.29,0,0,1,0-.16,18.85,18.85,0,0,0,.62-4.61,10.13,10.13,0,0,0-1.17-5.06,6.15,6.15,0,0,0-2.38-2.34C28,4,24,4.58,19.86,7A32.52,32.52,0,0,0,9.11,17.64c-2.86,4.52-4.43,9.22-4.43,13.23a10.13,10.13,0,0,0,1.16,5.06,6.05,6.05,0,0,0,2.37,2.34c2.68,1.45,6.71.9,10.86-1.5a1.08,1.08,0,0,1,.27-.1h.12a16,16,0,0,0,1.83-.11.28.28,0,0,1,.32.2.3.3,0,0,1-.12.36c-.53.36-1.08.71-1.63,1A16.79,16.79,0,0,1,11.68,40.66Z"/><path class="cls-4" d="M27.83,7.55a3.62,3.62,0,1,0-3.61-3.62A3.62,3.62,0,0,0,27.83,7.55Z"/><path class="cls-2" d="M27.83.62a3.31,3.31,0,1,0,3.31,3.31A3.31,3.31,0,0,0,27.83.62Zm0,7.24a3.93,3.93,0,1,1,3.93-3.93A3.94,3.94,0,0,1,27.83,7.86Z"/><path class="cls-3" d="M19.7,5.88a16.29,16.29,0,0,0-8-2.48,8.44,8.44,0,0,0-4.07,1A7.26,7.26,0,0,0,4.74,7.19,11.35,11.35,0,0,0,3.4,12.88a21.62,21.62,0,0,0,1.15,6.63,14.47,14.47,0,0,1,.44-2,19,19,0,0,1-.63-4.68A10.45,10.45,0,0,1,5.57,7.67a6.42,6.42,0,0,1,2.5-2.46,7.49,7.49,0,0,1,3.61-.84,15.48,15.48,0,0,1,7.55,2.34h0A32.8,32.8,0,0,1,30.07,17.48c2.78,4.37,4.5,9.18,4.5,13.39a10.32,10.32,0,0,1-1.22,5.21h0a6.35,6.35,0,0,1-2.5,2.46,7.46,7.46,0,0,1-3.61.85A15.47,15.47,0,0,1,19.7,37L19.59,37h-.13a14.14,14.14,0,0,1-1.85-.12q.8.54,1.62,1a16.36,16.36,0,0,0,8,2.48,8.57,8.57,0,0,0,4.08-1,7.36,7.36,0,0,0,2.87-2.83h0a11.29,11.29,0,0,0,1.34-5.69c0-4.39-1.77-9.39-4.64-13.91A33.74,33.74,0,0,0,19.7,5.88Z"/><path class="cls-2" d="M18.81,37.27l.56.34c4.47,2.58,8.82,3.13,11.81,1.51a7.05,7.05,0,0,0,2.73-2.69v0a11,11,0,0,0,1.3-5.54c0-4.19-1.63-9.07-4.59-13.74a33.48,33.48,0,0,0-11.06-11h0C15.08,3.56,10.73,3,7.75,4.64A7,7,0,0,0,5,7.34,11,11,0,0,0,3.7,12.88a20.23,20.23,0,0,0,.79,5.36l.18-.68a19.35,19.35,0,0,1-.61-4.68A10.63,10.63,0,0,1,5.31,7.52,6.67,6.67,0,0,1,7.92,4.94c2.87-1.56,7.11-1,11.45,1.51a32.9,32.9,0,0,1,11,10.86c2.93,4.62,4.54,9.43,4.54,13.56a10.6,10.6,0,0,1-1.25,5.36A6.63,6.63,0,0,1,31,38.81c-2.86,1.56-7.1,1-11.45-1.5l0,0h-.05l-.65,0Zm8.43,3.39a16.79,16.79,0,0,1-8.17-2.52c-.55-.31-1.09-.66-1.63-1a.3.3,0,0,1-.12-.36.29.29,0,0,1,.33-.2,15.7,15.7,0,0,0,1.81.11.92.92,0,0,1,.29,0l.11.06c4.15,2.4,8.17,2.95,10.85,1.5a6.15,6.15,0,0,0,2.38-2.34,10.13,10.13,0,0,0,1.17-5.06c0-4-1.58-8.71-4.45-13.23A32.4,32.4,0,0,0,19.07,7C14.92,4.58,10.9,4,8.21,5.48A6.19,6.19,0,0,0,5.84,7.82a10.13,10.13,0,0,0-1.16,5.06,19.27,19.27,0,0,0,.6,4.61.22.22,0,0,1,0,.16,15.11,15.11,0,0,0-.43,1.91.3.3,0,0,1-.28.25.28.28,0,0,1-.31-.21,21.52,21.52,0,0,1-1.17-6.72A11.59,11.59,0,0,1,4.48,7a7.65,7.65,0,0,1,3-2.94c3.17-1.72,7.73-1.17,12.38,1.51h0A34,34,0,0,1,31.15,16.79c3,4.77,4.69,9.77,4.69,14.08a11.61,11.61,0,0,1-1.38,5.83v0a7.54,7.54,0,0,1-3,2.94A8.69,8.69,0,0,1,27.24,40.66Z"/><path class="cls-4" d="M3.94,14.36A3.62,3.62,0,1,0,.31,10.74,3.61,3.61,0,0,0,3.94,14.36Z"/><path class="cls-2" d="M3.94,7.43a3.31,3.31,0,1,0,3.31,3.31A3.31,3.31,0,0,0,3.94,7.43Zm0,7.24a3.93,3.93,0,1,1,3.92-3.93A3.95,3.95,0,0,1,3.94,14.67Z"/></g></g></svg>