<svg xmlns="http://www.w3.org/2000/svg" viewBox="0 0 40.52 36.11"><defs><style>.cls-1{fill:#fff;}.cls-1,.cls-2,.cls-3,.cls-4{fill-rule:evenodd;}.cls-2{fill:#1a87c7;}.cls-3{fill:#66ceef;}.cls-4{fill:#bdedf8;}</style></defs><g id="Camada_2" data-name="Camada 2"><g id="_Layer_" data-name="&lt;Layer&gt;"><path class="cls-1" d="M17.4,9.07C12.51,11.9,8.55,18.76,8.55,24.4s4,7.94,8.85,5.11,8.85-9.68,8.85-15.33S22.29,6.25,17.4,9.07Z"/><path class="cls-2" d="M17.55,9.33c-4.79,2.77-8.7,9.54-8.7,15.07,0,2.62.87,4.56,2.44,5.47s3.69.69,5.95-.62c4.8-2.77,8.7-9.53,8.7-15.07,0-2.61-.86-4.55-2.44-5.47s-3.68-.68-5.95.62ZM13.44,31A4.83,4.83,0,0,1,11,30.4c-1.77-1-2.74-3.14-2.74-6,0-5.73,4-12.73,9-15.6h0c2.47-1.42,4.8-1.64,6.57-.62s2.75,3.15,2.75,6c0,5.74-4,12.74-9,15.6A8.28,8.28,0,0,1,13.44,31Z"/><path class="cls-1" d="M17.4,17.21a19.51,19.51,0,0,0-6.6,8.49,2.78,2.78,0,0,1-.59-1.18c-1-4,2.25-10.22,7.19-13.84Z"/><path class="cls-2" d="M17.4,17.21h0Zm-.31-5.9c-4.58,3.58-7.51,9.38-6.58,13.13a3.66,3.66,0,0,0,.22.61,20.15,20.15,0,0,1,6.36-8V11.31ZM10.8,26a.33.33,0,0,1-.23-.1,3.1,3.1,0,0,1-.66-1.32c-1-4.11,2.26-10.47,7.3-14.15a.33.33,0,0,1,.33,0,.31.31,0,0,1,.17.27v6.53a.31.31,0,0,1-.13.24,19.33,19.33,0,0,0-6.49,8.36.3.3,0,0,1-.23.19Z"/><path class="cls-3" d="M21.21.72l4.32,2.49a7,7,0,0,0-2.31-.42C19.42,2.74,15.58,5.39,13,8,8.35,12.62,4.62,20,4.62,26.67c0,2.6.6,5.5,2.54,7.36l.18.18L3,31.72c-.1-.07-.46-.45-.55-.54C.07,28.44,0,24,.63,20.66a30,30,0,0,1,7-14.07C10.75,3.08,16.24-1,21.21.72Z"/><path class="cls-2" d="M18.75.62c-3.92,0-8,3-10.89,6.17A29.85,29.85,0,0,0,.93,20.71C.56,22.77,0,27.9,2.71,31c.11.12.43.45.5.5L5.94,33a11.68,11.68,0,0,1-1.63-6.37c0-6.25,3.41-13.85,8.48-18.92,1.59-1.59,5.76-5.27,10.31-5.27h.12l.46,0L21.08,1A7.15,7.15,0,0,0,18.75.62ZM7.34,34.52a.42.42,0,0,1-.15,0L2.87,32a6,6,0,0,1-.62-.61C-.65,28.1-.06,22.75.32,20.61A30.54,30.54,0,0,1,7.4,6.38C11,2.39,16.48-1.27,21.31.43l.06,0L25.68,3a.3.3,0,0,1,.13.39.32.32,0,0,1-.38.16,6.39,6.39,0,0,0-2.22-.4H23.1c-4.32,0-8.34,3.55-9.88,5.08-5,5-8.3,12.4-8.3,18.49,0,2.18.43,5.19,2.45,7.15l.18.16a.31.31,0,0,1,0,.41A.29.29,0,0,1,7.34,34.52Z"/><polygon class="cls-1" points="23.55 29.65 19.23 27.16 19.19 27.13 19.15 27.11 19.11 27.08 19.07 27.05 19.04 27.01 19 26.99 18.97 26.95 18.93 26.91 18.9 26.88 18.87 26.85 18.84 26.81 18.8 26.77 18.77 26.73 23.09 29.23 23.12 29.26 23.15 29.3 23.18 29.34 23.22 29.38 23.25 29.41 23.29 29.45 23.32 29.48 23.36 29.51 23.39 29.54 23.43 29.57 23.47 29.6 23.51 29.63 23.55 29.65"/><path class="cls-2" d="M23.53,30a.2.2,0,0,1-.13,0l-4.32-2.49s-.06,0-.07-.05l-.09-.06s-.08-.06-.08-.07l-.08-.07-.08-.08A.65.65,0,0,0,18.6,27l-.06-.08a.3.3,0,0,1,0-.4.29.29,0,0,1,.38-.06L23.24,29a.23.23,0,0,1,.09.08l-.07.09,0,0,.07-.06-.05.08.06,0,.05-.05,0,.06.05,0,0,0v0l.06.05,0,0v0l.06,0h0v0l.07,0h0a.31.31,0,0,1-.15.58Z"/><path class="cls-3" d="M11.14,30.14,6.82,27.65c4.86,2.67,10.86-3.88,13.09-8.29C21.8,15.63,23.55,8.5,19.34,6c1.31.77,4.46,2.31,5.4,3.39,3.65,4.14.19,12.64-3.31,16.73C19.17,28.72,14.76,32.13,11.14,30.14Z"/><path class="cls-2" d="M11.29,29.87c3.26,1.79,7.37-1,9.9-4C24.76,21.7,28,13.49,24.51,9.54a15.52,15.52,0,0,0-3.32-2.21c2.1,3.24.74,8.73-1,12.17s-5.47,7.67-9.06,8.78a6.45,6.45,0,0,1-2.09.3l2.25,1.29ZM13.49,31a5.21,5.21,0,0,1-2.5-.63,0,0,0,0,1,0,0L6.66,27.92a.32.32,0,0,1-.11-.42A.31.31,0,0,1,7,27.38a5,5,0,0,0,4,.31c3.43-1.06,7-5.06,8.69-8.47,1.91-3.77,3.47-10.63-.46-13a.31.31,0,0,1-.1-.42.29.29,0,0,1,.41-.11c.29.17.66.36,1.08.59A20.82,20.82,0,0,1,25,9.13c3.71,4.21.4,12.8-3.31,17.14C19.58,28.71,16.46,31,13.49,31Z"/><polygon class="cls-1" points="23.66 8.45 19.34 5.95 19.19 5.87 19.04 5.79 18.88 5.72 23.19 8.22 23.35 8.29 23.51 8.37 23.66 8.45"/><path class="cls-2" d="M23.66,8.76a.3.3,0,0,1-.15,0l-.44-.21L18.72,6a.3.3,0,0,1-.12-.4.32.32,0,0,1,.4-.15l.49.24,4.32,2.5a.31.31,0,0,1-.15.58Z"/><path class="cls-4" d="M23.66,8.45c-1.6-.92-3.81-.79-6.26.62a18,18,0,0,0-6.26,6.61A18,18,0,0,0,8.55,24.4c0,2.83,1,4.81,2.59,5.74s3.81.79,6.26-.63a18,18,0,0,0,6.26-6.6,18.09,18.09,0,0,0,2.59-8.73c0-2.82-1-4.81-2.59-5.73ZM17.4,4.54c3.53-2,6.72-2.24,9-.9s3.74,4.2,3.74,8.27a22.79,22.79,0,0,1-1.33,7.33,2.16,2.16,0,0,1,.74.25L39,24.93c1.63.93,1.63,4,0,6.82h0c-1.62,2.82-4.28,4.35-5.91,3.42l-9.41-5.44a2,2,0,0,1-.58-.5,22.85,22.85,0,0,1-5.69,4.82c-3.53,2-6.73,2.23-9,.9s-3.74-4.2-3.74-8.28A26.13,26.13,0,0,1,8.36,14.08a26.09,26.09,0,0,1,9-9.54Z"/><path class="cls-2" d="M21.35,8.17a7.81,7.81,0,0,0-3.8,1.16,17.7,17.7,0,0,0-6.15,6.51A17.73,17.73,0,0,0,8.85,24.4c0,2.62.87,4.57,2.44,5.47s3.69.69,5.95-.62a17.51,17.51,0,0,0,6.15-6.5,17.62,17.62,0,0,0,2.55-8.57c0-2.61-.86-4.56-2.43-5.47a4.36,4.36,0,0,0-2.16-.54ZM13.44,31A4.83,4.83,0,0,1,11,30.4c-1.77-1-2.74-3.14-2.74-6a18.32,18.32,0,0,1,2.63-8.88A18.32,18.32,0,0,1,17.24,8.8c2.47-1.42,4.8-1.64,6.57-.62h0c1.78,1,2.75,3.15,2.75,6a18.36,18.36,0,0,1-2.63,8.89,18.39,18.39,0,0,1-6.38,6.71A8.28,8.28,0,0,1,13.44,31ZM23.1,3.09a6.2,6.2,0,0,1,3.18.82c2.32,1.33,3.59,4.18,3.59,8a22.29,22.29,0,0,1-1.31,7.23.3.3,0,0,0,0,.26.38.38,0,0,0,.22.15,1.69,1.69,0,0,1,.62.21l9.41,5.43a2.68,2.68,0,0,1,1.06,2.45,8.21,8.21,0,0,1-1.18,4c-1.51,2.62-4,4.14-5.49,3.3l-9.4-5.44a1.67,1.67,0,0,1-.5-.42.34.34,0,0,0-.23-.13.35.35,0,0,0-.24.12,22.46,22.46,0,0,1-5.62,4.75c-3.31,1.92-6.41,2.24-8.73.9s-3.59-4.18-3.59-8A25.66,25.66,0,0,1,8.63,14.23,25.68,25.68,0,0,1,17.55,4.8,11.39,11.39,0,0,1,23.1,3.09Zm-11.41,33a6.83,6.83,0,0,1-3.48-.89c-2.52-1.46-3.9-4.49-3.9-8.55A26.31,26.31,0,0,1,8.09,13.92a26.44,26.44,0,0,1,9.15-9.65c3.52-2,6.83-2.35,9.35-.9s3.9,4.48,3.9,8.54A22.66,22.66,0,0,1,29.25,19a2.65,2.65,0,0,1,.49.2l9.4,5.44a3.22,3.22,0,0,1,1.38,3,8.85,8.85,0,0,1-1.26,4.28c-1.72,3-4.56,4.55-6.34,3.52L23.52,30a2.07,2.07,0,0,1-.42-.31,22.9,22.9,0,0,1-5.55,4.63A11.92,11.92,0,0,1,11.69,36.11Z"/></g></g></svg>