<svg xmlns="http://www.w3.org/2000/svg" viewBox="0 0 15.77 40.64"><defs><style>.cls-1{fill:#bdedf8;}.cls-1,.cls-2,.cls-3,.cls-4{fill-rule:evenodd;}.cls-2{fill:#1a87c7;}.cls-3{fill:#fff;}.cls-4{fill:#66ceef;}</style></defs><g id="Camada_2" data-name="Camada 2"><g id="_Layer_" data-name="&lt;Layer&gt;"><path class="cls-1" d="M4.23,34.9a2.17,2.17,0,0,0,.65.22,3.08,3.08,0,0,0,2-.57,6.91,6.91,0,0,0,1.26-1.1,8.67,8.67,0,0,0,1.37-2.17A7.65,7.65,0,0,0,10,29.17c0-.25,0-.69,0-.93V19.83a5.83,5.83,0,0,0,0-.72A2.24,2.24,0,0,0,9,17.3l2.5,1.45c1.12.71,1,1.86,1,2.95V30a6.08,6.08,0,0,1-.07,1,7.21,7.21,0,0,1-.61,1.91,8.9,8.9,0,0,1-.71,1.23,7.49,7.49,0,0,1-1.34,1.47,3.54,3.54,0,0,1-2.28.93,1.68,1.68,0,0,1-.8-.22L4.23,34.9Zm2.4-20.73a12.33,12.33,0,0,0-3,2.62,16.93,16.93,0,0,0-2.07,3.26A13.8,13.8,0,0,0,.45,23.58a12.39,12.39,0,0,0-.14,2v8.8c0,1.64.39,3.16,1.86,4.09l2.51,1.44C3.21,39,2.85,37.47,2.82,35.83V26.89A12.92,12.92,0,0,1,3,25a14.29,14.29,0,0,1,.94-3.13,17.81,17.81,0,0,1,1.72-3,12.58,12.58,0,0,1,3.53-3.29c1.44-.79,2.92-1.24,4.46-.43l-2.51-1.45c-1.54-.81-3-.35-4.46.43Z"/><path class="cls-2" d="M5.67,35.38l1.22.7a1.55,1.55,0,0,0,.67.19h0a3.28,3.28,0,0,0,2.06-.87A8,8,0,0,0,10.92,34a10.38,10.38,0,0,0,.68-1.18A7.38,7.38,0,0,0,12.18,31a5.43,5.43,0,0,0,.06-1V21.42c0-1,0-1.85-.86-2.41l-1.2-.69a5.61,5.61,0,0,1,.16.75c0,.24,0,.4,0,.59v8.83c0,.24,0,.52,0,.7a8.32,8.32,0,0,1-.6,2.21,9,9,0,0,1-1.43,2.25A7.37,7.37,0,0,1,7,34.81a4.18,4.18,0,0,1-1.33.57Zm1.88,1.5h0a2.06,2.06,0,0,1-1-.26L4.07,35.17A.3.3,0,0,1,4,34.75a.3.3,0,0,1,.4-.12,1.72,1.72,0,0,0,.57.18,2.77,2.77,0,0,0,1.73-.52,6.36,6.36,0,0,0,1.2-1,7.73,7.73,0,0,0,1.32-2.09,7.34,7.34,0,0,0,.55-2c0-.17,0-.43,0-.65V19.65a4.88,4.88,0,0,0,0-.52,1.93,1.93,0,0,0-.84-1.57.3.3,0,0,1-.11-.42.31.31,0,0,1,.42-.1l2.51,1.44c1.17.75,1.17,1.92,1.16,2.95V30a6.92,6.92,0,0,1-.07,1.07,7.75,7.75,0,0,1-.64,2,8.75,8.75,0,0,1-.73,1.27A8.38,8.38,0,0,1,10,35.88a3.89,3.89,0,0,1-2.47,1ZM6.79,14.44c1.7-.93,3-1.06,4.15-.43l.79.45a6.57,6.57,0,0,0-2.76.9,13,13,0,0,0-3.62,3.38,17.66,17.66,0,0,0-1.74,3,13.83,13.83,0,0,0-1,3.21,15.16,15.16,0,0,0-.13,1.9v9a6.52,6.52,0,0,0,.59,2.81l-.77-.44C1.18,37.47.66,36.33.62,34.38v-8.8a12.88,12.88,0,0,1,.13-1.94,13.86,13.86,0,0,1,1.08-3.45,16.82,16.82,0,0,1,2-3.19,12.21,12.21,0,0,1,2.94-2.56ZM4.68,40.22a.29.29,0,0,1-.16,0L2,38.73a4.85,4.85,0,0,1-2-4.34V25.58a13,13,0,0,1,.14-2,14.63,14.63,0,0,1,1.14-3.61,17.18,17.18,0,0,1,2.1-3.32,13.13,13.13,0,0,1,3.09-2.7h0a4.88,4.88,0,0,1,4.76-.44l2.52,1.46a.32.32,0,0,1,.11.42.3.3,0,0,1-.4.12c-1.22-.63-2.47-.51-4.19.43A12.28,12.28,0,0,0,5.85,19.1,17.07,17.07,0,0,0,4.17,22a13.35,13.35,0,0,0-.92,3.06,13.38,13.38,0,0,0-.12,1.8v8.94c0,1.92.57,3.1,1.71,3.83a.3.3,0,0,1-.16.56Z"/><path class="cls-3" d="M5.73,31.84V27.2a13.92,13.92,0,0,1,.26-4,7.83,7.83,0,0,1,.74-1.71A8.32,8.32,0,0,1,7.84,20a4.48,4.48,0,0,1,2.6-1.5,1.81,1.81,0,0,1,1.1.22c1.27.73,1,2.64,1,4.51V27.9c0,1.89.25,3.49-1,5.67a7.53,7.53,0,0,1-1.1,1.5,4.42,4.42,0,0,1-2.6,1.5A1.76,1.76,0,0,1,6,35.5a3.22,3.22,0,0,1-.26-1.35V31.84Zm5.82-17.06a6.22,6.22,0,0,0-2.41.84,12.94,12.94,0,0,0-4.46,4.72A15.16,15.16,0,0,0,3.3,23.5a11.86,11.86,0,0,0-.45,2.35c0,.56,0,1.13,0,1.65v8.33a6,6,0,0,0,.48,2.51,3.23,3.23,0,0,0,3.43,2,6.28,6.28,0,0,0,2.41-.84,10.92,10.92,0,0,0,2.41-1.95A15.37,15.37,0,0,0,15,31.6a17,17,0,0,0,.47-5.38V21.58c0-1.77.13-3.48-.47-4.82a3.25,3.25,0,0,0-3.43-2Z"/><path class="cls-2" d="M10.65,18.83h-.18a4.14,4.14,0,0,0-2.4,1.4A8.16,8.16,0,0,0,7,21.68a8,8,0,0,0-.72,1.65A10.57,10.57,0,0,0,6,26.5c0,.24,0,.48,0,.7v7a2.86,2.86,0,0,0,.23,1.22,1.43,1.43,0,0,0,1.54.89,4.16,4.16,0,0,0,2.41-1.4,7.6,7.6,0,0,0,1-1.44,7.82,7.82,0,0,0,1-4.69c0-.27,0-.55,0-.83V23.26c0-.28,0-.56,0-.84,0-1.54.06-2.87-.85-3.4a1.44,1.44,0,0,0-.75-.19Zm-3,18.06a2,2,0,0,1-1.91-1.26,3.59,3.59,0,0,1-.28-1.48V27.2c0-.22,0-.45,0-.69a10.44,10.44,0,0,1,.28-3.36,8.41,8.41,0,0,1,.77-1.78,8.1,8.1,0,0,1,1.15-1.55,4.64,4.64,0,0,1,2.79-1.59,2.15,2.15,0,0,1,1.29.25c1.23.72,1.2,2.29,1.17,4,0,.27,0,.55,0,.82V27.9c0,.28,0,.55,0,.81a8.43,8.43,0,0,1-1.06,5,8.7,8.7,0,0,1-1.14,1.56,4.69,4.69,0,0,1-2.8,1.59l-.25,0Zm3.93-22.11h0Zm.4.29a2.88,2.88,0,0,1,2.74,1.82,9.31,9.31,0,0,1,.46,3.91V27a13.77,13.77,0,0,1-.47,4.52,14.93,14.93,0,0,1-3.35,5.81A10.56,10.56,0,0,1,9,39.21,5.78,5.78,0,0,1,6.7,40a2.91,2.91,0,0,1-3.12-1.8,5.74,5.74,0,0,1-.45-2.38V27.28c0-.46,0-.94,0-1.4a11,11,0,0,1,.44-2.29A14.18,14.18,0,0,1,4.94,20.5a12.61,12.61,0,0,1,4.35-4.61,5.78,5.78,0,0,1,2.29-.8h0l.37,0ZM6.33,40.64A3.51,3.51,0,0,1,3,38.46a6.26,6.26,0,0,1-.51-2.63V27.28a14.2,14.2,0,0,1,0-1.45A12.1,12.1,0,0,1,3,23.41a14.9,14.9,0,0,1,1.4-3.22A13,13,0,0,1,9,15.36a6.24,6.24,0,0,1,2.53-.88,3.54,3.54,0,0,1,3.74,2.16,10.13,10.13,0,0,1,.51,4.17V27a14.79,14.79,0,0,1-.5,4.71,15.57,15.57,0,0,1-3.5,6.06,11,11,0,0,1-2.48,2,6.23,6.23,0,0,1-2.54.88A2.88,2.88,0,0,1,6.33,40.64Z"/><path class="cls-1" d="M3.22,17.31a12.8,12.8,0,0,1,2.51-2.53v-8a2.6,2.6,0,0,1,1-2.49L4.23,5.74a2.55,2.55,0,0,0-1,2.44v6.71c0,.81,0,1.62,0,2.42Zm8.32,4.58c-1.44.76-3.06-.52-4-1.57a8.74,8.74,0,0,0-.85,1.21,7.45,7.45,0,0,0-.58,1.25,4.06,4.06,0,0,0,1.47.73A2,2,0,0,0,9,23.34l2.5-1.45ZM9.78,1.57a14,14,0,0,1,3.37,3.58,15.29,15.29,0,0,1,1.93,4.28,11.3,11.3,0,0,1,.37,3.08v8.86c0,1.64-.39,3.16-1.85,4.09L11.09,26.9c1.47-.92,1.82-2.45,1.86-4.08V14c0-.41,0-.8,0-1.2a12.61,12.61,0,0,0-.71-3.09A17.86,17.86,0,0,0,10.65,6.6,14,14,0,0,0,7.28,3C5.7,2,4,1.23,2.17,2.18L4.68.73c1.8-.95,3.52-.16,5.1.84Z"/><path class="cls-2" d="M5.59,5.31,4.37,6c-.7.45-.84,1.14-.84,2.17v8.28a11.78,11.78,0,0,1,1.91-1.84V6.78a4.81,4.81,0,0,1,.16-1.47ZM3.22,17.62h-.1a.32.32,0,0,1-.21-.29c0-.53,0-1.06,0-1.59V8.18a2.85,2.85,0,0,1,1.15-2.7L6.58,4a.3.3,0,1,1,.31.52C6.17,5,6,5.69,6,6.78v8a.29.29,0,0,1-.13.24A12.81,12.81,0,0,0,3.46,17.5a.3.3,0,0,1-.24.12Zm3.3,5.05a3.63,3.63,0,0,0,1.17.54,1.65,1.65,0,0,0,1.21-.15l1.19-.69A5.24,5.24,0,0,1,7.6,20.79a7.7,7.7,0,0,0-.6.89,6.92,6.92,0,0,0-.48,1Zm1.63,1.2a3.11,3.11,0,0,1-.59-.06A4.25,4.25,0,0,1,6,23a.31.31,0,0,1-.11-.35,8.67,8.67,0,0,1,.62-1.31,8.5,8.5,0,0,1,.88-1.25A.3.3,0,0,1,7.58,20h0a.32.32,0,0,1,.24.11c.46.55,2.11,2.27,3.58,1.5a.3.3,0,0,1,.41.12.31.31,0,0,1-.11.42L9.19,23.61a2.25,2.25,0,0,1-1,.26ZM4,1.45,4.82,1C6.5.12,8.11.88,9.61,1.83a13.22,13.22,0,0,1,3.28,3.48A15,15,0,0,1,14.78,9.5a10.89,10.89,0,0,1,.37,3v8.85c0,1.93-.57,3.11-1.7,3.83l-.79.45a6.4,6.4,0,0,0,.6-2.82V14c0-.41,0-.81,0-1.23a12.36,12.36,0,0,0-.73-3.17A17.16,17.16,0,0,0,10.9,6.43,14.34,14.34,0,0,0,7.44,2.76,7.22,7.22,0,0,0,4,1.45Zm7.06,25.76a.3.3,0,0,1-.26-.15.29.29,0,0,1,.1-.41c1.14-.73,1.67-1.91,1.71-3.84V14c0-.4,0-.78,0-1.18a12.39,12.39,0,0,0-.69-3,17.16,17.16,0,0,0-1.53-3,13.17,13.17,0,0,0-3.3-3.49C5.61,2.33,4,1.57,2.31,2.45a.3.3,0,0,1-.41-.13A.31.31,0,0,1,2,1.91L4.52.46c2-1,3.85-.15,5.43.85,0,0,0,0,0,0A14,14,0,0,1,13.4,5a16,16,0,0,1,2,4.36,12.13,12.13,0,0,1,.39,3.17v8.86a4.87,4.87,0,0,1-2,4.35l-2.52,1.45A.29.29,0,0,1,11.09,27.21Z"/><path class="cls-4" d="M4.22,1.77a6.15,6.15,0,0,1,2.41.85,12.83,12.83,0,0,1,4.46,4.71,15.7,15.7,0,0,1,1.38,3.16,10.9,10.9,0,0,1,.47,3,.38.38,0,0,0,0,.1v9.2a6,6,0,0,1-.48,2.5,3.37,3.37,0,0,1-1.38,1.58h0A3.39,3.39,0,0,1,9,27.31a6.22,6.22,0,0,1-2.41-.84q-.45-.27-.9-.6v-1A5.72,5.72,0,0,1,6,23.24c0-.15.1-.3.15-.46a2.94,2.94,0,0,0,.47.31l0,0a3.32,3.32,0,0,0,1.3.45A1.82,1.82,0,0,0,9,23.34H9a1.83,1.83,0,0,0,.74-.85A3.22,3.22,0,0,0,10,21.14V11.88a5.72,5.72,0,0,0-.26-1.65A8,8,0,0,0,9,8.52,8.83,8.83,0,0,0,7.93,7a6.06,6.06,0,0,0-1.3-1h0a3.37,3.37,0,0,0-1.3-.45A1.76,1.76,0,0,0,3.49,6.57v0a3.12,3.12,0,0,0-.26,1.33h0v9.39l-.12.14-.48.7-.45.73L2,19.28l-.21.38-.19.39-.13.27a16.42,16.42,0,0,1-.64-1.73,11.32,11.32,0,0,1-.48-3V6.27A6.25,6.25,0,0,1,.79,3.75,3.34,3.34,0,0,1,2.17,2.18h0A3.38,3.38,0,0,1,4.22,1.77Z"/><path class="cls-2" d="M6,25.72c.25.17.51.34.75.48a5.78,5.78,0,0,0,2.29.8,3,3,0,0,0,1.87-.37h0a3.12,3.12,0,0,0,1.22-1.42,5.74,5.74,0,0,0,.45-2.38v-9.2a.45.45,0,0,1,0-.12,11,11,0,0,0-.47-2.92,14.68,14.68,0,0,0-1.34-3.09A12.61,12.61,0,0,0,6.48,2.88a5.78,5.78,0,0,0-2.29-.8h0a3.07,3.07,0,0,0-1.85.35h0A3,3,0,0,0,1.08,3.88,5.63,5.63,0,0,0,.63,6.27a.43.43,0,0,1,0,.11v9.07s0,.09,0,.09a10.22,10.22,0,0,0,.46,3c.1.36.23.71.36,1.06l.45-.81L2.36,18l.55-.79V7.92A3.52,3.52,0,0,1,3.2,6.46a2.16,2.16,0,0,1,.87-1,2.07,2.07,0,0,1,1.29-.26,3.34,3.34,0,0,1,1.4.48l0,0A5.77,5.77,0,0,1,8.15,6.81,8.1,8.1,0,0,1,9.3,8.36a8.64,8.64,0,0,1,.77,1.78,5.79,5.79,0,0,1,.28,1.74v9.26a3.58,3.58,0,0,1-.29,1.48,2.22,2.22,0,0,1-.87,1h0a2,2,0,0,1-1.25.24,3.42,3.42,0,0,1-1.42-.48l-.18-.11s0,0,0,.06A5.62,5.62,0,0,0,6,24.89v.83Zm3.42,1.92c-.15,0-.29,0-.43,0a6.28,6.28,0,0,1-2.54-.88,7.82,7.82,0,0,1-.93-.61.3.3,0,0,1-.12-.25V25a5.62,5.62,0,0,1,.27-1.8,4.26,4.26,0,0,1,.15-.47.34.34,0,0,1,.2-.19.31.31,0,0,1,.28.05l.42.29a3,3,0,0,0,1.2.42,1.58,1.58,0,0,0,.93-.18h0a1.64,1.64,0,0,0,.59-.7,2.85,2.85,0,0,0,.24-1.22v-9.2a5.38,5.38,0,0,0-.26-1.62,7.41,7.41,0,0,0-.71-1.65A6.93,6.93,0,0,0,7.7,7.24a5.26,5.26,0,0,0-1.22-1A3.15,3.15,0,0,0,5.3,5.83,1.59,1.59,0,0,0,4.37,6a1.59,1.59,0,0,0-.61.69,2.92,2.92,0,0,0-.24,1.22s0,.07,0,.08v9.31a.25.25,0,0,1-.06.2l-.11.14-.48.69L2,19.8l-.31.65a.31.31,0,0,1-.29.18h0a.3.3,0,0,1-.27-.18A15.88,15.88,0,0,1,.5,18.68,10.72,10.72,0,0,1,0,15.55s0-.08,0-.1V6.32A6.55,6.55,0,0,1,.51,3.63,3.74,3.74,0,0,1,2,1.93l0,0a3.59,3.59,0,0,1,2.24-.44,6.24,6.24,0,0,1,2.53.88,13,13,0,0,1,4.58,4.83,14.63,14.63,0,0,1,1.4,3.22,11.16,11.16,0,0,1,.49,3.12.31.31,0,0,1,0,.1v9.2a6.42,6.42,0,0,1-.51,2.63,3.64,3.64,0,0,1-1.5,1.72l0,0A3.52,3.52,0,0,1,9.45,27.64Z"/></g></g></svg>