<svg xmlns="http://www.w3.org/2000/svg" viewBox="0 0 37.55 40.61"><defs><style>.cls-1{fill:#66ceef;}.cls-1,.cls-2,.cls-3,.cls-4{fill-rule:evenodd;}.cls-2{fill:#1a87c7;}.cls-3{fill:#fff;}.cls-4{fill:#bdedf8;}</style></defs><g id="Camada_2" data-name="Camada 2"><g id="_Layer_" data-name="&lt;Layer&gt;"><path class="cls-1" d="M29.93,6.29l-.16-.38A5.11,5.11,0,0,0,28.3,3.85L28,3.65l-.29-.18-.29-.16,5.4,3.11A4.69,4.69,0,0,1,34.64,8a8.63,8.63,0,0,1,.68,1.4.34.34,0,0,0,.19.2L30.11,6.5A.37.37,0,0,1,29.93,6.29Z"/><path class="cls-2" d="M30.21,6.17s0,0,0,0l4.48,2.59a4.44,4.44,0,0,0-.34-.64A4.24,4.24,0,0,0,32.7,6.7L29.61,4.9c.16.27.29.56.45.88l.15.39Zm5.3,3.75a.29.29,0,0,1-.16,0s0,0-.05,0L30,6.77a.64.64,0,0,1-.31-.34v0L29.48,6a4.64,4.64,0,0,0-1.39-1.94l-.31-.23-.47-.27a.32.32,0,0,1-.11-.42A.28.28,0,0,1,27.59,3l.5.28L33,6.16a4.85,4.85,0,0,1,1.86,1.67,8.75,8.75,0,0,1,.73,1.47h0l0,0a.28.28,0,0,1,.11.42A.29.29,0,0,1,35.51,9.92Z"/><path class="cls-3" d="M32.15,12.6,26.76,9.48a.32.32,0,0,1-.19-.19,3,3,0,0,0-1.33-1.6l-.19-.09,5.4,3.11a2.87,2.87,0,0,1,1.41,1.48C31.94,12.38,32,12.51,32.15,12.6Z"/><path class="cls-2" d="M26.73,8.92c.05.08.08.16.13.25l.05.05,4.3,2.48a2.55,2.55,0,0,0-.89-.71L26.73,8.92Zm5.42,4a.31.31,0,0,1-.13,0l-.08-.05L26.6,9.75a.79.79,0,0,1-.32-.31,2.76,2.76,0,0,0-1-1.38l-.32-.2a.3.3,0,0,1-.13-.41.32.32,0,0,1,.42-.13l.18.09.16.11,5.06,2.93a3.29,3.29,0,0,1,1.54,1.6l.06.12c0,.09,0,.12,0,.13l.05,0a.31.31,0,0,1,.13.42A.38.38,0,0,1,32.15,12.91Z"/><path class="cls-1" d="M19.45,7.85a1.23,1.23,0,0,1,.47-1.12,8,8,0,0,1,4.87-1.95A4.21,4.21,0,0,1,26.15,5l.27.11,5.39,3.11a5.44,5.44,0,0,0-.52-.19,4.4,4.4,0,0,0-1.7-.16,8.23,8.23,0,0,0-3.93,1.68l-.42.31a1.18,1.18,0,0,0-.4,1.07l.21.76a.44.44,0,0,0,.16.23l-5.4-3.12c-.1-.07-.1-.09-.15-.22Z"/><path class="cls-2" d="M19.73,7.78l.21.76,4.64,2.71,0-.2a1.56,1.56,0,0,1,.52-1.38l.42-.33a8.53,8.53,0,0,1,4.09-1.73l.45,0L26,5.32a3.9,3.9,0,0,0-1.23-.24A8.07,8.07,0,0,0,20.1,7a1,1,0,0,0-.37.81Zm5.45,4.48a.35.35,0,0,1-.13,0L19.66,9.11a.59.59,0,0,1-.29-.37l-.24-.81h0a1.64,1.64,0,0,1,.58-1.43,8.59,8.59,0,0,1,5.08-2,4.37,4.37,0,0,1,1.47.28l.26.11L32,8a.3.3,0,0,1,.1.4.29.29,0,0,1-.39.14c-.18-.07-.31-.13-.47-.18a4.41,4.41,0,0,0-1.6-.14,8,8,0,0,0-3.77,1.62l-.39.3a1,1,0,0,0-.32.76l.21.76a.34.34,0,0,1,.11.44A.32.32,0,0,1,25.18,12.26Z"/><path class="cls-4" d="M19.53,3C22,1.06,25.29-.43,28.43.7l5.4,3.11a6.31,6.31,0,0,0-3-.36,8.84,8.84,0,0,0-.92.14,13.77,13.77,0,0,0-5.55,2.9,1.3,1.3,0,0,0-.47.92v.2l.21.76c.05.13.05.15.18.23l-5.4-3.12a.42.42,0,0,1-.18-.23l-.21-.82C18.42,3.74,19.05,3.33,19.53,3Z"/><path class="cls-2" d="M19.05,5.17v0l4.64,2.67-.08-.44a1.72,1.72,0,0,1,.58-1.18,14.27,14.27,0,0,1,5.68-3,7.25,7.25,0,0,1,1-.16,9.56,9.56,0,0,1,1.18,0L28.3,1c-3.17-1.12-6.44.6-8.59,2.25l-.13.1c-.47.37-.82.66-.74,1.07l.21.79ZM24.29,8.9a.25.25,0,0,1-.13,0l-5.4-3.12a.73.73,0,0,1-.31-.38l-.23-.86a1.89,1.89,0,0,1,1-1.68l.14-.1h0C21.62,1,25.08-.83,28.54.41L34,3.55a.28.28,0,0,1,.13.39.32.32,0,0,1-.39.17,6,6,0,0,0-2.83-.36A7.52,7.52,0,0,0,30,3.9a13.43,13.43,0,0,0-5.43,2.84,1.24,1.24,0,0,0-.37.68l0,.15.21.72a.37.37,0,0,1,.11.44A.35.35,0,0,1,24.29,8.9Z"/><path class="cls-3" d="M32,12.41C31,10,28.38,9.78,25.71,11.85c-.29.23-.58.18-.66-.12L24.84,11a.85.85,0,0,1,.08-.59,1.06,1.06,0,0,1,.4-.53C29,7,32.6,7.3,33.86,10.61a.91.91,0,0,1-.06.57,1.29,1.29,0,0,1-.36.56l-.76.68C32.39,12.69,32.07,12.68,32,12.41Z"/><path class="cls-2" d="M29.17,10.13a3.79,3.79,0,0,1,.94.12,3.24,3.24,0,0,1,2.15,2.05h0a.47.47,0,0,0,.21-.12l.76-.68a1,1,0,0,0,.29-.43.46.46,0,0,0,0-.36,3.64,3.64,0,0,0-2.41-2.38c-1.6-.45-3.67.19-5.63,1.75a.81.81,0,0,0-.29.41.62.62,0,0,0-.08.39l.21.77s.08,0,.18-.06a6.24,6.24,0,0,1,3.65-1.47Zm3.09,2.79H32.1a.65.65,0,0,1-.42-.39h0a2.62,2.62,0,0,0-1.75-1.67,4.87,4.87,0,0,0-4,1.24.77.77,0,0,1-.73.18.67.67,0,0,1-.42-.46l-.21-.76a1.25,1.25,0,0,1,.1-.79,1.49,1.49,0,0,1,.5-.66c2.12-1.67,4.38-2.35,6.16-1.86a4.28,4.28,0,0,1,2.85,2.77,1.13,1.13,0,0,1,0,.78,1.41,1.41,0,0,1-.44.68l-.76.68A1,1,0,0,1,32.26,12.92Z"/><path class="cls-3" d="M35.32,9.41c-1.46-4.21-6-4.62-10.48-.95-.31.25-.63.21-.7-.09l-.21-.76A1.13,1.13,0,0,1,24,7a1.05,1.05,0,0,1,.39-.54c5.53-4.52,11.05-4,12.81,1.16a.75.75,0,0,1-.05.56,1.17,1.17,0,0,1-.37.55L36,9.44C35.74,9.71,35.43,9.7,35.32,9.41Z"/><path class="cls-2" d="M30.74,5.65a5.49,5.49,0,0,1,1.47.2,5.09,5.09,0,0,1,3.4,3.46h0v0a.39.39,0,0,0,.24-.12l.76-.68a1.11,1.11,0,0,0,.26-.42.63.63,0,0,0,.05-.36,5.56,5.56,0,0,0-3.69-3.82c-2.47-.7-5.61.32-8.65,2.8a1.13,1.13,0,0,0-.29.41.5.5,0,0,0-.05.38l.21.77s.08,0,.18-.07a10.1,10.1,0,0,1,6.11-2.57Zm4.87,4.29-.16,0A.54.54,0,0,1,35,9.51a4.5,4.5,0,0,0-3-3.07c-2-.57-4.56.26-7,2.26a.87.87,0,0,1-.79.21.65.65,0,0,1-.39-.46l-.21-.77a1.33,1.33,0,0,1,.08-.77,1.42,1.42,0,0,1,.47-.65c3.2-2.62,6.55-3.68,9.22-2.92A6.14,6.14,0,0,1,37.5,7.55a1,1,0,0,1,0,.77A1.4,1.4,0,0,1,37,9l-.76.68A1,1,0,0,1,35.61,9.94Z"/><path class="cls-4" d="M10.93,39.59A3.66,3.66,0,0,1,7.24,40h0L1.84,36.84a3.08,3.08,0,0,1-.79-.7A5.59,5.59,0,0,1,.43,32a12.3,12.3,0,0,1,4.08-6.91l.24-.18c0-.29.08-.56.13-.85.71-4.14,3.59-8.79,7.28-10.92a5.54,5.54,0,0,1,4.9-.7l.19.08,1.1.64a6,6,0,0,1,3.77-1.72,2.77,2.77,0,0,1,1,.2l.16.07,2.33,1.35.26-.05a3.09,3.09,0,0,1,1.63.14l.18.08,5.4,3.11c1,.51,1.68,1.72,1.68,3.47a11.53,11.53,0,0,1-5.24,9.07Z"/><path class="cls-2" d="M15.49,12.41a6.56,6.56,0,0,0-3.17,1A16.37,16.37,0,0,0,5.17,24.1c0,.29-.08.55-.11.83a.35.35,0,0,1-.1.22l-.24.18A11.77,11.77,0,0,0,.74,32c-.13.77-.37,2.7.58,3.92a2.12,2.12,0,0,0,.68.61l5.37,3.11a3.39,3.39,0,0,0,3.4-.36h0L29.35,28.6a11.23,11.23,0,0,0,5.08-8.8,3.36,3.36,0,0,0-1.49-3.19l-5.55-3.19a2.76,2.76,0,0,0-1.47-.11l-.24,0a.25.25,0,0,1-.21,0L23,11.91a2.48,2.48,0,0,0-.86-.17,5.7,5.7,0,0,0-3.56,1.64.29.29,0,0,1-.34,0l-1.29-.71a3.54,3.54,0,0,0-1.44-.3ZM8.6,40.61a3,3,0,0,1-1.52-.39L1.68,37.1a2.78,2.78,0,0,1-.86-.77,5.91,5.91,0,0,1-.68-4.39,12.37,12.37,0,0,1,4.19-7.09l.13-.11c0-.25.08-.49.11-.74A17,17,0,0,1,12,12.86c1.07-.64,3.22-1.58,5.18-.71l.19.08.94.55a6.31,6.31,0,0,1,3.75-1.66h.05a3.28,3.28,0,0,1,1.13.21l.15.08,2.26,1.31.15,0a3.28,3.28,0,0,1,1.81.16l.18.08,5.43,3.13c1.15.57,1.83,1.93,1.83,3.73a11.86,11.86,0,0,1-5.4,9.33L11.09,39.85A5,5,0,0,1,8.6,40.61Z"/><path class="cls-3" d="M10.93,39.59c-2.88,1.66-5.24.31-5.24-3A11.72,11.72,0,0,1,10.15,28c.47-4.51,3.61-9.59,7.41-11.78,2.49-1.45,4.72-1.3,6.08.13a8.6,8.6,0,0,1,1.49-1.11c2.31-1.32,4.25-.74,4.95,1.23,2.62-1.19,4.67.19,4.67,3.31a11.53,11.53,0,0,1-5.24,9.07Z"/><path class="cls-2" d="M20.89,15.54a6.36,6.36,0,0,0-3.17,1c-3.67,2.11-6.79,7.07-7.26,11.54a.26.26,0,0,1-.13.21A11.48,11.48,0,0,0,6,36.56a3.42,3.42,0,0,0,1.36,3.12,3.38,3.38,0,0,0,3.4-.36L29.35,28.6a11.23,11.23,0,0,0,5.08-8.8,3.43,3.43,0,0,0-1.28-3.06,3,3,0,0,0-2.94,0,.33.33,0,0,1-.26,0,.27.27,0,0,1-.15-.18A2.51,2.51,0,0,0,28.33,15a3.71,3.71,0,0,0-3,.53,7.78,7.78,0,0,0-1.44,1.07.3.3,0,0,1-.42,0,3.46,3.46,0,0,0-2.54-1ZM8.6,40.61a3,3,0,0,1-1.52-.39,4,4,0,0,1-1.7-3.66,12,12,0,0,1,4.48-8.71c.52-4.61,3.74-9.69,7.54-11.88,2.44-1.4,4.74-1.4,6.27,0A8.13,8.13,0,0,1,25,15a4.23,4.23,0,0,1,3.57-.57,3,3,0,0,1,1.7,1.66,3.5,3.5,0,0,1,3.25.13,4,4,0,0,1,1.57,3.58,11.86,11.86,0,0,1-5.4,9.33L11.09,39.85h0A5,5,0,0,1,8.6,40.61Z"/><path class="cls-2" d="M10.15,28.32a.29.29,0,0,1-.16,0l-5.4-3.11a.33.33,0,0,1-.1-.42.3.3,0,0,1,.42-.11l5.39,3.11a.3.3,0,0,1,.13.42A.35.35,0,0,1,10.15,28.32Z"/><path class="cls-2" d="M23.72,16.55a.32.32,0,0,1-.16,0l-5.34-3.09a.32.32,0,0,1-.14-.42.3.3,0,0,1,.42-.11L23.85,16a.3.3,0,0,1,.13.42A.29.29,0,0,1,23.72,16.55Z"/><path class="cls-2" d="M28.67,15.13a.22.22,0,0,1-.13,0l-3.07-1.77a.32.32,0,0,1-.13-.42.31.31,0,0,1,.42-.11l3.07,1.76A.32.32,0,0,1,29,15,.39.39,0,0,1,28.67,15.13Z"/></g></g></svg>