<svg xmlns="http://www.w3.org/2000/svg" viewBox="0 0 82.28 88.87"><defs><style>.cls-1{fill:#66ceef;}.cls-1,.cls-2,.cls-3,.cls-4{fill-rule:evenodd;}.cls-2{fill:#1a87c7;}.cls-3{fill:#bdedf8;}.cls-4{fill:#fff;}</style></defs><g id="Camada_2" data-name="Camada 2"><g id="_Layer_" data-name="&lt;Layer&gt;"><path class="cls-1" d="M2.9,64.87,1,63.58a2.81,2.81,0,0,1-.38-1.53V31.45a7.06,7.06,0,0,1,3.2-5.54L46.93,1.05A2.27,2.27,0,0,1,49.19.83l1.9,1.29a2.29,2.29,0,0,0-2.26.22L5.72,27.2a7.09,7.09,0,0,0-3.2,5.54v30.6A2.76,2.76,0,0,0,2.9,64.87Z"/><path class="cls-2" d="M1.47,63.16l.43.29a.34.34,0,0,0,0-.1l0-30.61A7.74,7.74,0,0,1,5.4,26.67L48.52,1.8a4.66,4.66,0,0,1,.59-.28l-.26-.18c-.41-.21-.89-.15-1.62.25L4.13,26.45a6.42,6.42,0,0,0-2.88,5l0,30.58a2.29,2.29,0,0,0,.24,1.11ZM2.9,65.49a.63.63,0,0,1-.35-.11L.66,64.09a.58.58,0,0,1-.19-.19A3.56,3.56,0,0,1,0,62.06V31.45a7.61,7.61,0,0,1,3.5-6.06L46.63.52A2.89,2.89,0,0,1,49.48.28l2,1.33a.62.62,0,0,1,.18.83.6.6,0,0,1-.81.22,1.67,1.67,0,0,0-1.68.22L6,27.74a6.39,6.39,0,0,0-2.89,5l0,30.58a2.33,2.33,0,0,0,.31,1.22.62.62,0,0,1-.53.93Z"/><path class="cls-3" d="M5.72,27.2,48.83,2.34c1.76-1,3.19-.19,3.19,1.84v30.6a7.09,7.09,0,0,1-3.2,5.54L5.71,65.19c-1.76,1-3.2.18-3.2-1.85V32.74A7.09,7.09,0,0,1,5.72,27.2Z"/><path class="cls-2" d="M5.72,27.2h0ZM50.25,2.52a2.27,2.27,0,0,0-1.11.35L6,27.74H6a6.47,6.47,0,0,0-2.89,5l0,30.6a1.67,1.67,0,0,0,.64,1.53,1.72,1.72,0,0,0,1.64-.21L48.5,39.79a6.49,6.49,0,0,0,2.89-5V4.18a1.71,1.71,0,0,0-.62-1.53,1.07,1.07,0,0,0-.53-.13Zm-46,63.72a2.24,2.24,0,0,1-1.15-.3,2.84,2.84,0,0,1-1.25-2.6l0-30.6a7.75,7.75,0,0,1,3.5-6.07L48.52,1.8a2.84,2.84,0,0,1,2.87-.22,2.85,2.85,0,0,1,1.25,2.6v30.6a7.69,7.69,0,0,1-3.51,6.08L6,65.72A3.47,3.47,0,0,1,4.29,66.24Z"/><path class="cls-4" d="M5.91,29.5,17.27,23,48.63,4.85c.81-.46,1.46-.09,1.46.85V35.49A3.25,3.25,0,0,1,48.62,38L13.23,58.44,5.9,62.67c-.81.46-1.46.09-1.46-.85V32A3.21,3.21,0,0,1,5.91,29.5Z"/><path class="cls-2" d="M5.91,29.5h0ZM49.28,5.27a.72.72,0,0,0-.34.12L6.22,30h0a2.67,2.67,0,0,0-1.16,2V61.82c0,.24.06.39.12.42a.52.52,0,0,0,.42-.1L48.32,37.49a2.64,2.64,0,0,0,1.15-2V5.7c0-.23-.06-.38-.12-.41l-.08,0Zm-44,58.21a1.37,1.37,0,0,1-.7-.17,1.66,1.66,0,0,1-.73-1.49V32A3.88,3.88,0,0,1,5.61,29L48.33,4.32A1.62,1.62,0,0,1,50,4.22a1.63,1.63,0,0,1,.74,1.48V35.49a3.86,3.86,0,0,1-1.77,3.07L6.2,63.21A2,2,0,0,1,5.25,63.48Z"/><polygon class="cls-4" points="12.46 33.35 42.09 16.25 42.09 36.67 12.46 53.78 12.46 33.35"/><path class="cls-2" d="M13.07,33.71v19l28.4-16.4v-19l-28.4,16.4ZM12.46,54.4a.56.56,0,0,1-.31-.09.59.59,0,0,1-.31-.53V33.35a.59.59,0,0,1,.31-.53L41.78,15.71a.62.62,0,0,1,.93.54V36.67a.6.6,0,0,1-.31.53L12.76,54.31A.55.55,0,0,1,12.46,54.4Z"/><polygon class="cls-3" points="12.46 33.35 42.09 16.25 42.09 13.3 12.46 30.41 12.46 33.35"/><path class="cls-2" d="M13.07,30.76v1.52l28.4-16.39V14.36l-28.4,16.4ZM12.46,34a.56.56,0,0,1-.31-.09.58.58,0,0,1-.31-.53V30.41a.61.61,0,0,1,.31-.54l29.63-17.1a.62.62,0,0,1,.62,0,.61.61,0,0,1,.31.53v2.95a.63.63,0,0,1-.31.53L12.76,33.88A.55.55,0,0,1,12.46,34Z"/><path class="cls-3" d="M20,33.88h0c.41-.23.73,0,.73.42h0A1.59,1.59,0,0,1,20,35.56h0c-.39.23-.72,0-.72-.42h0A1.65,1.65,0,0,1,20,33.88Z"/><path class="cls-2" d="M20,33.88h0Zm-.32,2.39a1,1,0,0,1-.49-.12,1.12,1.12,0,0,1-.53-1,2.23,2.23,0,0,1,1-1.79,1,1,0,0,1,1.65.95,2.2,2.2,0,0,1-1,1.79A1.26,1.26,0,0,1,19.64,36.27Z"/><path class="cls-3" d="M20,38.39h0c.41-.23.73,0,.73.42h0A1.59,1.59,0,0,1,20,40.07h0c-.39.23-.72,0-.72-.42h0A1.64,1.64,0,0,1,20,38.39Z"/><path class="cls-2" d="M20,38.39h0Zm-.32,2.39a1,1,0,0,1-.49-.13,1.09,1.09,0,0,1-.53-1,2.26,2.26,0,0,1,1-1.8,1.12,1.12,0,0,1,1.13,0,1.1,1.1,0,0,1,.52,1,2.2,2.2,0,0,1-1,1.79A1.17,1.17,0,0,1,19.64,40.78Z"/><path class="cls-3" d="M20,43.18h0c.41-.23.73,0,.73.42h0A1.61,1.61,0,0,1,20,44.86h0c-.39.23-.72,0-.72-.42h0A1.64,1.64,0,0,1,20,43.18Z"/><path class="cls-2" d="M20,43.18h0Zm-.32,2.39a.92.92,0,0,1-.49-.13,1.1,1.1,0,0,1-.53-1,2.21,2.21,0,0,1,1-1.79,1,1,0,0,1,1.65,1,2.2,2.2,0,0,1-1,1.79A1.26,1.26,0,0,1,19.64,45.57Z"/><path class="cls-3" d="M81.61,58.68V61a2.52,2.52,0,0,1-1.28,1.48l-43.27,25a6.51,6.51,0,0,1-3,.76,6.65,6.65,0,0,1-3.42-.76L4.07,72.12a2.52,2.52,0,0,1-1.28-1.48V68.3a2.55,2.55,0,0,0,1.28,1.48L30.64,85.14a7.09,7.09,0,0,0,6.42,0l43.27-25A2.5,2.5,0,0,0,81.61,58.68Z"/><path class="cls-2" d="M3.41,70.55a1.88,1.88,0,0,0,1,1L31,87a6,6,0,0,0,3.11.68,5.76,5.76,0,0,0,2.7-.68L80,62a2,2,0,0,0,1-1v-.46c-.12.07-.23.15-.35.21l-43.28,25a7.2,7.2,0,0,1-3.28.85,7,7,0,0,1-3.75-.85L3.76,70.31l-.35-.23v.47ZM33.94,88.87a7.1,7.1,0,0,1-3.6-.85L3.76,72.65A3.13,3.13,0,0,1,2.2,70.81a.52.52,0,0,1,0-.17V68.3a.61.61,0,0,1,.52-.61.62.62,0,0,1,.68.44,1.9,1.9,0,0,0,1,1.12L31,84.61a5.78,5.78,0,0,0,3.11.68,5.64,5.64,0,0,0,2.7-.68L80,59.63a1.89,1.89,0,0,0,1-1.12.63.63,0,0,1,.68-.44.62.62,0,0,1,.53.61V61a.47.47,0,0,1,0,.17A3.09,3.09,0,0,1,80.65,63L37.37,88a7.08,7.08,0,0,1-3.28.85Z"/><path class="cls-1" d="M4.07,66.06l43.27-25a7.12,7.12,0,0,1,6.42,0L80.33,56.45c1.77,1,1.77,2.69,0,3.71l-43.27,25a7.09,7.09,0,0,1-6.42,0L4.07,69.78C2.3,68.75,2.3,67.08,4.07,66.06Z"/><path class="cls-2" d="M4.07,66.06h0Zm.31.54a1.36,1.36,0,0,0,0,2.64L31,84.61a6.53,6.53,0,0,0,5.8,0L80,59.63A1.37,1.37,0,0,0,80,57L53.45,41.61a6.5,6.5,0,0,0-5.8,0L4.38,66.6ZM33.85,86.52a7.21,7.21,0,0,1-3.52-.84L3.76,70.31a2.57,2.57,0,0,1,0-4.78L47,40.54a7.8,7.8,0,0,1,7,0L80.64,55.92a2.55,2.55,0,0,1,0,4.77l-43.27,25A7.21,7.21,0,0,1,33.85,86.52Z"/><polygon class="cls-3" points="50.59 74.8 62.43 67.96 53.36 62.72 41.53 69.56 50.59 74.8"/><path class="cls-2" d="M42.76,69.56l7.83,4.53L61.2,68l-7.84-4.52-10.6,6.12Zm7.83,5.86a.68.68,0,0,1-.31-.08L41.22,70.1a.62.62,0,0,1-.31-.54.63.63,0,0,1,.31-.53l11.83-6.84a.62.62,0,0,1,.62,0l9.07,5.24A.6.6,0,0,1,63,68a.63.63,0,0,1-.3.54L50.9,75.34A.65.65,0,0,1,50.59,75.42Z"/><path class="cls-3" d="M9.48,66.93q19.7-11.36,39.35-22.72a3.81,3.81,0,0,1,3.42,0L65.66,52a1,1,0,0,1,0,2L26.32,76.67a3.77,3.77,0,0,1-3.43,0L9.48,68.91A1,1,0,0,1,9.48,66.93Z"/><path class="cls-2" d="M9.48,66.93l.31.54c-.24.14-.39.32-.39.45s.15.32.39.46L23.2,76.14a3.22,3.22,0,0,0,2.81,0L65.35,53.41c.25-.14.4-.32.4-.45s-.15-.32-.4-.46L51.94,44.74a3.2,3.2,0,0,0-2.8,0L9.79,67.47l-.31-.54ZM24.61,77.69a4.12,4.12,0,0,1-2-.49L9.18,69.45a1.65,1.65,0,0,1,0-3L48.52,43.68a4.37,4.37,0,0,1,4,0L66,51.43a1.66,1.66,0,0,1,0,3L26.62,77.2A4,4,0,0,1,24.61,77.69Z"/><path class="cls-4" d="M26.76,64.76l1.93-1.12a1.59,1.59,0,0,1,1.41,0L32,64.76a.43.43,0,0,1,0,.81L30.1,66.69a1.53,1.53,0,0,1-1.41,0l-1.93-1.12A.43.43,0,0,1,26.76,64.76Z"/><path class="cls-2" d="M27.28,65.17l1.72,1a1,1,0,0,0,.8,0l1.71-1-1.71-1a1,1,0,0,0-.8,0l-1.72,1Zm2.12,2.31a2,2,0,0,1-1-.26L26.45,66.1a1.07,1.07,0,0,1-.6-.93,1.09,1.09,0,0,1,.6-1h0l1.94-1.11a2.13,2.13,0,0,1,2,0l1.94,1.11a1.05,1.05,0,0,1,0,1.89l-1.94,1.11A2,2,0,0,1,29.4,67.48Z"/><path class="cls-4" d="M19.16,69.14l-1.93,1.12a.44.44,0,0,0,0,.82l1.94,1.11a1.53,1.53,0,0,0,1.41,0l1.94-1.11a.43.43,0,0,0,0-.82l-1.93-1.12A1.61,1.61,0,0,0,19.16,69.14Z"/><path class="cls-2" d="M17.75,70.67l1.72,1a1,1,0,0,0,.79,0l1.72-1-1.72-1a.91.91,0,0,0-.79,0l-1.72,1ZM19.86,73a2.13,2.13,0,0,1-1-.25l-1.94-1.12a1.13,1.13,0,0,1-.59-.94,1.1,1.1,0,0,1,.6-1l1.93-1.11h0a2.17,2.17,0,0,1,2,0l1.93,1.11a1.11,1.11,0,0,1,.6,1,1.09,1.09,0,0,1-.6.94l-1.94,1.12A2.14,2.14,0,0,1,19.86,73Z"/><path class="cls-4" d="M23.92,71.89,22,73a.43.43,0,0,0,0,.82l1.93,1.11a1.53,1.53,0,0,0,1.41,0l1.93-1.11a.43.43,0,0,0,0-.82l-1.93-1.12A1.61,1.61,0,0,0,23.92,71.89Z"/><path class="cls-2" d="M22.52,73.42l1.71,1a.93.93,0,0,0,.8,0l1.71-1-1.71-1a.93.93,0,0,0-.8,0l-1.71,1Zm2.1,2.31a2.13,2.13,0,0,1-1-.25l-1.93-1.12a1.07,1.07,0,0,1-.6-.94,1.11,1.11,0,0,1,.6-.94l1.93-1.12h0a2.21,2.21,0,0,1,2,0l1.94,1.12a1,1,0,0,1,0,1.88l-1.94,1.12A2.14,2.14,0,0,1,24.62,75.73Z"/><path class="cls-4" d="M20.58,66.69l1.93-1.12a.43.43,0,0,0,0-.81l-1.93-1.12a1.53,1.53,0,0,0-1.41,0l-1.94,1.11a.43.43,0,0,0,0,.82l1.93,1.12A1.55,1.55,0,0,0,20.58,66.69Z"/><path class="cls-2" d="M17.76,65.16l1.71,1a1,1,0,0,0,.8,0l1.71-1-1.71-1a1,1,0,0,0-.8,0l-1.71,1Zm2.82,1.53h0Zm-.71.78a2,2,0,0,1-1-.25L16.92,66.1a1,1,0,0,1,0-1.88l1.94-1.12a2.18,2.18,0,0,1,2,0l1.93,1.11a1,1,0,0,1,0,1.88l-1.93,1.12h0A2,2,0,0,1,19.87,67.47Z"/><path class="cls-4" d="M25.34,63.94l1.93-1.12c.4-.22.4-.59,0-.81l-1.93-1.13a1.61,1.61,0,0,0-1.42,0L22,62c-.4.22-.4.58,0,.81l1.93,1.12A1.59,1.59,0,0,0,25.34,63.94Z"/><path class="cls-2" d="M22.52,62.41l1.71,1a.93.93,0,0,0,.8,0l1.72-1-1.71-1a1,1,0,0,0-.81,0l-1.71,1Zm2.82,1.53h0Zm-.71.79a2,2,0,0,1-1-.26l-1.93-1.12a1,1,0,0,1,0-1.88l1.93-1.12a2.21,2.21,0,0,1,2,0l1.94,1.12a1.11,1.11,0,0,1,.6.94,1.09,1.09,0,0,1-.61.94l-1.93,1.12h0A2,2,0,0,1,24.63,64.73Z"/><path class="cls-4" d="M17.75,68.32l-1.94,1.12a1.53,1.53,0,0,1-1.41,0l-1.93-1.12c-.39-.23-.39-.59,0-.81l1.94-1.12a1.51,1.51,0,0,1,1.4,0l1.94,1.12A.43.43,0,0,1,17.75,68.32Z"/><path class="cls-2" d="M13,67.91l1.72,1a1,1,0,0,0,.79,0l1.72-1-1.72-1a1,1,0,0,0-.79,0l-1.72,1Zm2.12,2.32a2.17,2.17,0,0,1-1-.25l-1.93-1.13a1,1,0,0,1,0-1.88l1.94-1.11a2.13,2.13,0,0,1,2,0L18.06,67a1,1,0,0,1,0,1.88L16.12,70A2.13,2.13,0,0,1,15.11,70.23Z"/><path class="cls-4" d="M22,67.51l1.94-1.12a1.59,1.59,0,0,1,1.41,0l1.93,1.12a.43.43,0,0,1,0,.81l-1.93,1.12a1.53,1.53,0,0,1-1.41,0L22,68.32A.43.43,0,0,1,22,67.51Z"/><path class="cls-2" d="M22.52,67.92l1.71,1a1,1,0,0,0,.8,0l1.72-1-1.72-1a.93.93,0,0,0-.8,0l-1.71,1Zm2.11,2.31a2.1,2.1,0,0,1-1-.25l-1.94-1.13a1.08,1.08,0,0,1-.59-.93,1.1,1.1,0,0,1,.59-1h0l1.94-1.11a2.16,2.16,0,0,1,2,0L27.58,67a1.08,1.08,0,0,1,.6.94,1.11,1.11,0,0,1-.6.94L25.64,70A2.07,2.07,0,0,1,24.63,70.23Z"/><path class="cls-4" d="M36.28,59.25l1.93-1.11a1.55,1.55,0,0,1,1.42,0l1.93,1.12a.43.43,0,0,1,0,.81l-1.93,1.12a1.61,1.61,0,0,1-1.42,0l-1.93-1.12A.43.43,0,0,1,36.28,59.25Z"/><path class="cls-2" d="M36.28,59.25h0Zm.53.41,1.71,1a.93.93,0,0,0,.8,0l1.71-1-1.71-1a1,1,0,0,0-.8,0l-1.71,1ZM38.92,62a2,2,0,0,1-1-.25L36,60.6a1.08,1.08,0,0,1-.59-.94,1.1,1.1,0,0,1,.59-.94l1.94-1.12a2.21,2.21,0,0,1,2,0l1.93,1.13a1,1,0,0,1,0,1.88l-1.94,1.11A2,2,0,0,1,38.92,62Z"/><path class="cls-4" d="M41.05,62,43,60.89a1.53,1.53,0,0,1,1.41,0L46.32,62a.43.43,0,0,1,0,.82l-1.93,1.11a1.55,1.55,0,0,1-1.42,0L41,62.82C40.65,62.6,40.65,62.23,41.05,62Z"/><path class="cls-2" d="M41.05,62h0Zm.52.4,1.71,1a.93.93,0,0,0,.8,0l1.72-1-1.72-1a1,1,0,0,0-.8,0l-1.71,1Zm2.12,2.32a2,2,0,0,1-1-.26l-1.92-1.11a1,1,0,0,1,0-1.88l1.93-1.13a2.2,2.2,0,0,1,2,0l1.93,1.13a1.07,1.07,0,0,1,.6.94,1.09,1.09,0,0,1-.6.94L44.7,64.47A2,2,0,0,1,43.69,64.73Z"/><path class="cls-4" d="M30.1,61.19,32,60.07a.43.43,0,0,0,0-.82l-1.93-1.11a1.55,1.55,0,0,0-1.42,0l-1.93,1.11a.43.43,0,0,0,0,.82l1.93,1.12A1.59,1.59,0,0,0,30.1,61.19Z"/><path class="cls-2" d="M27.28,59.66l1.72,1a.93.93,0,0,0,.8,0h0l1.71-1-1.71-1a1,1,0,0,0-.8,0l-1.72,1ZM29.4,62a2,2,0,0,1-1-.25L26.45,60.6a1.09,1.09,0,0,1-.6-.94,1.08,1.08,0,0,1,.6-.94l1.94-1.12a2.21,2.21,0,0,1,2,0l1.93,1.12a1.11,1.11,0,0,1,.6.94,1.09,1.09,0,0,1-.6.94l-1.94,1.12A2,2,0,0,1,29.4,62Z"/><path class="cls-4" d="M34.87,58.44l1.94-1.12a.44.44,0,0,0,0-.82l-1.94-1.11a1.53,1.53,0,0,0-1.41,0L31.52,56.5a.44.44,0,0,0,0,.82l1.94,1.12A1.59,1.59,0,0,0,34.87,58.44Z"/><path class="cls-2" d="M32.05,56.91l1.72,1a.91.91,0,0,0,.79,0l1.72-1-1.72-1a.91.91,0,0,0-.79,0l-1.72,1Zm2.82,1.53h0Zm-.71.78a2,2,0,0,1-1-.25l-1.94-1.12a1.11,1.11,0,0,1-.6-.94,1.09,1.09,0,0,1,.6-.94l1.94-1.12a2.21,2.21,0,0,1,2,0L37.11,56a1,1,0,0,1,0,1.88L35.18,59h0A2,2,0,0,1,34.16,59.22Z"/><path class="cls-4" d="M31.52,62l1.93-1.12a1.55,1.55,0,0,1,1.42,0L36.8,62a.43.43,0,0,1,0,.81l-1.93,1.12a1.61,1.61,0,0,1-1.42,0l-1.93-1.12A.43.43,0,0,1,31.52,62Z"/><path class="cls-2" d="M31.52,62h0Zm.52.4,1.72,1a1,1,0,0,0,.8,0l1.72-1-1.72-1a1,1,0,0,0-.8,0l-1.72,1Zm2.12,2.32a2,2,0,0,1-1-.26l-1.93-1.12a1.09,1.09,0,0,1-.6-.94,1.11,1.11,0,0,1,.6-.94l1.93-1.12a2.23,2.23,0,0,1,2,0l1.93,1.13a1.08,1.08,0,0,1,.6.93,1.11,1.11,0,0,1-.61,1l-1.93,1.11A2,2,0,0,1,34.16,64.73Z"/><path class="cls-4" d="M26.75,70.26l11.46-6.62a1.59,1.59,0,0,1,1.41,0l1.94,1.12a.43.43,0,0,1,0,.82L30.1,72.2a1.61,1.61,0,0,1-1.42,0l-1.93-1.12A.43.43,0,0,1,26.75,70.26Z"/><path class="cls-2" d="M27.28,70.67l1.71,1a.93.93,0,0,0,.8,0L41,65.17l-1.71-1a1,1,0,0,0-.8,0l-11.24,6.5ZM29.39,73a2.14,2.14,0,0,1-1-.25l-1.93-1.12a1,1,0,0,1,0-1.88h0l11.46-6.62a2.16,2.16,0,0,1,2,0l1.94,1.12a1,1,0,0,1,0,1.88L30.4,72.73A2.13,2.13,0,0,1,29.39,73Z"/><path class="cls-4" d="M52.12,50.1,54.05,49a1.61,1.61,0,0,1,1.42,0l1.93,1.13c.39.22.39.59,0,.81L55.47,52a1.55,1.55,0,0,1-1.42,0l-1.93-1.12A.43.43,0,0,1,52.12,50.1Z"/><path class="cls-2" d="M52.12,50.1h0Zm.52.41,1.72,1a.93.93,0,0,0,.8,0l1.71-1-1.71-1a1,1,0,0,0-.8,0l-1.72,1Zm2.11,2.31a2,2,0,0,1-1-.25l-1.93-1.12a1.09,1.09,0,0,1-.6-.94,1.11,1.11,0,0,1,.6-.94l1.94-1.11a2.1,2.1,0,0,1,2,0l1.94,1.11a1,1,0,0,1,0,1.89l-1.93,1.11A2,2,0,0,1,54.75,52.82Z"/><path class="cls-4" d="M56.88,52.86l1.93-1.12a1.59,1.59,0,0,1,1.41,0l1.94,1.12c.39.23.39.59,0,.81L60.22,54.8a1.56,1.56,0,0,1-1.41,0l-1.94-1.12A.43.43,0,0,1,56.88,52.86Z"/><path class="cls-2" d="M56.88,52.86h0Zm.52.41,1.72,1a1,1,0,0,0,.79,0l1.72-1-1.72-1a1,1,0,0,0-.79,0l-1.72,1Zm2.12,2.31a2,2,0,0,1-1-.26l-1.93-1.11a1,1,0,0,1,0-1.89l1.93-1.11a2.18,2.18,0,0,1,2,0l1.94,1.12a1,1,0,0,1,0,1.88l-1.94,1.11A2,2,0,0,1,59.52,55.58Z"/><path class="cls-4" d="M50.7,49.29l1.94-1.12a.43.43,0,0,0,0-.82L50.7,46.23a1.59,1.59,0,0,0-1.41,0l-1.93,1.12a.44.44,0,0,0,0,.82l1.94,1.12A1.59,1.59,0,0,0,50.7,49.29Z"/><path class="cls-2" d="M47.88,47.76l1.72,1a1,1,0,0,0,.79,0h0l1.72-1-1.72-1a.91.91,0,0,0-.79,0l-1.72,1ZM50,50.07a2,2,0,0,1-1-.25L47,48.7a1,1,0,0,1,0-1.88L49,45.7a2.15,2.15,0,0,1,2,0L53,46.82a1,1,0,0,1,0,1.88L51,49.82A2,2,0,0,1,50,50.07Z"/><path class="cls-4" d="M47.35,52.86l1.94-1.12a1.59,1.59,0,0,1,1.41,0l1.94,1.12a.43.43,0,0,1,0,.81L50.7,54.79a1.53,1.53,0,0,1-1.41,0l-1.94-1.12A.43.43,0,0,1,47.35,52.86Z"/><path class="cls-2" d="M47.35,52.86h0Zm.53.41,1.72,1a1,1,0,0,0,.79,0l1.72-1-1.72-1a1,1,0,0,0-.79,0l-1.72,1ZM50,55.58a2,2,0,0,1-1-.26L47,54.21a1.13,1.13,0,0,1-.59-.94,1.11,1.11,0,0,1,.59-1L49,51.21a2.18,2.18,0,0,1,2,0l1.93,1.12a1.06,1.06,0,0,1,.6.94,1.09,1.09,0,0,1-.6.94L51,55.32A2,2,0,0,1,50,55.58Z"/><path class="cls-4" d="M52.12,55.61l1.93-1.12a1.61,1.61,0,0,1,1.42,0l1.92,1.12c.4.23.4.59,0,.82l-1.93,1.12a1.59,1.59,0,0,1-1.41,0l-1.94-1.12A.43.43,0,0,1,52.12,55.61Z"/><path class="cls-2" d="M52.12,55.61h0Zm.52.41,1.71,1a1,1,0,0,0,.81,0l1.71-1-1.71-1a.93.93,0,0,0-.8,0l-1.72,1Zm2.11,2.31a2.13,2.13,0,0,1-1-.25L51.81,57a1.09,1.09,0,0,1-.6-.94,1.11,1.11,0,0,1,.6-1L53.74,54a2.18,2.18,0,0,1,2,0l1.93,1.12a1.07,1.07,0,0,1,.6.94,1.09,1.09,0,0,1-.6.94l-1.93,1.12A2.14,2.14,0,0,1,54.75,58.33Z"/><path class="cls-4" d="M41.18,54.79l1.93-1.12a.43.43,0,0,0,0-.81l-1.93-1.12a1.53,1.53,0,0,0-1.41,0l-1.94,1.11a.43.43,0,0,0,0,.82l1.94,1.12A1.53,1.53,0,0,0,41.18,54.79Z"/><path class="cls-2" d="M38.36,53.26l1.72,1a1,1,0,0,0,.79,0l1.72-1-1.72-1a.91.91,0,0,0-.79,0l-1.72,1Zm2.82,1.53h0Zm-.71.78a2,2,0,0,1-1-.25L37.52,54.2a1,1,0,0,1,0-1.88l1.94-1.12a2.18,2.18,0,0,1,2,0l1.93,1.11a1.11,1.11,0,0,1,.6,1,1.09,1.09,0,0,1-.6.93l-1.93,1.12h0A2.06,2.06,0,0,1,40.47,55.57Z"/><path class="cls-4" d="M45.94,52l1.94-1.12a.43.43,0,0,0,0-.82L45.94,49a1.59,1.59,0,0,0-1.41,0L42.6,50.1a.43.43,0,0,0,0,.82L44.53,52A1.59,1.59,0,0,0,45.94,52Z"/><path class="cls-2" d="M43.12,50.51l1.72,1a.91.91,0,0,0,.79,0h0l1.72-1-1.72-1a.91.91,0,0,0-.79,0l-1.72,1Zm2.12,2.31a2,2,0,0,1-1-.25l-1.93-1.12a1,1,0,0,1,0-1.88l1.93-1.11a2.15,2.15,0,0,1,2,0l1.94,1.11a1.12,1.12,0,0,1,.59.94,1.1,1.1,0,0,1-.59.94l-1.94,1.12A2,2,0,0,1,45.24,52.82Z"/><path class="cls-4" d="M42.6,55.61l1.93-1.12a1.59,1.59,0,0,1,1.41,0l1.94,1.12c.39.22.39.59,0,.82l-1.93,1.11a1.55,1.55,0,0,1-1.42,0l-1.93-1.11A.43.43,0,0,1,42.6,55.61Z"/><path class="cls-2" d="M43.12,56l1.71,1a.93.93,0,0,0,.8,0l1.71-1-1.71-1a1,1,0,0,0-.79,0l-1.72,1Zm2.11,2.31a2.14,2.14,0,0,1-1-.25L42.28,57a1,1,0,0,1,0-1.89h0L44.22,54a2.15,2.15,0,0,1,2,0l1.94,1.12a1,1,0,0,1,0,1.88l-1.93,1.12A2.17,2.17,0,0,1,45.23,58.33Z"/><path class="cls-4" d="M47.35,58.36l1.94-1.12a1.59,1.59,0,0,1,1.41,0l1.94,1.12a.44.44,0,0,1,0,.82L50.7,60.3a1.61,1.61,0,0,1-1.42,0l-1.93-1.12A.44.44,0,0,1,47.35,58.36Z"/><path class="cls-2" d="M47.88,58.77l1.72,1a.91.91,0,0,0,.79,0l1.72-1-1.72-1a.91.91,0,0,0-.79,0l-1.72,1ZM50,61.08a2,2,0,0,1-1-.25L47,59.71a1.08,1.08,0,0,1-.59-.94,1.1,1.1,0,0,1,.59-.94h0L49,56.71a2.21,2.21,0,0,1,2,0l1.93,1.12a1.11,1.11,0,0,1,.6.94,1.08,1.08,0,0,1-.6.94L51,60.83A2,2,0,0,1,50,61.08Z"/><path class="cls-1" d="M34.1,88.25V85.91h0a6.56,6.56,0,0,1-3.42-.77L4.07,69.78A2.55,2.55,0,0,1,2.79,68.3v2.34a2.55,2.55,0,0,0,1.28,1.48L30.64,87.49a6.65,6.65,0,0,0,3.42.76Z"/><path class="cls-2" d="M3.41,70.54a1.91,1.91,0,0,0,1,1L31,87a5.45,5.45,0,0,0,2.53.67V86.51a6.83,6.83,0,0,1-3.14-.83L3.76,70.31l-.35-.23v.46ZM34.1,88.25h0Zm-.16.62a7.05,7.05,0,0,1-3.6-.85L3.76,72.65A3.19,3.19,0,0,1,2.2,70.81a.52.52,0,0,1,0-.17V68.3a.61.61,0,0,1,1.2-.17,1.9,1.9,0,0,0,1,1.12L31,84.61a5.85,5.85,0,0,0,3.11.68.76.76,0,0,1,.46.18.62.62,0,0,1,.2.44v2.34a.62.62,0,0,1-.59.62h-.19Z"/><path class="cls-2" d="M22.77,38.23a.6.6,0,0,1-.53-.31.62.62,0,0,1,.22-.84l11.59-6.69a.61.61,0,1,1,.61,1.06L23.08,38.14A.61.61,0,0,1,22.77,38.23Z"/><path class="cls-2" d="M22.77,33.72a.6.6,0,0,1-.53-.31.62.62,0,0,1,.22-.84l11.59-6.69A.62.62,0,1,1,34.66,27L23.08,33.64A.71.71,0,0,1,22.77,33.72Z"/><path class="cls-2" d="M22.77,43a.6.6,0,0,1-.53-.31.62.62,0,0,1,.22-.84l9.37-5.41a.6.6,0,0,1,.84.22.62.62,0,0,1-.22.84l-9.37,5.41A.61.61,0,0,1,22.77,43Z"/></g></g></svg>